SplineFontDB: 3.2
MMCounts: 7 2 1 9
MMAxis: Weight Width
MMPositions: 0.609985 -1 1 -1 0 -1 1 0 -1 0 -1 -1 0.609985 0
MMWeights: 0 0 0 0 0 0 0
MMAxisMap: 0 3 -1=>100 0=>400 1=>900
MMAxisMap: 1 3 -1=>62.5 0=>100 1=>100
MMNamedInstance: 0  100 100
MMNamedInstance: 1  200 100
MMNamedInstance: 2  300 100
MMNamedInstance: 3  400 100
MMNamedInstance: 4  500 100
MMNamedInstance: 5  600 100
MMNamedInstance: 6  700 100
MMNamedInstance: 7  800 100
MMNamedInstance: 8  900 100
BeginMMFonts: 8 459
FontName: NotoSansThai_705.0wt62.5wd
FullName: Noto Sans Thai_ 705.0wt 62.5wd
FamilyName: Noto Sans Thai
Weight: All
ItalicAngle: 0
UnderlinePosition: -125
UnderlineWidth: 50
Ascent: 800
Descent: 200
InvalidEm: 0
LayerCount: 2
Layer: 0 1 "Back" 1
Layer: 1 1 "Fore" 0
OS2Version: 0
OS2_WeightWidthSlopeOnly: 0
OS2_UseTypoMetrics: 0
CreationTime: 1773587008
ModificationTime: 1773587008
OS2TypoAscent: 0
OS2TypoAOffset: 1
OS2TypoDescent: 0
OS2TypoDOffset: 1
OS2TypoLinegap: 0
OS2WinAscent: 0
OS2WinAOffset: 1
OS2WinDescent: 0
OS2WinDOffset: 1
HheadAscent: 0
HheadAOffset: 1
HheadDescent: 0
HheadDOffset: 1
OS2Vendor: 'PfEd'
DEI: 91125
Encoding: UnicodeBmp
UnicodeInterp: none
NameList: AGL For New Fonts
DisplaySize: -48
AntiAlias: 1
FitToEm: 0
WinInfo: 3525 25 9
BeginChars: 65569 459

StartChar: .notdef
Encoding: 65536 -1 0
Width: 600
GlyphClass: 1
Flags: W
LayerCount: 2
Fore
SplineSet
85 0 m 1,0,-1
 94 714 l 1,1,-1
 505 714 l 1,2,-1
 505 0 l 1,3,-1
 85 0 l 1,0,-1
136 51 m 1,4,-1
 454 51 l 1,5,-1
 454 663 l 1,6,-1
 145 663 l 1,7,-1
 136 51 l 1,4,-1
EndSplineSet
EndChar

StartChar: uni0E5A
Encoding: 3674 3674 3
Width: 583
GlyphClass: 1
Flags: W
LayerCount: 2
Fore
SplineSet
241 -1 m 1,0,-1
 332 175.5 332 175.5 241 355 c 1,1,-1
 347 352.5 347 352.5 265 355 c 1,2,3
 262 284 262 284 231 253.5 c 128,-1,4
 200 223 200 223 155 223 c 0,5,6
 117 223 117 223 87 243 c 128,-1,7
 57 263 57 263 39.5 302.5 c 128,-1,8
 22 342 22 342 22 400 c 0,9,10
 22 473 22 473 52 515.5 c 128,-1,11
 82 558 82 558 135 558 c 0,12,13
 145 558 145 558 158 556 c 128,-1,14
 171 554 171 554 185 546 c 1,15,-1
 233.5 512.5 233.5 512.5 176 481 c 1,16,17
 168 486 168 486 162.5 487 c 128,-1,18
 157 488 157 488 152 488 c 0,19,20
 131 488 131 488 116.5 465.5 c 128,-1,21
 102 443 102 443 102 395 c 0,22,23
 102 345 102 345 119.5 318.5 c 128,-1,24
 137 292 137 292 171 292 c 0,25,26
 207 292 207 292 224 323.5 c 128,-1,27
 241 355 241 355 241 419 c 2,28,-1
 332 483 332 483 241 548 c 1,29,-1
 376.5 548 376.5 548 324 548 c 1,30,-1
 421 273.5 421 273.5 324 -1 c 1,31,-1
 376.5 -1 376.5 -1 241 -1 c 1,0,-1
428 -1 m 1,32,-1
 580 181 580 181 428 365 c 1,33,-1
 595 363 595 363 450 365 c 1,34,35
 449 319 449 319 435 290 c 128,-1,36
 421 261 421 261 400 247 c 128,-1,37
 379 233 379 233 355 233 c 0,38,39
 334 233 334 233 316.5 241.5 c 128,-1,40
 299 250 299 250 285 266 c 1,41,-1
 388 294 388 294 306 321 c 1,42,43
 315 314 315 314 326.5 308.5 c 128,-1,44
 338 303 338 303 354 303 c 0,45,46
 389 303 389 303 408.5 334.5 c 128,-1,47
 428 366 428 366 428 429 c 2,48,-1
 580 488.5 580 488.5 428 548 c 1,49,-1
 624.5 548 624.5 548 511 548 c 1,50,-1
 669 273.5 669 273.5 511 -1 c 1,51,-1
 624.5 -1 624.5 -1 428 -1 c 1,32,-1
EndSplineSet
EndChar

StartChar: uni0E3F
Encoding: 3647 3647 4
Width: 414
GlyphClass: 1
Flags: W
LayerCount: 2
Fore
SplineSet
53 36 m 1,0,-1
 79 356.5 79 356.5 53 677 c 1,1,-1
 173 677 173 677 192 677 c 2,2,3
 280 677 280 677 324 641 c 128,-1,4
 368 605 368 605 368 518 c 0,5,6
 368 461 368 461 346.5 424 c 128,-1,7
 325 387 325 387 285 376 c 1,8,-1
 390 374 390 374 285 372 c 1,9,10
 315 365 315 365 336.5 348 c 128,-1,11
 358 331 358 331 369.5 299.5 c 128,-1,12
 381 268 381 268 381 218 c 0,13,14
 381 160 381 160 361.5 119.5 c 128,-1,15
 342 79 342 79 305.5 57.5 c 128,-1,16
 269 36 269 36 218 36 c 2,17,-1
 194 36 194 36 53 36 c 1,0,-1
130 109 m 1,18,-1
 229.5 112 229.5 112 211 109 c 2,19,20
 260 109 260 109 280.5 141.5 c 128,-1,21
 301 174 301 174 301 225 c 0,22,23
 301 273 301 273 279 303.5 c 128,-1,24
 257 334 257 334 207 334 c 2,25,-1
 226 332 226 332 130 334 c 1,26,-1
 165 222 165 222 130 109 c 1,18,-1
130 407 m 1,27,-1
 224 409 224 409 203 407 c 2,28,29
 250 407 250 407 269.5 433.5 c 128,-1,30
 289 460 289 460 289 509 c 0,31,32
 289 559 289 559 266.5 581.5 c 128,-1,33
 244 604 244 604 197 604 c 2,34,-1
 217.5 600 217.5 600 130 604 c 1,35,-1
 165 504.5 165 504.5 130 407 c 1,27,-1
181 -58 m 1,36,-1
 254 351 254 351 181 760 c 1,37,-1
 284.5 760 284.5 760 229 760 c 1,38,-1
 315 351 315 351 229 -58 c 1,39,-1
 284.5 -58 284.5 -58 181 -58 c 1,36,-1
EndSplineSet
EndChar

StartChar: uni0E1A
Encoding: 3610 3610 5
Width: 457
GlyphClass: 2
Flags: W
LayerCount: 2
Fore
SplineSet
229 -10 m 0,0,1
 141 -10 141 -10 102.5 43 c 128,-1,2
 64 96 64 96 64 195 c 2,3,-1
 81 373 81 373 64 548 c 1,4,-1
 125.5 548 125.5 548 146 548 c 1,5,-1
 170 372.5 170 372.5 146 195 c 2,6,7
 146 128 146 128 166 94 c 128,-1,8
 186 60 186 60 229 60 c 0,9,10
 271 60 271 60 291 94 c 128,-1,11
 311 128 311 128 311 195 c 2,12,-1
 434 372.5 434 372.5 311 548 c 1,13,-1
 478.5 548 478.5 548 393 548 c 1,14,-1
 523 373 523 373 393 195 c 2,15,16
 393 96 393 96 354.5 43 c 128,-1,17
 316 -10 316 -10 229 -10 c 0,0,1
EndSplineSet
EndChar

StartChar: uni0E08
Encoding: 3592 3592 6
Width: 407
GlyphClass: 2
Flags: W
LayerCount: 2
Fore
SplineSet
104 0 m 1,0,-1
 147 122 147 122 104 246 c 1,1,-1
 109 244 109 244 57 246 c 1,2,-1
 71 279 71 279 57 313 c 1,3,-1
 151.5 314 151.5 314 181 313 c 1,4,-1
 232 193 232 193 181 68 c 1,5,-1
 238.5 72 238.5 72 188 68 c 2,6,7
 216 68 216 68 235 88.5 c 128,-1,8
 254 109 254 109 264 154.5 c 128,-1,9
 274 200 274 200 274 276 c 256,10,11
 274 352 274 352 262 398.5 c 128,-1,12
 250 445 250 445 225 466.5 c 128,-1,13
 200 488 200 488 160 488 c 0,14,15
 125 488 125 488 94.5 475.5 c 128,-1,16
 64 463 64 463 38 437 c 1,17,-1
 38 516 l 1,18,19
 60 534 60 534 95 546 c 128,-1,20
 130 558 130 558 173 558 c 0,21,22
 239 558 239 558 279.5 524.5 c 128,-1,23
 320 491 320 491 339 427.5 c 128,-1,24
 358 364 358 364 358 275 c 0,25,26
 358 188 358 188 340.5 126.5 c 128,-1,27
 323 65 323 65 283.5 32.5 c 128,-1,28
 244 0 244 0 178 0 c 2,29,-1
 189 0 189 0 104 0 c 1,0,-1
EndSplineSet
EndChar

StartChar: uni0E0A
Encoding: 3594 3594 7
Width: 427
GlyphClass: 2
Flags: W
LayerCount: 2
Fore
SplineSet
214 -10 m 256,0,1
 141 -10 141 -10 102.5 35 c 128,-1,2
 64 80 64 80 64 171 c 2,3,-1
 77 202.5 77 202.5 64 234 c 2,4,5
 64 285 64 285 72.5 314.5 c 128,-1,6
 81 344 81 344 92 365 c 0,7,8
 104 388 104 388 112 405 c 128,-1,9
 120 422 120 422 120 445 c 0,10,11
 120 467 120 467 113.5 476 c 128,-1,12
 107 485 107 485 96 485 c 0,13,14
 88 485 88 485 79 481 c 128,-1,15
 70 477 70 477 62 471 c 1,16,-1
 64 500 64 500 46 532 c 1,17,18
 62 544 62 544 82.5 549 c 128,-1,19
 103 554 103 554 119 554 c 0,20,21
 148 554 148 554 165 541 c 128,-1,22
 182 528 182 528 190 506 c 128,-1,23
 198 484 198 484 198 455 c 0,24,25
 198 418 198 418 189.5 393.5 c 128,-1,26
 181 369 181 369 170 346 c 0,27,28
 160 321 160 321 153 297.5 c 128,-1,29
 146 274 146 274 146 237 c 2,30,-1
 166 207.5 166 207.5 146 176 c 2,31,32
 146 129 146 129 155 103.5 c 128,-1,33
 164 78 164 78 179.5 68.5 c 128,-1,34
 195 59 195 59 214 59 c 0,35,36
 248 59 248 59 264 83 c 128,-1,37
 280 107 280 107 280 156 c 2,38,-1
 377 229 377 229 280 300 c 2,39,40
 280 338 280 338 269.5 358 c 128,-1,41
 259 378 259 378 233 378 c 2,42,-1
 303 375 303 375 229 378 c 1,43,-1
 301 403.5 301 403.5 229 432 c 1,44,-1
 303.5 432 303.5 432 233 432 c 2,45,46
 259 432 259 432 270.5 451.5 c 128,-1,47
 282 471 282 471 285 498 c 128,-1,48
 288 525 288 525 288 548 c 1,49,-1
 432.5 548 432.5 548 370 548 c 1,50,51
 370 496 370 496 359.5 459 c 128,-1,52
 349 422 349 422 319 405 c 1,53,-1
 405 402 405 402 319 401 c 1,54,55
 337 394 337 394 346.5 377 c 128,-1,56
 356 360 356 360 359 340 c 128,-1,57
 362 320 362 320 362 301 c 2,58,-1
 466 227 466 227 362 151 c 2,59,60
 362 75 362 75 324.5 32.5 c 128,-1,61
 287 -10 287 -10 214 -10 c 256,0,1
EndSplineSet
EndChar

StartChar: uni0E09
Encoding: 3593 3593 8
Width: 455
GlyphClass: 2
Flags: W
LayerCount: 2
Fore
SplineSet
193 -10 m 0,0,1
 153 -10 153 -10 124.5 10 c 128,-1,2
 96 30 96 30 81 70.5 c 128,-1,3
 66 111 66 111 66 175 c 2,4,-1
 81 243.5 81 243.5 66 313 c 1,5,-1
 125 313 125 313 146 313 c 1,6,-1
 169 247 169 247 146 179 c 2,7,8
 146 122 146 122 164 91 c 128,-1,9
 182 60 182 60 217 60 c 0,10,11
 260 60 260 60 284 105.5 c 128,-1,12
 308 151 308 151 308 225 c 2,13,-1
 434 272 434 272 308 316 c 2,14,15
 308 384 308 384 295 421 c 128,-1,16
 282 458 282 458 258.5 473 c 128,-1,17
 235 488 235 488 202 488 c 0,18,19
 167 488 167 488 134.5 476.5 c 128,-1,20
 102 465 102 465 74 437 c 1,21,-1
 90 474.5 90 474.5 74 516 c 1,22,23
 96 533 96 533 134 545.5 c 128,-1,24
 172 558 172 558 217 558 c 0,25,26
 279 558 279 558 317 531 c 128,-1,27
 355 504 355 504 373 452 c 128,-1,28
 391 400 391 400 391 323 c 2,29,-1
 523 161.5 523 161.5 391 0 c 1,30,-1
 486.5 0 486.5 0 326 0 c 1,31,-1
 447.5 40.5 447.5 40.5 319 81 c 1,32,-1
 443 81 443 81 315 81 c 1,33,34
 302 41 302 41 271 15.5 c 128,-1,35
 240 -10 240 -10 193 -10 c 0,0,1
EndSplineSet
EndChar

StartChar: uni0E0C
Encoding: 3596 3596 9
Width: 669
GlyphClass: 2
Flags: W
LayerCount: 2
Fore
SplineSet
151 -10 m 0,0,1
 126 -10 126 -10 106.5 -1.5 c 128,-1,2
 87 7 87 7 75 29.5 c 128,-1,3
 63 52 63 52 63 92 c 2,4,-1
 84 143.5 84 143.5 63 193 c 2,5,6
 63 256 63 256 82 284 c 128,-1,7
 101 312 101 312 132 322 c 1,8,-1
 180.5 322.5 180.5 322.5 133 325 c 1,9,-1
 123.5 345 123.5 345 53 367 c 1,10,-1
 66 382.5 66 382.5 53 401 c 2,11,12
 53 444 53 444 72.5 479.5 c 128,-1,13
 92 515 92 515 128.5 536.5 c 128,-1,14
 165 558 165 558 216 558 c 0,15,16
 262 558 262 558 298.5 540 c 128,-1,17
 335 522 335 522 356.5 481 c 128,-1,18
 378 440 378 440 378 371 c 2,19,-1
 501 299 501 299 378 225 c 2,20,21
 378 176 378 176 388.5 138.5 c 128,-1,22
 399 101 399 101 417.5 80.5 c 128,-1,23
 436 60 436 60 460 60 c 0,24,25
 489 60 489 60 506 87.5 c 128,-1,26
 523 115 523 115 523 176 c 2,27,-1
 736 363.5 736 363.5 523 548 c 1,28,-1
 780.5 548 780.5 548 605 548 c 1,29,-1
 825 360.5 825 360.5 605 172 c 2,30,31
 605 73 605 73 573.5 31.5 c 128,-1,32
 542 -10 542 -10 486 -10 c 0,33,34
 445 -10 445 -10 415 15.5 c 128,-1,35
 385 41 385 41 373 87 c 1,36,-1
 492 87 492 87 368 87 c 1,37,-1
 488 43.5 488 43.5 361 0 c 1,38,-1
 449 0 449 0 296 0 c 1,39,-1
 412 180 412 180 296 362 c 2,40,41
 296 410 296 410 285 437.5 c 128,-1,42
 274 465 274 465 256 476.5 c 128,-1,43
 238 488 238 488 216 488 c 0,44,45
 181 488 181 488 160 464 c 128,-1,46
 139 440 139 440 138 396 c 1,47,-1
 214 367 214 367 210 341 c 1,48,-1
 267 316 267 316 203 295 c 1,49,50
 177 295 177 295 160.5 271.5 c 128,-1,51
 144 248 144 248 144 193 c 2,52,-1
 173 149 173 149 144 103 c 2,53,54
 144 80 144 80 151 70 c 128,-1,55
 158 60 158 60 174 60 c 0,56,57
 180 60 180 60 187 62 c 128,-1,58
 194 64 194 64 199 67 c 1,59,-1
 258.5 37 258.5 37 209 4 c 1,60,61
 196 -4 196 -4 181 -7 c 128,-1,62
 166 -10 166 -10 151 -10 c 0,0,1
EndSplineSet
EndChar

StartChar: uni0E0E
Encoding: 3598 3598 10
Width: 459
GlyphClass: 2
Flags: W
LayerCount: 2
Fore
SplineSet
80 -200 m 1,0,-1
 103 -192.5 103 -192.5 80 -183 c 2,1,2
 80 -127 80 -127 109.5 -93 c 128,-1,3
 139 -59 139 -59 193 -59 c 0,4,5
 241 -59 241 -59 278.5 -84 c 128,-1,6
 316 -109 316 -109 332 -138 c 1,7,-1
 446 -141 446 -141 312 -148 c 1,8,-1
 433 107 433 107 312 362 c 2,9,10
 312 430 312 430 287.5 459 c 128,-1,11
 263 488 263 488 225 488 c 0,12,13
 185 488 185 488 164 462 c 128,-1,14
 143 436 143 436 142 396 c 1,15,-1
 215 367 215 367 215 341 c 1,16,-1
 268 316 268 316 208 295 c 1,17,18
 185 295 185 295 171.5 270.5 c 128,-1,19
 158 246 158 246 158 191 c 2,20,-1
 181 142.5 181 142.5 158 92 c 2,21,22
 158 31 158 31 136 10.5 c 128,-1,23
 114 -10 114 -10 81 -10 c 0,24,25
 65 -10 65 -10 51.5 -6.5 c 128,-1,26
 38 -3 38 -3 25 4 c 1,27,-1
 24 36.5 24 36.5 34 65 c 1,28,29
 39 63 39 63 44 61 c 128,-1,30
 49 59 49 59 55 59 c 0,31,32
 66 59 66 59 71 68.5 c 128,-1,33
 76 78 76 78 76 99 c 2,34,-1
 92 147.5 92 147.5 76 193 c 2,35,36
 76 256 76 256 92 284 c 128,-1,37
 108 312 108 312 137 322 c 1,38,-1
 181.5 322.5 181.5 322.5 138 325 c 1,39,-1
 124.5 345 124.5 345 58 367 c 1,40,-1
 67 382.5 67 382.5 58 401 c 2,41,42
 58 441 58 441 77.5 477 c 128,-1,43
 97 513 97 513 134.5 535.5 c 128,-1,44
 172 558 172 558 226 558 c 0,45,46
 275 558 275 558 313 539 c 128,-1,47
 351 520 351 520 373 478.5 c 128,-1,48
 395 437 395 437 395 371 c 2,49,-1
 522 84 522 84 395 -200 c 1,50,-1
 487 -201 487 -201 326 -200 c 1,51,52
 316 -182 316 -182 297 -165.5 c 128,-1,53
 278 -149 278 -149 256.5 -138.5 c 128,-1,54
 235 -128 235 -128 214 -128 c 0,55,56
 186 -128 186 -128 173 -147 c 128,-1,57
 160 -166 160 -166 160 -190 c 2,58,-1
 194 -196 194 -196 160 -200 c 1,59,-1
 148.5 -201 148.5 -201 80 -200 c 1,0,-1
EndSplineSet
EndChar

StartChar: uni0E0E.short
Encoding: 65537 -1 11
Width: 459
GlyphClass: 2
Flags: W
LayerCount: 2
Fore
SplineSet
80 -174 m 1,0,-1
 103 -167.5 103 -167.5 80 -157 c 2,1,2
 80 -101 80 -101 109.5 -67 c 128,-1,3
 139 -33 139 -33 193 -33 c 0,4,5
 241 -33 241 -33 278.5 -58 c 128,-1,6
 316 -83 316 -83 332 -112 c 1,7,-1
 446 -116 446 -116 312 -122 c 1,8,-1
 433 119.5 433 119.5 312 362 c 2,9,10
 312 430 312 430 287.5 459 c 128,-1,11
 263 488 263 488 225 488 c 0,12,13
 185 488 185 488 164 462 c 128,-1,14
 143 436 143 436 142 396 c 1,15,-1
 215 367 215 367 215 341 c 1,16,-1
 268 316 268 316 208 295 c 1,17,18
 185 295 185 295 171.5 270.5 c 128,-1,19
 158 246 158 246 158 191 c 2,20,-1
 181 142.5 181 142.5 158 92 c 2,21,22
 158 31 158 31 136 10.5 c 128,-1,23
 114 -10 114 -10 81 -10 c 0,24,25
 65 -10 65 -10 51.5 -6.5 c 128,-1,26
 38 -3 38 -3 25 4 c 1,27,-1
 24 36.5 24 36.5 34 65 c 1,28,29
 39 63 39 63 44 61 c 128,-1,30
 49 59 49 59 55 59 c 0,31,32
 66 59 66 59 71 68.5 c 128,-1,33
 76 78 76 78 76 99 c 2,34,-1
 92 147.5 92 147.5 76 193 c 2,35,36
 76 256 76 256 92 284 c 128,-1,37
 108 312 108 312 137 322 c 1,38,-1
 181.5 322.5 181.5 322.5 138 325 c 1,39,-1
 124.5 345 124.5 345 58 367 c 1,40,-1
 67 382.5 67 382.5 58 401 c 2,41,42
 58 441 58 441 77.5 477 c 128,-1,43
 97 513 97 513 134.5 535.5 c 128,-1,44
 172 558 172 558 226 558 c 0,45,46
 275 558 275 558 313 539 c 128,-1,47
 351 520 351 520 373 478.5 c 128,-1,48
 395 437 395 437 395 371 c 2,49,-1
 522 96.5 522 96.5 395 -174 c 1,50,-1
 487 -176 487 -176 326 -174 c 1,51,52
 316 -156 316 -156 297 -139.5 c 128,-1,53
 278 -123 278 -123 256.5 -112.5 c 128,-1,54
 235 -102 235 -102 214 -102 c 0,55,56
 186 -102 186 -102 173 -121 c 128,-1,57
 160 -140 160 -140 160 -164 c 2,58,-1
 194 -171 194 -171 160 -174 c 1,59,-1
 148.5 -176 148.5 -176 80 -174 c 1,0,-1
EndSplineSet
EndChar

StartChar: uni0E14
Encoding: 3604 3604 12
Width: 463
GlyphClass: 2
Flags: W
LayerCount: 2
Fore
SplineSet
200 -10 m 0,0,1
 143 -10 143 -10 110 28 c 128,-1,2
 77 66 77 66 63 129.5 c 128,-1,3
 49 193 49 193 49 270 c 0,4,5
 49 354 49 354 62 410 c 128,-1,6
 75 466 75 466 99.5 498.5 c 128,-1,7
 124 531 124 531 157.5 544.5 c 128,-1,8
 191 558 191 558 231 558 c 0,9,10
 291 558 291 558 328 534.5 c 128,-1,11
 365 511 365 511 382 468 c 128,-1,12
 399 425 399 425 399 366 c 2,13,-1
 535 182.5 535 182.5 399 0 c 1,14,-1
 491 0 491 0 316 0 c 1,15,-1
 447 178.5 447 178.5 316 358 c 2,16,17
 316 421 316 421 297 454.5 c 128,-1,18
 278 488 278 488 232 488 c 0,19,20
 203 488 203 488 180 471 c 128,-1,21
 157 454 157 454 144.5 407 c 128,-1,22
 132 360 132 360 132 269 c 0,23,24
 132 210 132 210 139.5 162.5 c 128,-1,25
 147 115 147 115 165 87.5 c 128,-1,26
 183 60 183 60 214 60 c 0,27,28
 223 60 223 60 231.5 62 c 128,-1,29
 240 64 240 64 247 68 c 1,30,-1
 339.5 37.5 339.5 37.5 255 3 c 1,31,32
 245 -4 245 -4 229.5 -7 c 128,-1,33
 214 -10 214 -10 200 -10 c 0,0,1
EndSplineSet
EndChar

StartChar: uni0E58
Encoding: 3672 3672 13
Width: 422
GlyphClass: 1
Flags: W
LayerCount: 2
Fore
SplineSet
281 -10 m 0,0,1
 248 -10 248 -10 227.5 12 c 128,-1,2
 207 34 207 34 202 81 c 1,3,-1
 281 81 281 81 215 81 c 1,4,-1
 255 37.5 255 37.5 166 -6 c 1,5,6
 130 -6 130 -6 103.5 18 c 128,-1,7
 77 42 77 42 62.5 92.5 c 128,-1,8
 48 143 48 143 48 219 c 0,9,10
 48 285 48 285 61 340 c 128,-1,11
 74 395 74 395 105 427.5 c 128,-1,12
 136 460 136 460 191 460 c 2,13,-1
 280 460 280 460 221 460 c 2,14,15
 245 460 245 460 257.5 468 c 128,-1,16
 270 476 270 476 274.5 496.5 c 128,-1,17
 279 517 279 517 279 553 c 2,18,-1
 400 567 400 567 279 584 c 1,19,-1
 442 584 442 584 356 584 c 1,20,-1
 484 564 484 564 356 548 c 2,21,22
 356 469 356 469 331 429.5 c 128,-1,23
 306 390 306 390 248 390 c 2,24,-1
 295.5 387 295.5 387 203 390 c 2,25,26
 161 390 161 390 143 345 c 128,-1,27
 125 300 125 300 125 222 c 0,28,29
 125 170 125 170 130 139 c 128,-1,30
 135 108 135 108 143 93.5 c 128,-1,31
 151 79 151 79 161 75 c 1,32,-1
 239.5 111.5 239.5 111.5 196 141 c 1,33,-1
 293 144 293 144 233 141 c 1,34,35
 233 98 233 98 242.5 78.5 c 128,-1,36
 252 59 252 59 270 59 c 0,37,38
 287 59 287 59 297.5 78.5 c 128,-1,39
 308 98 308 98 308 137 c 256,40,41
 308 176 308 176 299 194.5 c 128,-1,42
 290 213 290 213 282 223 c 1,43,-1
 417 253.5 417 253.5 329 283 c 1,44,45
 356 264 356 264 367.5 228 c 128,-1,46
 379 192 379 192 379 142 c 0,47,48
 379 72 379 72 352.5 31 c 128,-1,49
 326 -10 326 -10 281 -10 c 0,0,1
EndSplineSet
EndChar

StartChar: uni0E55
Encoding: 3669 3669 14
Width: 408
GlyphClass: 1
Flags: W
LayerCount: 2
Fore
SplineSet
195 0 m 2,0,1
 119 0 119 0 83.5 54.5 c 128,-1,2
 48 109 48 109 48 226 c 0,3,4
 48 301 48 301 61.5 349 c 128,-1,5
 75 397 75 397 101.5 423.5 c 128,-1,6
 128 450 128 450 166 457 c 1,7,-1
 228 446.5 228 446.5 169 438 c 1,8,9
 151 436 151 436 134.5 455.5 c 128,-1,10
 118 475 118 475 118 511 c 256,11,12
 118 547 118 547 137 569.5 c 128,-1,13
 156 592 156 592 188 592 c 0,14,15
 222 592 222 592 240 568.5 c 128,-1,16
 258 545 258 545 258 511 c 0,17,18
 258 482 258 482 246.5 464.5 c 128,-1,19
 235 447 235 447 224 442 c 1,20,-1
 303 449.5 303 449.5 220 459 c 1,21,22
 250 459 250 459 265 467 c 128,-1,23
 280 475 280 475 284.5 495.5 c 128,-1,24
 289 516 289 516 289 553 c 2,25,-1
 398 568 398 568 289 584 c 1,26,-1
 437.5 584 437.5 584 355 584 c 1,27,-1
 477 564 477 564 355 548 c 2,28,29
 355 469 355 469 328.5 429.5 c 128,-1,30
 302 390 302 390 245 390 c 2,31,-1
 295 387 295 387 215 390 c 2,32,33
 166 390 166 390 146.5 345.5 c 128,-1,34
 127 301 127 301 127 222 c 0,35,36
 127 140 127 140 144.5 104.5 c 128,-1,37
 162 69 162 69 202 69 c 2,38,-1
 311.5 72 311.5 72 256 69 c 1,39,-1
 349 60 349 60 245 44 c 1,40,41
 230 67 230 67 223.5 92.5 c 128,-1,42
 217 118 217 118 217 153 c 0,43,44
 217 218 217 218 238 251.5 c 128,-1,45
 259 285 259 285 297 285 c 0,46,47
 311 285 311 285 323.5 281.5 c 128,-1,48
 336 278 336 278 345 273 c 1,49,-1
 455 244 455 244 329 216 c 1,50,51
 326 218 326 218 321 219 c 128,-1,52
 316 220 316 220 313 220 c 0,53,54
 300 220 300 220 292.5 201 c 128,-1,55
 285 182 285 182 285 149 c 0,56,57
 285 109 285 109 298.5 87.5 c 128,-1,58
 312 66 312 66 334 66 c 2,59,-1
 467.5 69 467.5 69 362 66 c 1,60,-1
 490 34.5 490 34.5 362 0 c 1,61,-1
 375 0 375 0 195 0 c 2,0,1
188 468 m 0,62,63
 202 468 202 468 209 480 c 128,-1,64
 216 492 216 492 216 508 c 256,65,66
 216 525 216 525 209 536.5 c 128,-1,67
 202 548 202 548 188 548 c 0,68,69
 175 548 175 548 168 536.5 c 128,-1,70
 161 525 161 525 161 508 c 256,71,72
 161 492 161 492 168 480 c 128,-1,73
 175 468 175 468 188 468 c 0,62,63
EndSplineSet
EndChar

StartChar: uni0E1D
Encoding: 3613 3613 15
Width: 493
GlyphClass: 2
Flags: W
LayerCount: 2
Fore
SplineSet
68 0 m 1,0,-1
 86 225.5 86 225.5 68 454 c 2,1,2
 68 496 68 496 80 518.5 c 128,-1,3
 92 541 92 541 112.5 549.5 c 128,-1,4
 133 558 133 558 158 558 c 0,5,6
 172 558 172 558 185.5 555.5 c 128,-1,7
 199 553 199 553 209 547 c 1,8,-1
 258.5 512.5 258.5 512.5 198 482 c 1,9,10
 191 485 191 485 185 486.5 c 128,-1,11
 179 488 179 488 174 488 c 0,12,13
 158 488 158 488 152.5 476 c 128,-1,14
 147 464 147 464 147 442 c 2,15,-1
 173 361.5 173 361.5 147 298 c 2,16,17
 147 267 147 267 145.5 233.5 c 128,-1,18
 144 200 144 200 141 153 c 1,19,-1
 171 139 171 139 144 153 c 1,20,21
 158 196 158 196 170 227.5 c 128,-1,22
 182 259 182 259 199 298 c 2,23,-1
 268.5 313 268.5 313 225 358 c 1,24,-1
 323 358 323 358 264 358 c 1,25,-1
 377.5 313 377.5 313 290 300 c 2,26,27
 306 265 306 265 315.5 239.5 c 128,-1,28
 325 214 325 214 332 194 c 128,-1,29
 339 174 339 174 345 153 c 1,30,-1
 475 139 475 139 348 153 c 1,31,32
 345 200 345 200 344 233.5 c 128,-1,33
 343 267 343 267 343 298 c 2,34,-1
 473 514.5 473 514.5 343 745 c 1,35,-1
 517 745 517 745 421 745 c 1,36,-1
 561 372.5 561 372.5 421 0 c 1,37,-1
 521 0 521 0 345 0 c 1,38,-1
 403.5 131 403.5 131 246 266 c 1,39,-1
 324 262 324 262 243 266 c 1,40,-1
 243.5 131 243.5 131 144 0 c 1,41,-1
 125.5 0 125.5 0 68 0 c 1,0,-1
EndSplineSet
EndChar

StartChar: uni0E1F
Encoding: 3615 3615 16
Width: 516
GlyphClass: 2
Flags: W
LayerCount: 2
Fore
SplineSet
105 0 m 1,0,-1
 88.5 274 88.5 274 36 548 c 1,1,-1
 86.5 548 86.5 548 121 548 c 1,2,-1
 149.5 429 149.5 429 145 322 c 2,3,4
 147 302 147 302 148.5 275 c 128,-1,5
 150 248 150 248 151.5 213 c 128,-1,6
 153 178 153 178 155 135 c 1,7,-1
 190.5 126 190.5 126 158 135 c 1,8,9
 164 179 164 179 169.5 213.5 c 128,-1,10
 175 248 175 248 180 276 c 128,-1,11
 185 304 185 304 189 325 c 2,12,-1
 273 430.5 273 430.5 233 548 c 1,13,-1
 343 548 343 548 290 548 c 1,14,-1
 413 430.5 413 430.5 337 325 c 2,15,16
 342 304 342 304 346.5 276 c 128,-1,17
 351 248 351 248 356.5 213.5 c 128,-1,18
 362 179 362 179 368 135 c 1,19,-1
 495 126 495 126 370 135 c 1,20,21
 373 178 373 178 375 213 c 128,-1,22
 377 248 377 248 378.5 275 c 128,-1,23
 380 302 380 302 381 322 c 2,24,-1
 544.5 527.5 544.5 527.5 414 745 c 1,25,-1
 617 745 617 745 499 745 c 1,26,-1
 606 372.5 606 372.5 419 0 c 1,27,-1
 507 0 507 0 338 0 c 1,28,-1
 417.5 149 417.5 149 281 293 c 2,29,30
 277 317 277 317 272 343.5 c 128,-1,31
 267 370 267 370 263 416 c 1,32,-1
 344 421 344 421 260 416 c 1,33,34
 257 386 257 386 254 366.5 c 128,-1,35
 251 347 251 347 247.5 330.5 c 128,-1,36
 244 314 244 314 241 293 c 2,37,-1
 268.5 149 268.5 149 184 0 c 1,38,-1
 179.5 0 179.5 0 105 0 c 1,0,-1
EndSplineSet
EndChar

StartChar: uni0E4F
Encoding: 3663 3663 17
Width: 457
GlyphClass: 1
Flags: W
LayerCount: 2
Fore
SplineSet
228 -10 m 0,0,1
 169 -10 169 -10 129.5 18.5 c 128,-1,2
 90 47 90 47 71 100.5 c 128,-1,3
 52 154 52 154 52 228 c 0,4,5
 52 344 52 344 95.5 404.5 c 128,-1,6
 139 465 139 465 228 465 c 256,7,8
 318 465 318 465 361.5 404.5 c 128,-1,9
 405 344 405 344 405 228 c 0,10,11
 405 154 405 154 386 100.5 c 128,-1,12
 367 47 367 47 327.5 18.5 c 128,-1,13
 288 -10 288 -10 228 -10 c 0,0,1
228 59 m 0,14,15
 283 59 283 59 310 102.5 c 128,-1,16
 337 146 337 146 337 228 c 0,17,18
 337 316 337 316 310 356 c 128,-1,19
 283 396 283 396 228 396 c 0,20,21
 173 396 173 396 146.5 356 c 128,-1,22
 120 316 120 316 120 228 c 0,23,24
 120 146 120 146 146.5 102.5 c 128,-1,25
 173 59 173 59 228 59 c 0,14,15
228 121 m 0,26,27
 193 121 193 121 176.5 150 c 128,-1,28
 160 179 160 179 160 228 c 0,29,30
 160 280 160 280 176.5 307 c 128,-1,31
 193 334 193 334 228 334 c 0,32,33
 264 334 264 334 280.5 307 c 128,-1,34
 297 280 297 280 297 228 c 0,35,36
 297 179 297 179 280.5 150 c 128,-1,37
 264 121 264 121 228 121 c 0,26,27
EndSplineSet
EndChar

StartChar: uni0E54
Encoding: 3668 3668 18
Width: 402
GlyphClass: 1
Flags: W
LayerCount: 2
Fore
SplineSet
193 0 m 2,0,1
 120 0 120 0 84 53.5 c 128,-1,2
 48 107 48 107 48 222 c 0,3,4
 48 286 48 286 61.5 340 c 128,-1,5
 75 394 75 394 105 427 c 128,-1,6
 135 460 135 460 186 460 c 2,7,-1
 275 460 275 460 213 460 c 2,8,9
 238 460 238 460 251 468 c 128,-1,10
 264 476 264 476 269 496.5 c 128,-1,11
 274 517 274 517 274 553 c 2,12,-1
 391 567 391 567 274 584 c 1,13,-1
 433 584 433 584 348 584 c 1,14,-1
 475 564 475 564 348 548 c 2,15,16
 348 469 348 469 323 429.5 c 128,-1,17
 298 390 298 390 240 390 c 2,18,-1
 292.5 387 292.5 387 211 390 c 2,19,20
 181 390 181 390 162.5 370 c 128,-1,21
 144 350 144 350 135.5 312.5 c 128,-1,22
 127 275 127 275 127 222 c 0,23,24
 127 140 127 140 144.5 104.5 c 128,-1,25
 162 69 162 69 201 69 c 2,26,-1
 310.5 72 310.5 72 254 69 c 1,27,-1
 347 63.5 347 63.5 243 52 c 1,28,29
 229 69 229 69 222.5 93 c 128,-1,30
 216 117 216 117 216 153 c 0,31,32
 216 218 216 218 236.5 252 c 128,-1,33
 257 286 257 286 296 286 c 0,34,35
 322 286 322 286 343 274 c 1,36,-1
 454 244.5 454 244.5 327 217 c 1,37,38
 324 219 324 219 319.5 220 c 128,-1,39
 315 221 315 221 312 221 c 0,40,41
 299 221 299 221 291 202 c 128,-1,42
 283 183 283 183 283 150 c 0,43,44
 283 109 283 109 297 87.5 c 128,-1,45
 311 66 311 66 333 66 c 2,46,-1
 466.5 69 466.5 69 361 66 c 1,47,-1
 489 34.5 489 34.5 361 0 c 1,48,-1
 374 0 374 0 193 0 c 2,0,1
EndSplineSet
EndChar

StartChar: uni0E2B
Encoding: 3627 3627 19
Width: 448
GlyphClass: 2
Flags: W
LayerCount: 2
Fore
SplineSet
70 0 m 1,0,-1
 89 274 89 274 70 548 c 1,1,-1
 133.5 548 133.5 548 152 548 c 1,2,-1
 178 429.5 178 429.5 152 308 c 1,3,-1
 179.5 311 179.5 311 154 308 c 1,4,-1
 295 429.5 295 429.5 297 548 c 1,5,-1
 461 548 461 548 390 548 c 1,6,-1
 513 546.5 513 546.5 390 545 c 1,7,-1
 345.5 375.5 345.5 375.5 152 210 c 1,8,-1
 178 103 178 103 152 0 c 1,9,-1
 133.5 0 133.5 0 70 0 c 1,0,-1
309 0 m 1,10,-1
 429 96.5 429 96.5 309 194 c 2,11,12
 309 253 309 253 285.5 287 c 128,-1,13
 262 321 262 321 211 321 c 1,14,-1
 300 350.5 300 350.5 260 383 c 1,15,16
 303 383 303 383 332.5 360.5 c 128,-1,17
 362 338 362 338 377 296 c 128,-1,18
 392 254 392 254 392 194 c 2,19,-1
 518 97.5 518 97.5 392 0 c 1,20,-1
 473.5 0 473.5 0 309 0 c 1,10,-1
EndSplineSet
EndChar

StartChar: uni0E2E
Encoding: 3630 3630 20
Width: 429
GlyphClass: 2
Flags: W
LayerCount: 2
Fore
SplineSet
209 -10 m 0,0,1
 128 -10 128 -10 88.5 46 c 128,-1,2
 49 102 49 102 49 224 c 0,3,4
 49 244 49 244 50.5 267 c 128,-1,5
 52 290 52 290 53 313 c 1,6,-1
 170 314 170 314 211 313 c 1,7,-1
 275 279 275 279 211 246 c 1,8,-1
 212 244 212 244 130 246 c 1,9,-1
 149 234 149 234 130 225 c 2,10,11
 130 160 130 160 138.5 123.5 c 128,-1,12
 147 87 147 87 164.5 73 c 128,-1,13
 182 59 182 59 208 59 c 0,14,15
 236 59 236 59 256.5 76 c 128,-1,16
 277 93 277 93 288.5 139 c 128,-1,17
 300 185 300 185 300 271 c 0,18,19
 300 346 300 346 289 394 c 128,-1,20
 278 442 278 442 253.5 465 c 128,-1,21
 229 488 229 488 188 488 c 0,22,23
 154 488 154 488 122.5 476 c 128,-1,24
 91 464 91 464 65 440 c 1,25,-1
 78 477.5 78 477.5 65 519 c 1,26,27
 80 530 80 530 101.5 538.5 c 128,-1,28
 123 547 123 547 148.5 552.5 c 128,-1,29
 174 558 174 558 200 558 c 0,30,31
 239 558 239 558 270 543.5 c 128,-1,32
 301 529 301 529 320 496 c 1,33,34
 354 467 354 467 369 407.5 c 128,-1,35
 384 348 384 348 384 270 c 0,36,37
 384 182 384 182 366.5 119 c 128,-1,38
 349 56 349 56 310.5 23 c 128,-1,39
 272 -10 272 -10 209 -10 c 0,0,1
318 474 m 1,40,-1
 401 494.5 401 494.5 273 519 c 1,41,42
 294 522 294 522 309 538 c 128,-1,43
 324 554 324 554 325 584 c 1,44,-1
 491.5 584 491.5 584 400 584 c 1,45,46
 400 553 400 553 390.5 530 c 128,-1,47
 381 507 381 507 362.5 493 c 128,-1,48
 344 479 344 479 318 474 c 1,40,-1
EndSplineSet
EndChar

StartChar: hyphen
Encoding: 45 45 21
Width: 322
GlyphClass: 1
Flags: W
LayerCount: 2
Fore
SplineSet
40 229 m 1,0,-1
 27 310 l 1,1,-1
 282 307 l 1,2,-1
 247 229 l 1,3,-1
 40 229 l 1,0,-1
EndSplineSet
EndChar

StartChar: uni2010
Encoding: 8208 8208 22
Width: 322
GlyphClass: 1
Flags: W
LayerCount: 2
Fore
SplineSet
40 229 m 1,0,-1
 27 310 l 1,1,-1
 282 307 l 1,2,-1
 247 229 l 1,3,-1
 40 229 l 1,0,-1
EndSplineSet
EndChar

StartChar: uni0E02
Encoding: 3586 3586 23
Width: 423
GlyphClass: 2
Flags: W
LayerCount: 2
Fore
SplineSet
211 -10 m 0,0,1
 139 -10 139 -10 101 35 c 128,-1,2
 63 80 63 80 63 171 c 2,3,-1
 77 202.5 77 202.5 63 234 c 2,4,5
 63 285 63 285 72 314.5 c 128,-1,6
 81 344 81 344 92 365 c 0,7,8
 104 388 104 388 112 405 c 128,-1,9
 120 422 120 422 120 445 c 0,10,11
 120 467 120 467 113.5 476 c 128,-1,12
 107 485 107 485 96 485 c 0,13,14
 88 485 88 485 79 481 c 128,-1,15
 70 477 70 477 62 471 c 1,16,-1
 64 500 64 500 46 532 c 1,17,18
 62 544 62 544 82.5 549 c 128,-1,19
 103 554 103 554 119 554 c 0,20,21
 148 554 148 554 165 541 c 128,-1,22
 182 528 182 528 190 506 c 128,-1,23
 198 484 198 484 198 455 c 0,24,25
 198 418 198 418 189.5 393.5 c 128,-1,26
 181 369 181 369 170 346 c 0,27,28
 160 321 160 321 152.5 297.5 c 128,-1,29
 145 274 145 274 145 237 c 2,30,-1
 166 207.5 166 207.5 145 176 c 2,31,32
 145 129 145 129 154 103.5 c 128,-1,33
 163 78 163 78 178 68.5 c 128,-1,34
 193 59 193 59 212 59 c 0,35,36
 244 59 244 59 260.5 83 c 128,-1,37
 277 107 277 107 277 156 c 2,38,-1
 377 353.5 377 353.5 277 548 c 1,39,-1
 421.5 548 421.5 548 359 548 c 1,40,-1
 466 351 466 351 359 151 c 2,41,42
 359 75 359 75 321.5 32.5 c 128,-1,43
 284 -10 284 -10 211 -10 c 0,0,1
EndSplineSet
EndChar

StartChar: uni0E05
Encoding: 3589 3589 24
Width: 472
GlyphClass: 2
Flags: W
LayerCount: 2
Fore
SplineSet
64 0 m 1,0,-1
 81 209.5 81 209.5 64 419 c 2,1,2
 64 490 64 490 90 524 c 128,-1,3
 116 558 116 558 161 558 c 0,4,5
 188 558 188 558 207.5 546.5 c 128,-1,6
 227 535 227 535 234 507 c 1,7,-1
 310 506 310 506 237 507 c 1,8,9
 244 535 244 535 263.5 546.5 c 128,-1,10
 283 558 283 558 310 558 c 0,11,12
 356 558 356 558 382 524 c 128,-1,13
 408 490 408 490 408 419 c 2,14,-1
 540 209.5 540 209.5 408 0 c 1,15,-1
 495.5 0 495.5 0 326 0 c 1,16,-1
 451 208.5 451 208.5 326 420 c 2,17,18
 326 459 326 459 316 473.5 c 128,-1,19
 306 488 306 488 291 488 c 0,20,21
 275 488 275 488 266 473.5 c 128,-1,22
 257 459 257 459 255 427 c 1,23,-1
 309 424 309 424 215 427 c 1,24,25
 213 459 213 459 204.5 473.5 c 128,-1,26
 196 488 196 488 179 488 c 0,27,28
 164 488 164 488 154.5 473.5 c 128,-1,29
 145 459 145 459 145 420 c 2,30,-1
 168 328 168 328 145 239 c 1,31,-1
 169.5 238.5 169.5 238.5 147 238 c 1,32,33
 161 277 161 277 183 289.5 c 128,-1,34
 205 302 205 302 244 302 c 2,35,-1
 334.5 302 334.5 302 265 302 c 1,36,-1
 351 265.5 351 265.5 265 232 c 1,37,-1
 334.5 229 334.5 229 244 232 c 2,38,39
 203 232 203 232 182 215 c 128,-1,40
 161 198 161 198 153.5 170.5 c 128,-1,41
 146 143 146 143 146 109 c 2,42,-1
 170 53 170 53 146 0 c 1,43,-1
 125.5 0 125.5 0 64 0 c 1,0,-1
EndSplineSet
EndChar

StartChar: uni0E03
Encoding: 3587 3587 25
Width: 426
GlyphClass: 2
Flags: W
LayerCount: 2
Fore
SplineSet
212 -10 m 0,0,1
 138 -10 138 -10 100.5 35 c 128,-1,2
 63 80 63 80 63 171 c 2,3,-1
 78 204.5 78 204.5 63 238 c 2,4,5
 63 278 63 278 69.5 304.5 c 128,-1,6
 76 331 76 331 87 351.5 c 128,-1,7
 98 372 98 372 110 392 c 0,8,9
 117 404 117 404 123 413.5 c 128,-1,10
 129 423 129 423 133 433 c 128,-1,11
 137 443 137 443 137 453 c 1,12,-1
 185.5 451 185.5 451 135 455 c 1,13,14
 128 446 128 446 119 441 c 128,-1,15
 110 436 110 436 99 436 c 0,16,17
 73 436 73 436 56.5 460 c 128,-1,18
 40 484 40 484 40 529 c 2,19,-1
 44 537.5 44 537.5 40 548 c 1,20,-1
 83 548 83 548 104 548 c 1,21,22
 104 518 104 518 109.5 504 c 128,-1,23
 115 490 115 490 126 490 c 0,24,25
 133 490 133 490 140.5 494.5 c 128,-1,26
 148 499 148 499 155 507 c 1,27,-1
 208.5 527.5 208.5 527.5 168 548 c 1,28,-1
 242.5 548 242.5 548 212 548 c 1,29,-1
 267 525.5 267 525.5 212 506 c 2,30,31
 212 476 212 476 210.5 454 c 128,-1,32
 209 432 209 432 203 411.5 c 128,-1,33
 197 391 197 391 183 363 c 0,34,35
 173 344 173 344 164.5 328 c 128,-1,36
 156 312 156 312 150.5 291 c 128,-1,37
 145 270 145 270 145 234 c 2,38,-1
 167 206 167 206 145 176 c 2,39,40
 145 127 145 127 154 102 c 128,-1,41
 163 77 163 77 178.5 68 c 128,-1,42
 194 59 194 59 212 59 c 0,43,44
 246 59 246 59 263 83 c 128,-1,45
 280 107 280 107 280 156 c 2,46,-1
 380 353.5 380 353.5 280 548 c 1,47,-1
 424 548 424 548 362 548 c 1,48,-1
 468 351 468 351 362 151 c 2,49,50
 362 75 362 75 324 32.5 c 128,-1,51
 286 -10 286 -10 212 -10 c 0,0,1
EndSplineSet
EndChar

StartChar: uni0E04
Encoding: 3588 3588 26
Width: 465
GlyphClass: 2
Flags: W
LayerCount: 2
Fore
SplineSet
64 0 m 1,0,-1
 81 175 81 175 64 353 c 2,1,2
 64 452 64 452 104.5 505 c 128,-1,3
 145 558 145 558 233 558 c 0,4,5
 322 558 322 558 361.5 505 c 128,-1,6
 401 452 401 452 401 353 c 2,7,-1
 533 175 533 175 401 0 c 1,8,-1
 488.5 0 488.5 0 319 0 c 1,9,-1
 444 175 444 175 319 353 c 2,10,11
 319 421 319 421 297.5 454.5 c 128,-1,12
 276 488 276 488 232 488 c 0,13,14
 189 488 189 488 167.5 454.5 c 128,-1,15
 146 421 146 421 146 353 c 2,16,-1
 170 294.5 170 294.5 146 239 c 1,17,-1
 171.5 238.5 171.5 238.5 148 238 c 1,18,19
 162 277 162 277 183.5 289.5 c 128,-1,20
 205 302 205 302 242 302 c 2,21,-1
 333.5 302 333.5 302 262 302 c 1,22,-1
 350 265.5 350 265.5 262 232 c 1,23,-1
 333.5 229 333.5 229 242 232 c 2,24,25
 202 232 202 232 181.5 215 c 128,-1,26
 161 198 161 198 153.5 170.5 c 128,-1,27
 146 143 146 143 146 109 c 2,28,-1
 170 53 170 53 146 0 c 1,29,-1
 125.5 0 125.5 0 64 0 c 1,0,-1
EndSplineSet
EndChar

StartChar: uni0E06
Encoding: 3590 3590 27
Width: 457
GlyphClass: 2
Flags: W
LayerCount: 2
Fore
SplineSet
264 -10 m 0,0,1
 215 -10 215 -10 183 15.5 c 128,-1,2
 151 41 151 41 138 87 c 1,3,-1
 154 87 154 87 133 87 c 1,4,-1
 149.5 43.5 149.5 43.5 126 0 c 1,5,-1
 110.5 0 110.5 0 62 0 c 1,6,-1
 74 116 74 116 62 234 c 2,7,8
 62 293 62 293 76 327 c 128,-1,9
 90 361 90 361 109 392 c 0,10,11
 119 408 119 408 125 418 c 128,-1,12
 131 428 131 428 134.5 436 c 128,-1,13
 138 444 138 444 138 453 c 1,14,-1
 185.5 451 185.5 451 136 455 c 1,15,16
 129 446 129 446 120 441 c 128,-1,17
 111 436 111 436 100 436 c 0,18,19
 74 436 74 436 57.5 460 c 128,-1,20
 41 484 41 484 41 529 c 2,21,-1
 44 537.5 44 537.5 41 548 c 1,22,-1
 83 548 83 548 106 548 c 1,23,24
 106 518 106 518 111 504 c 128,-1,25
 116 490 116 490 127 490 c 0,26,27
 134 490 134 490 142 494.5 c 128,-1,28
 150 499 150 499 157 507 c 1,29,-1
 208.5 527.5 208.5 527.5 169 548 c 1,30,-1
 243 548 243 548 215 548 c 1,31,-1
 268 525.5 268 525.5 215 506 c 2,32,33
 215 477 215 477 213 455.5 c 128,-1,34
 211 434 211 434 204 413 c 128,-1,35
 197 392 197 392 183 363 c 0,36,37
 173 342 173 342 164 325.5 c 128,-1,38
 155 309 155 309 150 287.5 c 128,-1,39
 145 266 145 266 145 230 c 2,40,-1
 162 226.5 162 226.5 145 221 c 2,41,42
 145 172 145 172 156 135.5 c 128,-1,43
 167 99 167 99 188 79.5 c 128,-1,44
 209 60 209 60 238 60 c 0,45,46
 274 60 274 60 292.5 91.5 c 128,-1,47
 311 123 311 123 311 184 c 2,48,-1
 428 367.5 428 367.5 311 548 c 1,49,-1
 472.5 548 472.5 548 393 548 c 1,50,-1
 517 364.5 517 364.5 393 180 c 2,51,52
 393 81 393 81 359 35.5 c 128,-1,53
 325 -10 325 -10 264 -10 c 0,0,1
EndSplineSet
EndChar

StartChar: uni0E5B
Encoding: 3675 3675 28
Width: 649
GlyphClass: 1
Flags: W
LayerCount: 2
Fore
SplineSet
181 70 m 0,0,1
 115 70 115 70 80 118.5 c 128,-1,2
 45 167 45 167 45 254 c 0,3,4
 45 296 45 296 56 332 c 128,-1,5
 67 368 67 368 91 390 c 128,-1,6
 115 412 115 412 154 412 c 0,7,8
 201 412 201 412 226 382.5 c 128,-1,9
 251 353 251 353 251 300 c 0,10,11
 251 273 251 273 246.5 249.5 c 128,-1,12
 242 226 242 226 234 212 c 1,13,-1
 272.5 229.5 272.5 229.5 182 244 c 1,14,15
 185 250 185 250 187.5 263 c 128,-1,16
 190 276 190 276 190 291 c 0,17,18
 190 320 190 320 180 333 c 128,-1,19
 170 346 170 346 155 346 c 0,20,21
 135 346 135 346 127 321 c 128,-1,22
 119 296 119 296 119 259 c 0,23,24
 119 193 119 193 138.5 165.5 c 128,-1,25
 158 138 158 138 190 138 c 0,26,27
 225 138 225 138 246.5 163.5 c 128,-1,28
 268 189 268 189 277.5 232 c 128,-1,29
 287 275 287 275 285 327 c 1,30,-1
 416.5 329 416.5 329 337 327 c 1,31,-1
 479 254 479 254 381 177 c 1,32,-1
 500.5 179 500.5 179 364 177 c 1,33,-1
 509 250 509 250 392 319 c 1,34,-1
 554 321 554 321 435 319 c 1,35,-1
 604.5 254.5 604.5 254.5 470 185 c 1,36,-1
 618.5 187.5 618.5 187.5 453 184 c 1,37,-1
 627.5 249.5 627.5 249.5 480 310 c 1,38,-1
 669.5 312 669.5 312 518 310 c 1,39,-1
 694 304 694 304 522 294 c 2,40,41
 529 268 529 268 533.5 247.5 c 128,-1,42
 538 227 538 227 547.5 215.5 c 128,-1,43
 557 204 557 204 576 204 c 0,44,45
 584 204 584 204 589.5 206 c 128,-1,46
 595 208 595 208 599 211 c 1,47,-1
 813 183 813 183 599 154 c 1,48,49
 593 150 593 150 585.5 146.5 c 128,-1,50
 578 143 578 143 567 143 c 0,51,52
 536 143 536 143 514.5 172.5 c 128,-1,53
 493 202 493 202 483 258 c 1,54,-1
 665 260 665 260 503 258 c 1,55,-1
 661 196.5 661 196.5 480 133 c 1,56,-1
 621.5 133 621.5 133 443 133 c 1,57,-1
 571.5 203.5 571.5 203.5 406 272 c 1,58,-1
 555 274 555 274 422 272 c 1,59,-1
 545.5 198.5 545.5 198.5 394 123 c 1,60,-1
 500.5 123 500.5 123 351 123 c 1,61,-1
 446 195.5 446 195.5 313 266 c 1,62,-1
 428.5 268 428.5 268 331 266 c 1,63,64
 330 246 330 246 325 220.5 c 128,-1,65
 320 195 320 195 310.5 168.5 c 128,-1,66
 301 142 301 142 284.5 120 c 128,-1,67
 268 98 268 98 242.5 84 c 128,-1,68
 217 70 217 70 181 70 c 0,0,1
EndSplineSet
EndChar

StartChar: uni0E01
Encoding: 3585 3585 29
Width: 455
GlyphClass: 2
Flags: W
LayerCount: 2
Fore
SplineSet
62 0 m 1,0,-1
 76 95 76 95 62 193 c 2,1,2
 62 256 62 256 81 284 c 128,-1,3
 100 312 100 312 131 322 c 1,4,-1
 175.5 322.5 175.5 322.5 132 325 c 1,5,-1
 121 345 121 345 55 367 c 1,6,-1
 66 382.5 66 382.5 55 401 c 2,7,8
 55 441 55 441 74.5 477 c 128,-1,9
 94 513 94 513 132 535.5 c 128,-1,10
 170 558 170 558 223 558 c 0,11,12
 271 558 271 558 309 539 c 128,-1,13
 347 520 347 520 369 478.5 c 128,-1,14
 391 437 391 437 391 371 c 2,15,-1
 519 184.5 519 184.5 391 0 c 1,16,-1
 474.5 0 474.5 0 308 0 c 1,17,-1
 430 180 430 180 308 362 c 2,18,19
 308 430 308 430 283.5 459 c 128,-1,20
 259 488 259 488 221 488 c 0,21,22
 183 488 183 488 161.5 462 c 128,-1,23
 140 436 140 436 140 396 c 1,24,-1
 211 367 211 367 210 341 c 1,25,-1
 261 316 261 316 204 295 c 1,26,27
 178 294 178 294 161 269.5 c 128,-1,28
 144 245 144 245 144 191 c 2,29,-1
 165 95 165 95 144 0 c 1,30,-1
 120.5 0 120.5 0 62 0 c 1,0,-1
EndSplineSet
EndChar

StartChar: uni0E45
Encoding: 3653 3653 30
Width: 324
GlyphClass: 1
Flags: W
LayerCount: 2
Fore
SplineSet
178 -200 m 1,0,-1
 236 -50 236 -50 178 100 c 1,1,-1
 280.5 100 280.5 100 260 100 c 1,2,-1
 325 -50 325 -50 260 -200 c 1,3,-1
 280.5 -200 280.5 -200 178 -200 c 1,0,-1
177 0 m 1,4,-1
 236 194.5 236 194.5 177 391 c 2,5,6
 177 441 177 441 162.5 464.5 c 128,-1,7
 148 488 148 488 113 488 c 0,8,9
 88 488 88 488 67 478 c 128,-1,10
 46 468 46 468 27 451 c 1,11,-1
 10 488 10 488 27 528 c 1,12,13
 42 538 42 538 69 548 c 128,-1,14
 96 558 96 558 133 558 c 0,15,16
 171 558 171 558 199.5 543 c 128,-1,17
 228 528 228 528 244 494 c 128,-1,18
 260 460 260 460 260 404 c 2,19,-1
 325 201 325 201 260 0 c 1,20,-1
 280.5 0 280.5 0 177 0 c 1,4,-1
EndSplineSet
EndChar

StartChar: uni0E2C
Encoding: 3628 3628 31
Width: 506
GlyphClass: 2
Flags: W
LayerCount: 2
Fore
SplineSet
94 0 m 1,0,-1
 83.5 274 83.5 274 36 548 c 1,1,-1
 86 548 86 548 118 548 c 1,2,-1
 147 418.5 147 418.5 139 302 c 2,3,4
 141 271 141 271 144 227.5 c 128,-1,5
 147 184 147 184 148 125 c 1,6,-1
 181 113 181 113 151 125 c 1,7,8
 156 155 156 155 160.5 178 c 128,-1,9
 165 201 165 201 169 219.5 c 128,-1,10
 173 238 173 238 177 254.5 c 128,-1,11
 181 271 181 271 185 289 c 2,12,-1
 265.5 365.5 265.5 365.5 226 457 c 1,13,-1
 331.5 455 331.5 455 279 457 c 1,14,-1
 398 365.5 398 365.5 321 289 c 2,15,16
 327 267 327 267 332 244.5 c 128,-1,17
 337 222 337 222 342.5 194 c 128,-1,18
 348 166 348 166 355 125 c 1,19,-1
 483.5 113 483.5 113 357 125 c 1,20,21
 359 162 359 162 360.5 209 c 128,-1,22
 362 256 362 256 368 302 c 2,23,-1
 514 348.5 514 348.5 381 408 c 2,24,25
 389 478 389 478 371.5 509 c 128,-1,26
 354 540 354 540 310 540 c 2,27,-1
 392 537 392 537 272 540 c 1,28,-1
 369 569.5 369 569.5 272 601 c 1,29,-1
 409.5 602 409.5 602 329 601 c 2,30,31
 379 601 379 601 396.5 629.5 c 128,-1,32
 414 658 414 658 414 709 c 2,33,-1
 571 711.5 571 711.5 414 714 c 1,34,-1
 616 714 616 714 494 714 c 1,35,-1
 661 711.5 661 711.5 494 709 c 2,36,37
 494 652 494 652 477 611.5 c 128,-1,38
 460 571 460 571 418 559 c 1,39,-1
 552 557.5 552 557.5 418 556 c 1,40,41
 439 543 439 543 449 519.5 c 128,-1,42
 459 496 459 496 461.5 468.5 c 128,-1,43
 464 441 464 441 461 417 c 2,44,-1
 575 209 575 209 411 0 c 1,45,-1
 494.5 0 494.5 0 329 0 c 1,46,-1
 413 110 413 110 282 216 c 2,47,48
 276 245 276 245 271 267.5 c 128,-1,49
 266 290 266 290 262 313.5 c 128,-1,50
 258 337 258 337 254 367 c 1,51,-1
 331 371 331 371 251 367 c 1,52,53
 247 334 247 334 242.5 309 c 128,-1,54
 238 284 238 284 234 262 c 128,-1,55
 230 240 230 240 224 215 c 2,56,-1
 251 109.5 251 109.5 175 0 c 1,57,-1
 169 0 169 0 94 0 c 1,0,-1
EndSplineSet
EndChar

StartChar: uni0E2C.short
Encoding: 65538 -1 32
Width: 500
GlyphClass: 2
Flags: W
LayerCount: 2
Fore
SplineSet
86 0 m 1,0,-1
 78 274 78 274 36 548 c 1,1,-1
 86 548 86 548 120 548 c 1,2,-1
 146 428.5 146 428.5 138 324 c 2,3,4
 143 269 143 269 144.5 227 c 128,-1,5
 146 185 146 185 147 129 c 1,6,-1
 180 115 180 115 150 129 c 1,7,8
 155 160 155 160 164 202 c 128,-1,9
 173 244 173 244 189 306 c 2,10,-1
 264 351.5 264 351.5 218 417 c 1,11,-1
 321 414 321 414 274 417 c 1,12,-1
 380 351.5 380 351.5 308 306 c 2,13,14
 317 278 317 278 327.5 228 c 128,-1,15
 338 178 338 178 349 119 c 1,16,-1
 473.5 105 473.5 105 352 119 c 1,17,18
 356 189 356 189 358.5 233.5 c 128,-1,19
 361 278 361 278 368 324 c 2,20,-1
 506.5 335 506.5 335 374 367 c 2,21,22
 378 396 378 396 375.5 416.5 c 128,-1,23
 373 437 373 437 362 448.5 c 128,-1,24
 351 460 351 460 330 460 c 2,25,-1
 418 458 418 458 291 460 c 1,26,-1
 390 490 390 490 291 522 c 1,27,-1
 436 522 436 522 353 522 c 2,28,29
 380 522 380 522 388 538.5 c 128,-1,30
 396 555 396 555 397 584 c 1,31,-1
 586.5 584 586.5 584 478 584 c 1,32,33
 478 547 478 547 463 518 c 128,-1,34
 448 489 448 489 411 481 c 1,35,-1
 543 477 543 477 411 477 c 1,36,37
 438 466 438 466 446 437 c 128,-1,38
 454 408 454 408 450 372 c 2,39,-1
 561.5 185 561.5 185 408 0 c 1,40,-1
 486.5 0 486.5 0 323 0 c 1,41,-1
 405 99.5 405 99.5 277 194 c 2,42,43
 268 232 268 232 261 268 c 128,-1,44
 254 304 254 304 249 335 c 1,45,-1
 323 339 323 339 246 335 c 1,46,47
 241 304 241 304 234 268 c 128,-1,48
 227 232 227 232 218 194 c 2,49,-1
 241 99.5 241 99.5 171 0 c 1,50,-1
 159 0 159 0 86 0 c 1,0,-1
EndSplineSet
EndChar

StartChar: uni0E25
Encoding: 3621 3621 33
Width: 435
GlyphClass: 2
Flags: W
LayerCount: 2
Fore
SplineSet
289 0 m 1,0,-1
 402 182.5 402 182.5 289 366 c 2,1,2
 289 432 289 432 269.5 460 c 128,-1,3
 250 488 250 488 206 488 c 0,4,5
 170 488 170 488 136.5 475 c 128,-1,6
 103 462 103 462 75 438 c 1,7,-1
 92 475.5 92 475.5 75 517 c 1,8,9
 95 532 95 532 131.5 545 c 128,-1,10
 168 558 168 558 214 558 c 0,11,12
 251 558 251 558 280 546.5 c 128,-1,13
 309 535 309 535 329.5 512 c 128,-1,14
 350 489 350 489 360.5 454 c 128,-1,15
 371 419 371 419 371 372 c 2,16,-1
 490 185 490 185 371 0 c 1,17,-1
 446 0 446 0 289 0 c 1,0,-1
170 -10 m 0,18,19
 108 -10 108 -10 75 30.5 c 128,-1,20
 42 71 42 71 42 147 c 0,21,22
 42 230 42 230 83.5 275.5 c 128,-1,23
 125 321 125 321 218 328 c 2,24,-1
 363 331.5 363 331.5 303 335 c 1,25,-1
 420 298 420 298 303 264 c 1,26,-1
 369 257.5 369 257.5 228 257 c 2,27,28
 170 252 170 252 147 225.5 c 128,-1,29
 124 199 124 199 124 149 c 0,30,31
 124 102 124 102 141.5 81 c 128,-1,32
 159 60 159 60 189 60 c 0,33,34
 200 60 200 60 209.5 62.5 c 128,-1,35
 219 65 219 65 227 69 c 1,36,-1
 312 37.5 312 37.5 236 4 c 1,37,38
 223 -3 223 -3 205.5 -6.5 c 128,-1,39
 188 -10 188 -10 170 -10 c 0,18,19
EndSplineSet
EndChar

StartChar: uni0E26
Encoding: 3622 3622 34
Width: 459
GlyphClass: 2
Flags: W
LayerCount: 2
Fore
SplineSet
312 -200 m 1,0,-1
 433 -50.5 433 -50.5 312 100 c 1,1,-1
 477.5 100 477.5 100 395 100 c 1,2,-1
 522 -50.5 522 -50.5 395 -200 c 1,3,-1
 477.5 -201 477.5 -201 312 -200 c 1,0,-1
81 -10 m 0,4,5
 65 -10 65 -10 51.5 -6.5 c 128,-1,6
 38 -3 38 -3 25 4 c 1,7,-1
 24 36 24 36 34 65 c 1,8,9
 39 63 39 63 44 61 c 128,-1,10
 49 59 49 59 55 59 c 0,11,12
 66 59 66 59 71 68.5 c 128,-1,13
 76 78 76 78 76 98 c 2,14,-1
 92 147.5 92 147.5 76 193 c 2,15,16
 76 256 76 256 92 284 c 128,-1,17
 108 312 108 312 137 322 c 1,18,-1
 181.5 322.5 181.5 322.5 138 325 c 1,19,-1
 124.5 345 124.5 345 58 367 c 1,20,-1
 67 382.5 67 382.5 58 401 c 2,21,22
 58 441 58 441 77.5 477 c 128,-1,23
 97 513 97 513 134.5 535.5 c 128,-1,24
 172 558 172 558 226 558 c 0,25,26
 275 558 275 558 313 539 c 128,-1,27
 351 520 351 520 373 478.5 c 128,-1,28
 395 437 395 437 395 371 c 2,29,-1
 522 184.5 522 184.5 395 0 c 1,30,-1
 477.5 0 477.5 0 312 0 c 1,31,-1
 433 180 433 180 312 362 c 2,32,33
 312 430 312 430 287.5 459 c 128,-1,34
 263 488 263 488 225 488 c 0,35,36
 185 488 185 488 164 462 c 128,-1,37
 143 436 143 436 142 396 c 1,38,-1
 215 367 215 367 215 341 c 1,39,-1
 268 316 268 316 208 295 c 1,40,41
 185 295 185 295 171.5 270.5 c 128,-1,42
 158 246 158 246 158 191 c 2,43,-1
 181 142.5 181 142.5 158 92 c 2,44,45
 158 31 158 31 136 10.5 c 128,-1,46
 114 -10 114 -10 81 -10 c 0,4,5
EndSplineSet
EndChar

StartChar: uni0E26.short
Encoding: 65539 -1 35
Width: 459
GlyphClass: 2
Flags: W
LayerCount: 2
Fore
SplineSet
312 -174 m 1,0,-1
 433 -37 433 -37 312 100 c 1,1,-1
 477.5 100 477.5 100 395 100 c 1,2,-1
 522 -37 522 -37 395 -174 c 1,3,-1
 477.5 -174 477.5 -174 312 -174 c 1,0,-1
81 -10 m 0,4,5
 65 -10 65 -10 51.5 -6.5 c 128,-1,6
 38 -3 38 -3 25 4 c 1,7,-1
 24 36 24 36 34 65 c 1,8,9
 39 63 39 63 44 61 c 128,-1,10
 49 59 49 59 55 59 c 0,11,12
 66 59 66 59 71 68.5 c 128,-1,13
 76 78 76 78 76 98 c 2,14,-1
 92 147.5 92 147.5 76 193 c 2,15,16
 76 256 76 256 92 284 c 128,-1,17
 108 312 108 312 137 322 c 1,18,-1
 181.5 322.5 181.5 322.5 138 325 c 1,19,-1
 124.5 345 124.5 345 58 367 c 1,20,-1
 67 382.5 67 382.5 58 401 c 2,21,22
 58 441 58 441 77.5 477 c 128,-1,23
 97 513 97 513 134.5 535.5 c 128,-1,24
 172 558 172 558 226 558 c 0,25,26
 275 558 275 558 313 539 c 128,-1,27
 351 520 351 520 373 478.5 c 128,-1,28
 395 437 395 437 395 371 c 2,29,-1
 522 184.5 522 184.5 395 0 c 1,30,-1
 477.5 0 477.5 0 312 0 c 1,31,-1
 433 180 433 180 312 362 c 2,32,33
 312 430 312 430 287.5 459 c 128,-1,34
 263 488 263 488 225 488 c 0,35,36
 185 488 185 488 164 462 c 128,-1,37
 143 436 143 436 142 396 c 1,38,-1
 215 367 215 367 215 341 c 1,39,-1
 268 316 268 316 208 295 c 1,40,41
 185 295 185 295 171.5 270.5 c 128,-1,42
 158 246 158 246 158 191 c 2,43,-1
 181 142.5 181 142.5 158 92 c 2,44,45
 158 31 158 31 136 10.5 c 128,-1,46
 114 -10 114 -10 81 -10 c 0,4,5
EndSplineSet
EndChar

StartChar: uni0E260E45
Encoding: 65540 -1 36
Width: 700
GlyphClass: 1
Flags: W
LayerCount: 2
Fore
SplineSet
312 -200 m 1,0,-1
 433 75 433 75 312 353 c 2,1,2
 312 403 312 403 301 432.5 c 128,-1,3
 290 462 290 462 270.5 475 c 128,-1,4
 251 488 251 488 225 488 c 0,5,6
 199 488 199 488 180.5 476 c 128,-1,7
 162 464 162 464 152.5 443.5 c 128,-1,8
 143 423 143 423 142 396 c 1,9,-1
 215 367 215 367 215 341 c 1,10,-1
 268 316 268 316 208 295 c 1,11,12
 185 295 185 295 171.5 270.5 c 128,-1,13
 158 246 158 246 158 191 c 2,14,-1
 181 142.5 181 142.5 158 92 c 2,15,16
 158 31 158 31 136 10.5 c 128,-1,17
 114 -10 114 -10 81 -10 c 0,18,19
 65 -10 65 -10 51.5 -6.5 c 128,-1,20
 38 -3 38 -3 25 4 c 1,21,-1
 24 36 24 36 34 65 c 1,22,23
 39 63 39 63 44 61 c 128,-1,24
 49 59 49 59 55 59 c 0,25,26
 66 59 66 59 71 68.5 c 128,-1,27
 76 78 76 78 76 98 c 2,28,-1
 92 147.5 92 147.5 76 193 c 2,29,30
 76 256 76 256 92 284 c 128,-1,31
 108 312 108 312 137 322 c 1,32,-1
 181.5 322.5 181.5 322.5 138 325 c 1,33,-1
 124.5 345 124.5 345 58 367 c 1,34,-1
 67 382.5 67 382.5 58 401 c 2,35,36
 58 441 58 441 77.5 477 c 128,-1,37
 97 513 97 513 134.5 535.5 c 128,-1,38
 172 558 172 558 225 558 c 0,39,40
 276 558 276 558 309 533.5 c 128,-1,41
 342 509 342 509 358 465 c 1,42,-1
 484.5 466 484.5 466 360 465 c 1,43,44
 376 509 376 509 409 533.5 c 128,-1,45
 442 558 442 558 491 558 c 0,46,47
 539 558 539 558 571 536 c 128,-1,48
 603 514 603 514 619.5 472.5 c 128,-1,49
 636 431 636 431 636 370 c 2,50,-1
 862 84 862 84 636 -200 c 1,51,-1
 817.5 -201 817.5 -201 553 -200 c 1,52,-1
 773 79 773 79 553 362 c 2,53,54
 553 433 553 433 531 460.5 c 128,-1,55
 509 488 509 488 474 488 c 256,56,57
 440 488 440 488 417.5 459 c 128,-1,58
 395 430 395 430 395 357 c 2,59,-1
 522 77 522 77 395 -200 c 1,60,-1
 477.5 -201 477.5 -201 312 -200 c 1,0,-1
EndSplineSet
EndChar

StartChar: uni0331
Encoding: 817 817 37
Width: 0
GlyphClass: 4
Flags: W
LayerCount: 2
Fore
SplineSet
-120 -76 m 1,0,-1
 -120 -153 l 1,1,-1
 -402 -147 l 1,2,-1
 -358 -91 l 1,3,-1
 -120 -76 l 1,0,-1
EndSplineSet
EndChar

StartChar: uni0331.alt
Encoding: 65541 -1 38
Width: 0
GlyphClass: 4
Flags: W
LayerCount: 2
Fore
SplineSet
-120 -76 m 1,0,-1
 -120 -153 l 1,1,-1
 -691 -147 l 1,2,-1
 -564 -91 l 1,3,-1
 -120 -76 l 1,0,-1
EndSplineSet
EndChar

StartChar: uni0E4B
Encoding: 3659 3659 39
Width: 0
GlyphClass: 4
Flags: W
LayerCount: 2
Fore
SplineSet
-240 635 m 1,0,-1
 -190 845 l 1,1,-1
 -164 846 l 1,2,-1
 -122 636 l 1,3,-1
 -240 635 l 1,0,-1
-316 707 m 1,4,-1
 -242 770 l 1,5,-1
 -88 771 l 1,6,-1
 -70 708 l 1,7,-1
 -316 707 l 1,4,-1
EndSplineSet
EndChar

StartChar: uni0E4B.narrow
Encoding: 65542 -1 40
Width: 0
GlyphClass: 4
Flags: W
LayerCount: 2
Fore
SplineSet
-383 635 m 1,0,-1
 -305 845 l 1,1,-1
 -308 846 l 1,2,-1
 -237 636 l 1,3,-1
 -383 635 l 1,0,-1
-459 707 m 1,4,-1
 -357 770 l 1,5,-1
 -231 771 l 1,6,-1
 -185 708 l 1,7,-1
 -459 707 l 1,4,-1
EndSplineSet
EndChar

StartChar: uni0E4B.small
Encoding: 65543 -1 41
Width: 0
GlyphClass: 4
Flags: W
LayerCount: 2
Fore
SplineSet
-168 846 m 1,0,-1
 -141 1007 l 1,1,-1
 -93 1009 l 1,2,-1
 -74 845 l 1,3,-1
 -168 846 l 1,0,-1
-226 897 m 1,4,-1
 -184 956 l 1,5,-1
 -35 958 l 1,6,-1
 -30 896 l 1,7,-1
 -226 897 l 1,4,-1
EndSplineSet
EndChar

StartChar: uni0E48
Encoding: 3656 3656 42
Width: 0
GlyphClass: 4
Flags: W
LayerCount: 2
Fore
SplineSet
-178 635 m 1,0,-1
 -150 845 l 1,1,-1
 -90 846 l 1,2,-1
 -72 636 l 1,3,-1
 -178 635 l 1,0,-1
EndSplineSet
EndChar

StartChar: uni0E48.narrow
Encoding: 65544 -1 43
Width: 0
GlyphClass: 4
Flags: W
LayerCount: 2
Fore
SplineSet
-344 635 m 1,0,-1
 -284 845 l 1,1,-1
 -256 846 l 1,2,-1
 -206 636 l 1,3,-1
 -344 635 l 1,0,-1
EndSplineSet
EndChar

StartChar: uni0E48.small
Encoding: 65545 -1 44
Width: 0
GlyphClass: 4
Flags: W
LayerCount: 2
Fore
SplineSet
-173 846 m 1,0,-1
 -144 1007 l 1,1,-1
 -88 1009 l 1,2,-1
 -70 845 l 1,3,-1
 -173 846 l 1,0,-1
EndSplineSet
EndChar

StartChar: uni0E31
Encoding: 3633 3633 45
Width: 0
GlyphClass: 4
Flags: W
LayerCount: 2
Fore
SplineSet
-166 636 m 2,0,1
 -197 636 -197 636 -215.5 647.5 c 128,-1,2
 -234 659 -234 659 -242 678 c 128,-1,3
 -250 697 -250 697 -250 718 c 0,4,5
 -250 732 -250 732 -246.5 749.5 c 128,-1,6
 -243 767 -243 767 -237 777 c 1,7,-1
 -277.5 772.5 -277.5 772.5 -174 765 c 1,8,9
 -175 761 -175 761 -176.5 751.5 c 128,-1,10
 -178 742 -178 742 -178 733 c 0,11,12
 -178 720 -178 720 -172 710.5 c 128,-1,13
 -166 701 -166 701 -152 701 c 2,14,-1
 -84.5 703 -84.5 703 15 701 c 1,15,-1
 42 669 42 669 15 636 c 1,16,-1
 -87 635 -87 635 -166 636 c 2,0,1
EndSplineSet
EndChar

StartChar: uni0E31.narrow
Encoding: 65546 -1 46
Width: 0
GlyphClass: 4
Flags: W
LayerCount: 2
Fore
SplineSet
-297 636 m 2,0,1
 -328 636 -328 636 -346.5 647.5 c 128,-1,2
 -365 659 -365 659 -373 678 c 128,-1,3
 -381 697 -381 697 -381 718 c 0,4,5
 -381 732 -381 732 -377.5 749.5 c 128,-1,6
 -374 767 -374 767 -369 777 c 1,7,-1
 -444.5 772.5 -444.5 772.5 -305 765 c 1,8,9
 -306 761 -306 761 -307.5 751.5 c 128,-1,10
 -309 742 -309 742 -309 733 c 0,11,12
 -309 720 -309 720 -303 710.5 c 128,-1,13
 -297 701 -297 701 -283 701 c 2,14,-1
 -301.5 703 -301.5 703 -184 701 c 1,15,-1
 -226 669 -226 669 -184 636 c 1,16,-1
 -304.5 635 -304.5 635 -297 636 c 2,0,1
EndSplineSet
EndChar

StartChar: uni0E49
Encoding: 3657 3657 47
Width: 0
GlyphClass: 4
Flags: W
LayerCount: 2
Fore
SplineSet
-272 636 m 1,0,-1
 -368 657 -368 657 -272 680 c 1,1,2
 -260 684 -260 684 -246.5 691.5 c 128,-1,3
 -233 699 -233 699 -223.5 711.5 c 128,-1,4
 -214 724 -214 724 -214 742 c 0,5,6
 -214 754 -214 754 -219 762.5 c 128,-1,7
 -224 771 -224 771 -234 771 c 0,8,9
 -241 771 -241 771 -248 767 c 128,-1,10
 -255 763 -255 763 -260 760 c 1,11,-1
 -358 786.5 -358 786.5 -274 813 c 1,12,13
 -259 829 -259 829 -240.5 834 c 128,-1,14
 -222 839 -222 839 -209 839 c 0,15,16
 -180 839 -180 839 -163 816.5 c 128,-1,17
 -146 794 -146 794 -146 762 c 0,18,19
 -146 734 -146 734 -155.5 713 c 128,-1,20
 -165 692 -165 692 -179 680 c 1,21,-1
 -252 693 -252 693 -184 703 c 1,22,-1
 -157.5 705 -157.5 705 -49 703 c 1,23,-1
 -58 670 -58 670 -49 636 c 1,24,-1
 -213 635 -213 635 -272 636 c 1,0,-1
EndSplineSet
EndChar

StartChar: uni0E49.narrow
Encoding: 65547 -1 48
Width: 0
GlyphClass: 4
Flags: W
LayerCount: 2
Fore
SplineSet
-373 636 m 1,0,-1
 -494 657 -494 657 -373 680 c 1,1,2
 -361 684 -361 684 -348 691.5 c 128,-1,3
 -335 699 -335 699 -326 711.5 c 128,-1,4
 -317 724 -317 724 -317 741 c 0,5,6
 -317 755 -317 755 -322 763 c 128,-1,7
 -327 771 -327 771 -337 771 c 0,8,9
 -344 771 -344 771 -351 767 c 128,-1,10
 -358 763 -358 763 -363 760 c 1,11,-1
 -488.5 786.5 -488.5 786.5 -377 813 c 1,12,13
 -362 829 -362 829 -343.5 834 c 128,-1,14
 -325 839 -325 839 -312 839 c 0,15,16
 -283 839 -283 839 -266 816.5 c 128,-1,17
 -249 794 -249 794 -249 759 c 0,18,19
 -249 737 -249 737 -256 718 c 128,-1,20
 -263 699 -263 699 -282 688 c 1,21,-1
 -382 697 -382 697 -289 703 c 1,22,-1
 -308 705 -308 705 -184 703 c 1,23,-1
 -228 670 -228 670 -184 636 c 1,24,-1
 -361 635 -361 635 -373 636 c 1,0,-1
EndSplineSet
EndChar

StartChar: uni0E49.small
Encoding: 65548 -1 49
Width: 0
GlyphClass: 4
Flags: W
LayerCount: 2
Fore
SplineSet
-196 845 m 1,0,-1
 -258 863.5 -258 863.5 -196 880 c 1,1,2
 -188 883 -188 883 -177.5 889 c 128,-1,3
 -167 895 -167 895 -159 904.5 c 128,-1,4
 -151 914 -151 914 -151 929 c 0,5,6
 -151 939 -151 939 -155.5 945.5 c 128,-1,7
 -160 952 -160 952 -168 952 c 0,8,9
 -173 952 -173 952 -179 949 c 128,-1,10
 -185 946 -185 946 -190 942 c 1,11,-1
 -258 966 -258 966 -203 986 c 1,12,13
 -189 999 -189 999 -172 1003 c 128,-1,14
 -155 1007 -155 1007 -145 1007 c 0,15,16
 -122 1007 -122 1007 -106.5 993 c 128,-1,17
 -91 979 -91 979 -91 948 c 0,18,19
 -91 935 -91 935 -95 918.5 c 128,-1,20
 -99 902 -99 902 -113 892 c 1,21,-1
 -155 903.5 -155 903.5 -117 910 c 1,22,-1
 -82 913 -82 913 -10 910 c 1,23,-1
 -6 879.5 -6 879.5 -10 845 c 1,24,-1
 -132 846 -132 846 -196 845 c 1,0,-1
EndSplineSet
EndChar

StartChar: uni0E4A
Encoding: 3658 3658 50
Width: 0
GlyphClass: 4
Flags: W
LayerCount: 2
Fore
SplineSet
-243 631 m 0,0,1
 -279 631 -279 631 -299 658.5 c 128,-1,2
 -319 686 -319 686 -319 732 c 0,3,4
 -319 779 -319 779 -299 805.5 c 128,-1,5
 -279 832 -279 832 -244 837 c 1,6,-1
 -293 820 -293 820 -202 801 c 1,7,-1
 -237.5 820 -237.5 820 -163 837 c 1,8,9
 -120 832 -120 832 -102.5 806.5 c 128,-1,10
 -85 781 -85 781 -85 746 c 0,11,12
 -85 727 -85 727 -90 711.5 c 128,-1,13
 -95 696 -95 696 -104 684 c 1,14,-1
 -138 693 -138 693 -107 698 c 1,15,-1
 -88.5 700 -88.5 700 -36 698 c 1,16,-1
 -37 667.5 -37 667.5 -36 636 c 1,17,-1
 -127 635 -127 635 -172 636 c 1,18,-1
 -217 656 -217 656 -172 676 c 1,19,20
 -162 682 -162 682 -154.5 694.5 c 128,-1,21
 -147 707 -147 707 -147 730 c 0,22,23
 -147 755 -147 755 -154.5 765.5 c 128,-1,24
 -162 776 -162 776 -170 777 c 1,25,-1
 -238 761.5 -238 761.5 -200 747 c 1,26,-1
 -265 747 -265 747 -204 747 c 1,27,-1
 -292 761.5 -292 761.5 -235 777 c 1,28,29
 -241 775 -241 775 -248 766 c 128,-1,30
 -255 757 -255 757 -255 731 c 0,31,32
 -255 706 -255 706 -247.5 693.5 c 128,-1,33
 -240 681 -240 681 -228 681 c 0,34,35
 -225 681 -225 681 -220.5 682 c 128,-1,36
 -216 683 -216 683 -212 686 c 1,37,-1
 -275.5 663.5 -275.5 663.5 -205 641 c 1,38,39
 -211 637 -211 637 -221.5 634 c 128,-1,40
 -232 631 -232 631 -243 631 c 0,0,1
EndSplineSet
EndChar

StartChar: uni0E4A.narrow
Encoding: 65549 -1 51
Width: 0
GlyphClass: 4
Flags: W
LayerCount: 2
Fore
SplineSet
-349 631 m 0,0,1
 -383 631 -383 631 -402.5 658.5 c 128,-1,2
 -422 686 -422 686 -422 732 c 0,3,4
 -422 779 -422 779 -403 805.5 c 128,-1,5
 -384 832 -384 832 -351 837 c 1,6,-1
 -436 820 -436 820 -316 801 c 1,7,-1
 -390 820 -390 820 -284 837 c 1,8,9
 -245 832 -245 832 -227.5 806.5 c 128,-1,10
 -210 781 -210 781 -210 746 c 0,11,12
 -210 727 -210 727 -215 710 c 128,-1,13
 -220 693 -220 693 -228 681 c 1,14,-1
 -297.5 691.5 -297.5 691.5 -231 700 c 1,15,-1
 -253.5 701 -253.5 701 -174 700 c 1,16,-1
 -207 668 -207 668 -174 636 c 1,17,-1
 -290.5 635 -290.5 635 -292 636 c 1,18,-1
 -374 656 -374 656 -292 676 c 1,19,20
 -281 682 -281 682 -273.5 694.5 c 128,-1,21
 -266 707 -266 707 -266 730 c 0,22,23
 -266 755 -266 755 -274 767.5 c 128,-1,24
 -282 780 -282 780 -290 781 c 1,25,-1
 -391 765 -391 765 -314 751 c 1,26,-1
 -413 750 -413 750 -318 751 c 1,27,-1
 -435 765 -435 765 -343 781 c 1,28,29
 -352 779 -352 779 -359 766.5 c 128,-1,30
 -366 754 -366 754 -366 731 c 0,31,32
 -366 712 -366 712 -359 696.5 c 128,-1,33
 -352 681 -352 681 -338 681 c 0,34,35
 -335 681 -335 681 -330.5 682 c 128,-1,36
 -326 683 -326 683 -321 686 c 1,37,-1
 -413 663.5 -413 663.5 -314 641 c 1,38,39
 -319 637 -319 637 -328.5 634 c 128,-1,40
 -338 631 -338 631 -349 631 c 0,0,1
EndSplineSet
EndChar

StartChar: uni0E4A.small
Encoding: 65550 -1 52
Width: 0
GlyphClass: 4
Flags: W
LayerCount: 2
Fore
SplineSet
-167 841 m 0,0,1
 -198 841 -198 841 -213.5 865 c 128,-1,2
 -229 889 -229 889 -229 923 c 0,3,4
 -229 957 -229 957 -211.5 982 c 128,-1,5
 -194 1007 -194 1007 -158 1007 c 1,6,-1
 -173.5 992 -173.5 992 -124 972 c 1,7,-1
 -125 992 -125 992 -92 1007 c 1,8,9
 -63 1007 -63 1007 -42.5 991 c 128,-1,10
 -22 975 -22 975 -22 940 c 0,11,12
 -22 918 -22 918 -28 904.5 c 128,-1,13
 -34 891 -34 891 -42 886 c 1,14,-1
 -43 895.5 -43 895.5 -45 899 c 1,15,-1
 -0.5 902 -0.5 902 20 899 c 1,16,-1
 44 874 44 874 20 845 c 1,17,-1
 -32 846 -32 846 -97 845 c 1,18,-1
 -108 865.5 -108 865.5 -97 883 c 1,19,20
 -87 885 -87 885 -80.5 895 c 128,-1,21
 -74 905 -74 905 -74 921 c 0,22,23
 -74 935 -74 935 -79.5 945 c 128,-1,24
 -85 955 -85 955 -94 957 c 1,25,-1
 -124.5 944 -124.5 944 -122 928 c 1,26,-1
 -148.5 930 -148.5 930 -126 928 c 1,27,-1
 -173.5 944 -173.5 944 -155 957 c 1,28,29
 -165 956 -165 956 -170 946 c 128,-1,30
 -175 936 -175 936 -175 922 c 256,31,32
 -175 908 -175 908 -169 898.5 c 128,-1,33
 -163 889 -163 889 -153 889 c 0,34,35
 -150 889 -150 889 -146 890 c 128,-1,36
 -142 891 -142 891 -140 892 c 1,37,-1
 -172 872.5 -172 872.5 -134 850 c 1,38,39
 -139 846 -139 846 -148 843.5 c 128,-1,40
 -157 841 -157 841 -167 841 c 0,0,1
EndSplineSet
EndChar

StartChar: uni0E47
Encoding: 3655 3655 53
Width: 0
GlyphClass: 4
Flags: W
LayerCount: 2
Fore
SplineSet
-149 621 m 0,0,1
 -170 621 -170 621 -184.5 632 c 128,-1,2
 -199 643 -199 643 -208 667 c 1,3,-1
 -297 644.5 -297 644.5 -243 624 c 1,4,5
 -285 624 -285 624 -310.5 652 c 128,-1,6
 -336 680 -336 680 -336 734 c 0,7,8
 -336 772 -336 772 -324 796.5 c 128,-1,9
 -312 821 -312 821 -293 833 c 128,-1,10
 -274 845 -274 845 -252 845 c 2,11,-1
 -216.5 846 -216.5 846 -81 845 c 1,12,-1
 -100 816 -100 816 -81 786 c 1,13,-1
 -210 786 -210 786 -239 786 c 2,14,15
 -254 786 -254 786 -264.5 772 c 128,-1,16
 -275 758 -275 758 -275 729 c 0,17,18
 -275 708 -275 708 -268.5 694.5 c 128,-1,19
 -262 681 -262 681 -246 681 c 1,20,-1
 -300 707 -300 707 -209 731 c 1,21,-1
 -262.5 732 -262.5 732 -196 731 c 1,22,23
 -194 709 -194 709 -185.5 693.5 c 128,-1,24
 -177 678 -177 678 -162 678 c 0,25,26
 -150 678 -150 678 -144 689 c 128,-1,27
 -138 700 -138 700 -138 718 c 2,28,-1
 -164 725.5 -164 725.5 -138 731 c 1,29,-1
 -131.5 732 -131.5 732 -80 731 c 1,30,-1
 -99 725 -99 725 -80 718 c 2,31,32
 -80 669 -80 669 -98.5 645 c 128,-1,33
 -117 621 -117 621 -149 621 c 0,0,1
EndSplineSet
EndChar

StartChar: uni0E47.narrow
Encoding: 65551 -1 54
Width: 0
GlyphClass: 4
Flags: W
LayerCount: 2
Fore
SplineSet
-247 621 m 0,0,1
 -266 621 -266 621 -280 632 c 128,-1,2
 -294 643 -294 643 -303 667 c 1,3,-1
 -412 644.5 -412 644.5 -328 624 c 1,4,5
 -369 624 -369 624 -393 652 c 128,-1,6
 -417 680 -417 680 -417 734 c 0,7,8
 -417 790 -417 790 -393 817.5 c 128,-1,9
 -369 845 -369 845 -338 845 c 2,10,-1
 -335 846 -335 846 -184 845 c 1,11,-1
 -228 816 -228 816 -184 786 c 1,12,-1
 -328.5 786 -328.5 786 -326 786 c 2,13,14
 -341 786 -341 786 -350.5 773 c 128,-1,15
 -360 760 -360 760 -360 731 c 0,16,17
 -360 709 -360 709 -353.5 695 c 128,-1,18
 -347 681 -347 681 -332 681 c 1,19,-1
 -415 707 -415 707 -304 731 c 1,20,-1
 -382.5 732 -382.5 732 -288 731 c 1,21,22
 -287 705 -287 705 -280 691.5 c 128,-1,23
 -273 678 -273 678 -261 678 c 0,24,25
 -250 678 -250 678 -243.5 689.5 c 128,-1,26
 -237 701 -237 701 -237 719 c 2,27,-1
 -291 726 -291 726 -237 731 c 1,28,-1
 -259 732 -259 732 -183 731 c 1,29,-1
 -227 725 -227 725 -183 718 c 2,30,31
 -183 669 -183 669 -200.5 645 c 128,-1,32
 -218 621 -218 621 -247 621 c 0,0,1
EndSplineSet
EndChar

StartChar: uni0E46
Encoding: 3654 3654 55
Width: 455
GlyphClass: 1
Flags: W
LayerCount: 2
Fore
SplineSet
310 -200 m 1,0,-1
 427 112.5 427 112.5 310 428 c 2,1,2
 310 460 310 460 302 474 c 128,-1,3
 294 488 294 488 280 488 c 256,4,5
 266 488 266 488 258 474 c 128,-1,6
 250 460 250 460 250 428 c 2,7,-1
 335 404.5 335 404.5 250 384 c 1,8,-1
 297.5 383 297.5 383 199 384 c 1,9,-1
 260 404.5 260 404.5 199 428 c 2,10,11
 199 460 199 460 191 474 c 128,-1,12
 183 488 183 488 169 488 c 0,13,14
 153 488 153 488 145 465.5 c 128,-1,15
 137 443 137 443 137 387 c 0,16,17
 137 323 137 323 146.5 299.5 c 128,-1,18
 156 276 156 276 175 276 c 0,19,20
 181 276 181 276 188 278 c 128,-1,21
 195 280 195 280 201 284 c 1,22,-1
 272.5 254 272.5 254 216 222 c 1,23,24
 205 215 205 215 191 211 c 128,-1,25
 177 207 177 207 160 207 c 0,26,27
 111 207 111 207 85.5 253.5 c 128,-1,28
 60 300 60 300 60 385 c 0,29,30
 60 479 60 479 86.5 518.5 c 128,-1,31
 113 558 113 558 156 558 c 0,32,33
 181 558 181 558 200 545.5 c 128,-1,34
 219 533 219 533 228 506 c 1,35,-1
 300.5 506 300.5 506 230 506 c 1,36,37
 239 533 239 533 258 545.5 c 128,-1,38
 277 558 277 558 304 558 c 0,39,40
 328 558 328 558 348 547 c 128,-1,41
 368 536 368 536 379.5 510 c 128,-1,42
 391 484 391 484 391 439 c 2,43,-1
 514 117.5 514 117.5 391 -200 c 1,44,-1
 470.5 -201 470.5 -201 310 -200 c 1,0,-1
EndSplineSet
EndChar

StartChar: uni0E21
Encoding: 3617 3617 56
Width: 465
GlyphClass: 2
Flags: W
LayerCount: 2
Fore
SplineSet
270 -10 m 0,0,1
 222 -10 222 -10 190.5 15.5 c 128,-1,2
 159 41 159 41 146 87 c 1,3,-1
 169 87 169 87 142 87 c 1,4,-1
 164.5 43.5 164.5 43.5 135 0 c 1,5,-1
 125.5 0 125.5 0 70 0 c 1,6,-1
 89 274 89 274 70 548 c 1,7,-1
 133.5 548 133.5 548 152 548 c 1,8,-1
 178 389.5 178 389.5 152 226 c 2,9,10
 152 176 152 176 163 138.5 c 128,-1,11
 174 101 174 101 195.5 80.5 c 128,-1,12
 217 60 217 60 246 60 c 0,13,14
 282 60 282 60 300.5 91.5 c 128,-1,15
 319 123 319 123 319 184 c 2,16,-1
 444 367.5 444 367.5 319 548 c 1,17,-1
 488.5 548 488.5 548 401 548 c 1,18,-1
 533 364.5 533 364.5 401 180 c 2,19,20
 401 114 401 114 386 72 c 128,-1,21
 371 30 371 30 341.5 10 c 128,-1,22
 312 -10 312 -10 270 -10 c 0,0,1
EndSplineSet
EndChar

StartChar: uni0E07
Encoding: 3591 3591 58
Width: 410
GlyphClass: 2
Flags: W
LayerCount: 2
Fore
SplineSet
128 0 m 1,0,-1
 85.5 274 85.5 274 10 548 c 1,1,-1
 45 548 45 548 93 548 c 1,2,-1
 164 312.5 164 312.5 190 73 c 1,3,-1
 244 77 244 77 196 73 c 2,4,5
 211 73 211 73 224 84.5 c 128,-1,6
 237 96 237 96 247 115 c 0,7,8
 265 149 265 149 274 200 c 128,-1,9
 283 251 283 251 283 301 c 0,10,11
 283 386 283 386 260 434.5 c 128,-1,12
 237 483 237 483 197 483 c 0,13,14
 189 483 189 483 181.5 481 c 128,-1,15
 174 479 174 479 169 476 c 1,16,-1
 196 507.5 196 507.5 152 543 c 1,17,18
 167 549 167 549 181 551 c 128,-1,19
 195 553 195 553 205 553 c 0,20,21
 241 553 241 553 269.5 538.5 c 128,-1,22
 298 524 298 524 317 496 c 0,23,24
 341 462 341 462 353 410.5 c 128,-1,25
 365 359 365 359 365 298 c 0,26,27
 365 220 365 220 348 159.5 c 128,-1,28
 331 99 331 99 305 63 c 0,29,30
 284 34 284 34 253 17 c 128,-1,31
 222 0 222 0 172 0 c 2,32,-1
 196 0 196 0 128 0 c 1,0,-1
EndSplineSet
EndChar

StartChar: uni0E4D
Encoding: 3661 3661 59
Width: 0
GlyphClass: 4
Flags: W
LayerCount: 2
Fore
SplineSet
-134 612 m 256,0,1
 -171 612 -171 612 -193.5 635 c 128,-1,2
 -216 658 -216 658 -216 701 c 0,3,4
 -216 744 -216 744 -193.5 767 c 128,-1,5
 -171 790 -171 790 -134 790 c 256,6,7
 -96 790 -96 790 -73.5 767 c 128,-1,8
 -51 744 -51 744 -51 701 c 0,9,10
 -51 658 -51 658 -73.5 635 c 128,-1,11
 -96 612 -96 612 -134 612 c 256,0,1
-134 658 m 0,12,13
 -117 658 -117 658 -108.5 670 c 128,-1,14
 -100 682 -100 682 -100 701 c 0,15,16
 -100 721 -100 721 -108.5 732.5 c 128,-1,17
 -117 744 -117 744 -134 744 c 0,18,19
 -150 744 -150 744 -158.5 732.5 c 128,-1,20
 -167 721 -167 721 -167 701 c 0,21,22
 -167 682 -167 682 -158.5 670 c 128,-1,23
 -150 658 -150 658 -134 658 c 0,12,13
EndSplineSet
EndChar

StartChar: uni0E59
Encoding: 3673 3673 61
Width: 392
GlyphClass: 1
Flags: W
LayerCount: 2
Fore
SplineSet
160 -10 m 0,0,1
 119 -10 119 -10 94.5 22 c 128,-1,2
 70 54 70 54 59 110 c 128,-1,3
 48 166 48 166 48 238 c 0,4,5
 48 320 48 320 60 370 c 128,-1,6
 72 420 72 420 96 442.5 c 128,-1,7
 120 465 120 465 156 465 c 0,8,9
 187 465 187 465 203 449.5 c 128,-1,10
 219 434 219 434 232 398 c 1,11,-1
 294 397.5 294 397.5 215 399 c 1,12,13
 218 431 218 431 231.5 448 c 128,-1,14
 245 465 245 465 268 465 c 2,15,-1
 368.5 465 368.5 465 272 465 c 2,16,17
 287 465 287 465 293.5 476.5 c 128,-1,18
 300 488 300 488 300 518 c 2,19,-1
 413 550.5 413 550.5 300 584 c 1,20,-1
 454 584 454 584 371 584 c 1,21,-1
 495 548.5 495 548.5 371 515 c 2,22,23
 371 463 371 463 355.5 433.5 c 128,-1,24
 340 404 340 404 307 404 c 2,25,-1
 392.5 402 392.5 402 297 404 c 2,26,27
 277 404 277 404 268.5 386.5 c 128,-1,28
 260 369 260 369 270 334 c 2,29,-1
 414.5 166 414.5 166 360 0 c 1,30,-1
 439.5 0 439.5 0 282 0 c 1,31,-1
 323 174.5 323 174.5 193 352 c 2,32,33
 188 373 188 373 182 384.5 c 128,-1,34
 176 396 176 396 165 396 c 0,35,36
 155 396 155 396 146.5 383 c 128,-1,37
 138 370 138 370 133 336.5 c 128,-1,38
 128 303 128 303 128 240 c 0,39,40
 128 181 128 181 133 140.5 c 128,-1,41
 138 100 138 100 150 79 c 128,-1,42
 162 58 162 58 181 58 c 0,43,44
 186 58 186 58 192 59.5 c 128,-1,45
 198 61 198 61 204 65 c 1,46,-1
 273 34.5 273 34.5 213 1 c 1,47,48
 203 -4 203 -4 188.5 -7 c 128,-1,49
 174 -10 174 -10 160 -10 c 0,0,1
EndSplineSet
EndChar

StartChar: uni0E13
Encoding: 3603 3603 62
Width: 673
GlyphClass: 2
Flags: W
LayerCount: 2
Fore
SplineSet
151 -10 m 0,0,1
 126 -10 126 -10 106.5 -1.5 c 128,-1,2
 87 7 87 7 75 29.5 c 128,-1,3
 63 52 63 52 63 92 c 2,4,-1
 84 143.5 84 143.5 63 193 c 2,5,6
 63 256 63 256 82 284 c 128,-1,7
 101 312 101 312 132 322 c 1,8,-1
 180.5 322.5 180.5 322.5 133 325 c 1,9,-1
 123.5 345 123.5 345 53 367 c 1,10,-1
 66 382.5 66 382.5 53 401 c 2,11,12
 53 445 53 445 72.5 480.5 c 128,-1,13
 92 516 92 516 128.5 537 c 128,-1,14
 165 558 165 558 215 558 c 0,15,16
 260 558 260 558 296.5 540 c 128,-1,17
 333 522 333 522 354.5 481.5 c 128,-1,18
 376 441 376 441 376 371 c 2,19,-1
 497 274.5 497 274.5 376 176 c 2,20,21
 376 115 376 115 393 87.5 c 128,-1,22
 410 60 410 60 438 60 c 0,23,24
 463 60 463 60 481.5 80.5 c 128,-1,25
 500 101 500 101 510.5 138.5 c 128,-1,26
 521 176 521 176 521 225 c 2,27,-1
 732 388 732 388 521 548 c 1,28,-1
 776.5 548 776.5 548 603 548 c 1,29,-1
 821 274 821 274 603 0 c 1,30,-1
 784.5 0 784.5 0 538 0 c 1,31,-1
 745.5 43.5 745.5 43.5 531 87 c 1,32,-1
 740.5 87 740.5 87 526 87 c 1,33,34
 514 41 514 41 484 15.5 c 128,-1,35
 454 -10 454 -10 414 -10 c 0,36,37
 358 -10 358 -10 326 31.5 c 128,-1,38
 294 73 294 73 294 172 c 2,39,-1
 408 266.5 408 266.5 294 362 c 2,40,41
 294 411 294 411 283 438.5 c 128,-1,42
 272 466 272 466 254 477 c 128,-1,43
 236 488 236 488 214 488 c 0,44,45
 181 488 181 488 160 464.5 c 128,-1,46
 139 441 139 441 138 396 c 1,47,-1
 214 367 214 367 210 341 c 1,48,-1
 267 316 267 316 203 295 c 1,49,50
 177 295 177 295 160.5 271.5 c 128,-1,51
 144 248 144 248 144 193 c 2,52,-1
 173 149 173 149 144 103 c 2,53,54
 144 80 144 80 151 70 c 128,-1,55
 158 60 158 60 174 60 c 0,56,57
 180 60 180 60 187 62 c 128,-1,58
 194 64 194 64 199 67 c 1,59,-1
 258.5 37 258.5 37 209 4 c 1,60,61
 196 -4 196 -4 181 -7 c 128,-1,62
 166 -10 166 -10 151 -10 c 0,0,1
EndSplineSet
EndChar

StartChar: uni0E19
Encoding: 3609 3609 63
Width: 465
GlyphClass: 2
Flags: W
LayerCount: 2
Fore
SplineSet
198 -10 m 0,0,1
 156 -10 156 -10 126 10 c 128,-1,2
 96 30 96 30 80 72 c 128,-1,3
 64 114 64 114 64 180 c 2,4,-1
 81 365 81 365 64 548 c 1,5,-1
 125.5 548 125.5 548 146 548 c 1,6,-1
 170 367.5 170 367.5 146 184 c 2,7,8
 146 123 146 123 165 91.5 c 128,-1,9
 184 60 184 60 220 60 c 0,10,11
 265 60 265 60 289 105.5 c 128,-1,12
 313 151 313 151 313 226 c 2,13,-1
 436 389.5 436 389.5 313 548 c 1,14,-1
 480.5 548 480.5 548 395 548 c 1,15,-1
 525 274 525 274 395 0 c 1,16,-1
 488 0 488 0 331 0 c 1,17,-1
 449 40.5 449 40.5 323 81 c 1,18,-1
 444.5 81 444.5 81 319 81 c 1,19,20
 307 40 307 40 276.5 15 c 128,-1,21
 246 -10 246 -10 198 -10 c 0,0,1
EndSplineSet
EndChar

StartChar: uni0E2D
Encoding: 3629 3629 64
Width: 433
GlyphClass: 2
Flags: W
LayerCount: 2
Fore
SplineSet
209 -10 m 0,0,1
 128 -10 128 -10 88.5 46 c 128,-1,2
 49 102 49 102 49 224 c 0,3,4
 49 244 49 244 50.5 267 c 128,-1,5
 52 290 52 290 53 313 c 1,6,-1
 170 314 170 314 211 313 c 1,7,-1
 275 279 275 279 211 246 c 1,8,-1
 212 244 212 244 130 246 c 1,9,-1
 149 234 149 234 130 225 c 2,10,11
 130 160 130 160 138.5 123.5 c 128,-1,12
 147 87 147 87 164.5 73 c 128,-1,13
 182 59 182 59 208 59 c 0,14,15
 237 59 237 59 257.5 76 c 128,-1,16
 278 93 278 93 289 139 c 128,-1,17
 300 185 300 185 300 271 c 0,18,19
 300 346 300 346 289.5 394 c 128,-1,20
 279 442 279 442 254.5 465 c 128,-1,21
 230 488 230 488 188 488 c 0,22,23
 166 488 166 488 144 482.5 c 128,-1,24
 122 477 122 477 102 466.5 c 128,-1,25
 82 456 82 456 65 440 c 1,26,-1
 78 477.5 78 477.5 65 519 c 1,27,28
 80 530 80 530 101.5 538.5 c 128,-1,29
 123 547 123 547 148.5 552.5 c 128,-1,30
 174 558 174 558 201 558 c 0,31,32
 266 558 266 558 306.5 522.5 c 128,-1,33
 347 487 347 487 365.5 422.5 c 128,-1,34
 384 358 384 358 384 270 c 256,35,36
 384 182 384 182 366.5 119 c 128,-1,37
 349 56 349 56 310.5 23 c 128,-1,38
 272 -10 272 -10 209 -10 c 0,0,1
EndSplineSet
EndChar

StartChar: uni0E51
Encoding: 3665 3665 65
Width: 403
GlyphClass: 1
Flags: W
LayerCount: 2
Fore
SplineSet
199 -10 m 0,0,1
 183 -10 183 -10 167 -6.5 c 128,-1,2
 151 -3 151 -3 140 1 c 1,3,-1
 198 36.5 198 36.5 140 69 c 1,4,5
 147 65 147 65 158 62.5 c 128,-1,6
 169 60 169 60 181 60 c 0,7,8
 213 60 213 60 233.5 80 c 128,-1,9
 254 100 254 100 264 139 c 128,-1,10
 274 178 274 178 274 233 c 0,11,12
 274 321 274 321 254 358 c 128,-1,13
 234 395 234 395 193 395 c 0,14,15
 158 395 158 395 139 367.5 c 128,-1,16
 120 340 120 340 120 285 c 0,17,18
 120 242 120 242 131.5 218 c 128,-1,19
 143 194 143 194 161 194 c 0,20,21
 165 194 165 194 170 195 c 128,-1,22
 175 196 175 196 179 198 c 1,23,-1
 244 168.5 244 168.5 191 132 c 1,24,25
 184 126 184 126 170 123 c 128,-1,26
 156 120 156 120 141 120 c 0,27,28
 95 120 95 120 69.5 167 c 128,-1,29
 44 214 44 214 44 284 c 0,30,31
 44 374 44 374 82 419.5 c 128,-1,32
 120 465 120 465 193 465 c 0,33,34
 279 465 279 465 317 404.5 c 128,-1,35
 355 344 355 344 355 237 c 0,36,37
 355 168 355 168 339 112 c 128,-1,38
 323 56 323 56 289 23 c 128,-1,39
 255 -10 255 -10 199 -10 c 0,0,1
EndSplineSet
EndChar

StartChar: uni0E2F
Encoding: 3631 3631 66
Width: 396
GlyphClass: 1
Flags: W
LayerCount: 2
Fore
SplineSet
241 0 m 1,0,-1
 332 166 332 166 241 333 c 1,1,-1
 347 334 347 334 265 337 c 1,2,3
 262 282 262 282 232 252.5 c 128,-1,4
 202 223 202 223 153 223 c 0,5,6
 116 223 116 223 86.5 243 c 128,-1,7
 57 263 57 263 39.5 302.5 c 128,-1,8
 22 342 22 342 22 400 c 0,9,10
 22 473 22 473 52 515.5 c 128,-1,11
 82 558 82 558 135 558 c 0,12,13
 145 558 145 558 158 556 c 128,-1,14
 171 554 171 554 185 546 c 1,15,-1
 233.5 512.5 233.5 512.5 176 481 c 1,16,17
 168 486 168 486 162 487 c 128,-1,18
 156 488 156 488 151 488 c 0,19,20
 131 488 131 488 116.5 466 c 128,-1,21
 102 444 102 444 102 395 c 0,22,23
 102 345 102 345 119.5 318.5 c 128,-1,24
 137 292 137 292 169 292 c 0,25,26
 207 292 207 292 224 323.5 c 128,-1,27
 241 355 241 355 241 428 c 2,28,-1
 332 487.5 332 487.5 241 548 c 1,29,-1
 376.5 548 376.5 548 324 548 c 1,30,-1
 421 274 421 274 324 0 c 1,31,-1
 376.5 0 376.5 0 241 0 c 1,0,-1
EndSplineSet
EndChar

StartChar: uni0E3A
Encoding: 3642 3642 67
Width: 0
GlyphClass: 4
Flags: W
LayerCount: 2
Fore
SplineSet
-112 -195 m 0,0,1
 -137 -195 -137 -195 -150.5 -178.5 c 128,-1,2
 -164 -162 -164 -162 -164 -131 c 0,3,4
 -164 -100 -164 -100 -150.5 -83.5 c 128,-1,5
 -137 -67 -137 -67 -112 -67 c 0,6,7
 -87 -67 -87 -67 -73.5 -83.5 c 128,-1,8
 -60 -100 -60 -100 -60 -131 c 0,9,10
 -60 -162 -60 -162 -73.5 -178.5 c 128,-1,11
 -87 -195 -87 -195 -112 -195 c 0,0,1
EndSplineSet
EndChar

StartChar: uni0E1E
Encoding: 3614 3614 69
Width: 523
GlyphClass: 2
Flags: W
LayerCount: 2
Fore
SplineSet
105 0 m 1,0,-1
 90.5 274 90.5 274 36 548 c 1,1,-1
 86.5 548 86.5 548 121 548 c 1,2,-1
 151.5 429 151.5 429 145 322 c 2,3,4
 148 292 148 292 149.5 246 c 128,-1,5
 151 200 151 200 155 135 c 1,6,-1
 194.5 126 194.5 126 158 135 c 1,7,8
 164 179 164 179 169.5 213.5 c 128,-1,9
 175 248 175 248 180 276 c 128,-1,10
 185 304 185 304 189 325 c 2,11,-1
 276.5 430.5 276.5 430.5 233 548 c 1,12,-1
 346.5 548 346.5 548 290 548 c 1,13,-1
 417 430.5 417 430.5 334 325 c 2,14,15
 338 304 338 304 343 276 c 128,-1,16
 348 248 348 248 353.5 213.5 c 128,-1,17
 359 179 359 179 365 135 c 1,18,-1
 500 126 500 126 367 135 c 1,19,20
 372 200 372 200 373.5 246 c 128,-1,21
 375 292 375 292 378 322 c 2,22,-1
 543 429 543 429 402 548 c 1,23,-1
 608.5 548 608.5 548 487 548 c 1,24,-1
 604.5 274 604.5 274 419 0 c 1,25,-1
 511.5 0 511.5 0 338 0 c 1,26,-1
 422 149 422 149 281 293 c 2,27,28
 277 317 277 317 272 343.5 c 128,-1,29
 267 370 267 370 263 416 c 1,30,-1
 348 421 348 421 260 416 c 1,31,32
 257 386 257 386 254 366.5 c 128,-1,33
 251 347 251 347 247.5 330.5 c 128,-1,34
 244 314 244 314 241 293 c 2,35,-1
 272 149 272 149 184 0 c 1,36,-1
 183.5 0 183.5 0 105 0 c 1,0,-1
EndSplineSet
EndChar

StartChar: uni0E1C
Encoding: 3612 3612 70
Width: 491
GlyphClass: 2
Flags: W
LayerCount: 2
Fore
SplineSet
68 0 m 1,0,-1
 86 225.5 86 225.5 68 454 c 2,1,2
 68 496 68 496 80 518.5 c 128,-1,3
 92 541 92 541 112.5 549.5 c 128,-1,4
 133 558 133 558 158 558 c 0,5,6
 172 558 172 558 185.5 555.5 c 128,-1,7
 199 553 199 553 209 547 c 1,8,-1
 258.5 512.5 258.5 512.5 198 482 c 1,9,10
 191 485 191 485 185 486.5 c 128,-1,11
 179 488 179 488 174 488 c 0,12,13
 158 488 158 488 152.5 476 c 128,-1,14
 147 464 147 464 147 442 c 2,15,-1
 173 361.5 173 361.5 147 298 c 2,16,17
 147 267 147 267 145.5 233.5 c 128,-1,18
 144 200 144 200 141 153 c 1,19,-1
 171 139 171 139 144 153 c 1,20,21
 158 196 158 196 170 227.5 c 128,-1,22
 182 259 182 259 199 298 c 2,23,-1
 268.5 313 268.5 313 225 358 c 1,24,-1
 323 358 323 358 264 358 c 1,25,-1
 377.5 313 377.5 313 290 300 c 2,26,27
 306 265 306 265 315.5 239.5 c 128,-1,28
 325 214 325 214 332 194 c 128,-1,29
 339 174 339 174 345 153 c 1,30,-1
 475 139 475 139 348 153 c 1,31,32
 345 200 345 200 344 233.5 c 128,-1,33
 343 267 343 267 343 298 c 2,34,-1
 473 416 473 416 343 548 c 1,35,-1
 516.5 548 516.5 548 421 548 c 1,36,-1
 560 274 560 274 421 0 c 1,37,-1
 520.5 0 520.5 0 345 0 c 1,38,-1
 403.5 131 403.5 131 246 266 c 1,39,-1
 324 262 324 262 243 266 c 1,40,-1
 243.5 131 243.5 131 144 0 c 1,41,-1
 125.5 0 125.5 0 68 0 c 1,0,-1
EndSplineSet
EndChar

StartChar: uni0E20
Encoding: 3616 3616 71
Width: 459
GlyphClass: 2
Flags: W
LayerCount: 2
Fore
SplineSet
81 -10 m 0,0,1
 65 -10 65 -10 51.5 -6.5 c 128,-1,2
 38 -3 38 -3 25 4 c 1,3,-1
 24 36 24 36 34 65 c 1,4,5
 39 63 39 63 44 61 c 128,-1,6
 49 59 49 59 55 59 c 0,7,8
 66 59 66 59 71 68.5 c 128,-1,9
 76 78 76 78 76 98 c 2,10,-1
 92 147.5 92 147.5 76 193 c 2,11,12
 76 256 76 256 92 284 c 128,-1,13
 108 312 108 312 137 322 c 1,14,-1
 181.5 322.5 181.5 322.5 138 325 c 1,15,-1
 124.5 345 124.5 345 58 367 c 1,16,-1
 67 382.5 67 382.5 58 401 c 2,17,18
 58 441 58 441 77.5 477 c 128,-1,19
 97 513 97 513 134.5 535.5 c 128,-1,20
 172 558 172 558 226 558 c 0,21,22
 275 558 275 558 313 539 c 128,-1,23
 351 520 351 520 373 478.5 c 128,-1,24
 395 437 395 437 395 371 c 2,25,-1
 522 184.5 522 184.5 395 0 c 1,26,-1
 477.5 0 477.5 0 312 0 c 1,27,-1
 433 180 433 180 312 362 c 2,28,29
 312 430 312 430 287.5 459 c 128,-1,30
 263 488 263 488 225 488 c 0,31,32
 185 488 185 488 164 462 c 128,-1,33
 143 436 143 436 142 396 c 1,34,-1
 215 367 215 367 215 341 c 1,35,-1
 268 316 268 316 208 295 c 1,36,37
 185 295 185 295 171.5 270.5 c 128,-1,38
 158 246 158 246 158 191 c 2,39,-1
 181 142.5 181 142.5 158 92 c 2,40,41
 158 31 158 31 136 10.5 c 128,-1,42
 114 -10 114 -10 81 -10 c 0,0,1
EndSplineSet
EndChar

StartChar: uni0E1B
Encoding: 3611 3611 72
Width: 458
GlyphClass: 2
Flags: W
LayerCount: 2
Fore
SplineSet
229 -10 m 0,0,1
 141 -10 141 -10 102.5 43 c 128,-1,2
 64 96 64 96 64 195 c 2,3,-1
 81 373 81 373 64 548 c 1,4,-1
 125.5 548 125.5 548 146 548 c 1,5,-1
 170 372.5 170 372.5 146 195 c 2,6,7
 146 128 146 128 166 94 c 128,-1,8
 186 60 186 60 229 60 c 0,9,10
 271 60 271 60 291 94 c 128,-1,11
 311 128 311 128 311 195 c 2,12,-1
 434 471 434 471 311 745 c 1,13,-1
 478.5 745 478.5 745 393 745 c 1,14,-1
 523 471.5 523 471.5 393 195 c 2,15,16
 393 96 393 96 354.5 43 c 128,-1,17
 316 -10 316 -10 229 -10 c 0,0,1
EndSplineSet
EndChar

StartChar: uni0E23
Encoding: 3619 3619 73
Width: 376
GlyphClass: 2
Flags: W
LayerCount: 2
Fore
SplineSet
184 -10 m 0,0,1
 143 -10 143 -10 104.5 1.5 c 128,-1,2
 66 13 66 13 37 28 c 1,3,-1
 53 65 53 65 60 96 c 1,4,5
 75 88 75 88 94.5 79.5 c 128,-1,6
 114 71 114 71 136.5 65.5 c 128,-1,7
 159 60 159 60 183 60 c 0,8,9
 217 60 217 60 237 80.5 c 128,-1,10
 257 101 257 101 257 141 c 0,11,12
 257 164 257 164 248 182 c 128,-1,13
 239 200 239 200 221.5 214.5 c 128,-1,14
 204 229 204 229 176 242 c 0,15,16
 134 262 134 262 104.5 284 c 128,-1,17
 75 306 75 306 59.5 337.5 c 128,-1,18
 44 369 44 369 44 416 c 0,19,20
 44 456 44 456 61.5 488 c 128,-1,21
 79 520 79 520 114 539 c 128,-1,22
 149 558 149 558 200 558 c 0,23,24
 237 558 237 558 268 549.5 c 128,-1,25
 299 541 299 541 315 526 c 1,26,-1
 418 488.5 418 488.5 315 455 c 1,27,28
 303 463 303 463 284.5 470.5 c 128,-1,29
 266 478 266 478 244.5 483 c 128,-1,30
 223 488 223 488 201 488 c 0,31,32
 161 488 161 488 144 467.5 c 128,-1,33
 127 447 127 447 127 420 c 0,34,35
 127 397 127 397 136.5 380 c 128,-1,36
 146 363 146 363 166.5 348.5 c 128,-1,37
 187 334 187 334 220 317 c 0,38,39
 256 300 256 300 283 279.5 c 128,-1,40
 310 259 310 259 325 228.5 c 128,-1,41
 340 198 340 198 340 149 c 0,42,43
 340 107 340 107 325.5 71 c 128,-1,44
 311 35 311 35 277 12.5 c 128,-1,45
 243 -10 243 -10 184 -10 c 0,0,1
EndSplineSet
EndChar

StartChar: uni0E24
Encoding: 3620 3620 74
Width: 454
GlyphClass: 2
Flags: W
LayerCount: 2
Fore
SplineSet
308 -200 m 1,0,-1
 432 -50.5 432 -50.5 308 100 c 1,1,-1
 476.5 100 476.5 100 390 100 c 1,2,-1
 521 -50.5 521 -50.5 390 -200 c 1,3,-1
 476.5 -201 476.5 -201 308 -200 c 1,0,-1
151 -10 m 0,4,5
 126 -10 126 -10 106.5 -1.5 c 128,-1,6
 87 7 87 7 75 29.5 c 128,-1,7
 63 52 63 52 63 92 c 2,8,-1
 84 143.5 84 143.5 63 193 c 2,9,10
 63 256 63 256 82 284 c 128,-1,11
 101 312 101 312 132 322 c 1,12,-1
 180.5 322.5 180.5 322.5 133 325 c 1,13,-1
 123.5 345 123.5 345 53 367 c 1,14,-1
 66 382.5 66 382.5 53 401 c 2,15,16
 53 441 53 441 73 477 c 128,-1,17
 93 513 93 513 130.5 535.5 c 128,-1,18
 168 558 168 558 222 558 c 0,19,20
 270 558 270 558 308 539 c 128,-1,21
 346 520 346 520 368 478.5 c 128,-1,22
 390 437 390 437 390 371 c 2,23,-1
 521 184.5 521 184.5 390 0 c 1,24,-1
 476.5 0 476.5 0 308 0 c 1,25,-1
 432 180 432 180 308 362 c 2,26,27
 308 430 308 430 283 459 c 128,-1,28
 258 488 258 488 220 488 c 0,29,30
 181 488 181 488 159.5 462 c 128,-1,31
 138 436 138 436 138 396 c 1,32,-1
 214 367 214 367 210 341 c 1,33,-1
 267 316 267 316 203 295 c 1,34,35
 177 294 177 294 160.5 275.5 c 128,-1,36
 144 257 144 257 144 203 c 2,37,-1
 173 154 173 154 144 103 c 2,38,39
 144 80 144 80 151 70 c 128,-1,40
 158 60 158 60 174 60 c 0,41,42
 180 60 180 60 187 62 c 128,-1,43
 194 64 194 64 199 67 c 1,44,-1
 258.5 37 258.5 37 209 4 c 1,45,46
 196 -4 196 -4 181 -7 c 128,-1,47
 166 -10 166 -10 151 -10 c 0,4,5
EndSplineSet
EndChar

StartChar: uni0E24.short
Encoding: 65554 -1 75
Width: 454
GlyphClass: 2
Flags: W
LayerCount: 2
Fore
SplineSet
308 -174 m 1,0,-1
 432 -37 432 -37 308 100 c 1,1,-1
 476.5 100 476.5 100 390 100 c 1,2,-1
 521 -37 521 -37 390 -174 c 1,3,-1
 476.5 -174 476.5 -174 308 -174 c 1,0,-1
151 -10 m 0,4,5
 126 -10 126 -10 106.5 -1.5 c 128,-1,6
 87 7 87 7 75 29.5 c 128,-1,7
 63 52 63 52 63 92 c 2,8,-1
 84 143.5 84 143.5 63 193 c 2,9,10
 63 256 63 256 82 284 c 128,-1,11
 101 312 101 312 132 322 c 1,12,-1
 180.5 322.5 180.5 322.5 133 325 c 1,13,-1
 123.5 345 123.5 345 53 367 c 1,14,-1
 66 382.5 66 382.5 53 401 c 2,15,16
 53 441 53 441 73 477 c 128,-1,17
 93 513 93 513 130.5 535.5 c 128,-1,18
 168 558 168 558 222 558 c 0,19,20
 270 558 270 558 308 539 c 128,-1,21
 346 520 346 520 368 478.5 c 128,-1,22
 390 437 390 437 390 371 c 2,23,-1
 521 184.5 521 184.5 390 0 c 1,24,-1
 476.5 0 476.5 0 308 0 c 1,25,-1
 432 180 432 180 308 362 c 2,26,27
 308 430 308 430 283 459 c 128,-1,28
 258 488 258 488 220 488 c 0,29,30
 181 488 181 488 159.5 462 c 128,-1,31
 138 436 138 436 138 396 c 1,32,-1
 214 367 214 367 210 341 c 1,33,-1
 267 316 267 316 203 295 c 1,34,35
 177 294 177 294 160.5 275.5 c 128,-1,36
 144 257 144 257 144 203 c 2,37,-1
 173 154 173 154 144 103 c 2,38,39
 144 80 144 80 151 70 c 128,-1,40
 158 60 158 60 174 60 c 0,41,42
 180 60 180 60 187 62 c 128,-1,43
 194 64 194 64 199 67 c 1,44,-1
 258.5 37 258.5 37 209 4 c 1,45,46
 196 -4 196 -4 181 -7 c 128,-1,47
 166 -10 166 -10 151 -10 c 0,4,5
EndSplineSet
EndChar

StartChar: uni0E240E45
Encoding: 65555 -1 76
Width: 695
GlyphClass: 1
Flags: W
LayerCount: 2
Fore
SplineSet
308 -200 m 1,0,-1
 432 75 432 75 308 353 c 2,1,2
 308 428 308 428 283 458 c 128,-1,3
 258 488 258 488 220 488 c 0,4,5
 194 488 194 488 175.5 476 c 128,-1,6
 157 464 157 464 147.5 443.5 c 128,-1,7
 138 423 138 423 138 396 c 1,8,-1
 214 367 214 367 210 341 c 1,9,-1
 267 316 267 316 203 295 c 1,10,11
 177 295 177 295 160.5 271.5 c 128,-1,12
 144 248 144 248 144 193 c 2,13,-1
 173 149 173 149 144 103 c 2,14,15
 144 80 144 80 151 70 c 128,-1,16
 158 60 158 60 173 60 c 0,17,18
 180 60 180 60 187 62 c 128,-1,19
 194 64 194 64 199 67 c 1,20,-1
 258.5 37 258.5 37 209 4 c 1,21,22
 196 -4 196 -4 181 -7 c 128,-1,23
 166 -10 166 -10 151 -10 c 0,24,25
 126 -10 126 -10 106.5 -1.5 c 128,-1,26
 87 7 87 7 75 29.5 c 128,-1,27
 63 52 63 52 63 92 c 2,28,-1
 84 143.5 84 143.5 63 193 c 2,29,30
 63 256 63 256 82 284 c 128,-1,31
 101 312 101 312 132 322 c 1,32,-1
 180.5 322.5 180.5 322.5 133 325 c 1,33,-1
 123.5 345 123.5 345 53 367 c 1,34,-1
 66 382.5 66 382.5 53 401 c 2,35,36
 53 441 53 441 72.5 477 c 128,-1,37
 92 513 92 513 129.5 535.5 c 128,-1,38
 167 558 167 558 219 558 c 0,39,40
 270 558 270 558 303 533.5 c 128,-1,41
 336 509 336 509 353 465 c 1,42,-1
 483.5 466 483.5 466 356 465 c 1,43,44
 371 509 371 509 404.5 533.5 c 128,-1,45
 438 558 438 558 486 558 c 0,46,47
 534 558 534 558 566 536 c 128,-1,48
 598 514 598 514 614.5 472.5 c 128,-1,49
 631 431 631 431 631 370 c 2,50,-1
 861 84 861 84 631 -200 c 1,51,-1
 816.5 -201 816.5 -201 548 -200 c 1,52,-1
 772 79 772 79 548 362 c 2,53,54
 548 433 548 433 526 460.5 c 128,-1,55
 504 488 504 488 470 488 c 256,56,57
 435 488 435 488 412.5 459 c 128,-1,58
 390 430 390 430 390 357 c 2,59,-1
 521 77 521 77 390 -200 c 1,60,-1
 476.5 -201 476.5 -201 308 -200 c 1,0,-1
EndSplineSet
EndChar

StartChar: uni0E30
Encoding: 3632 3632 77
Width: 267
GlyphClass: 1
Flags: W
LayerCount: 2
Fore
SplineSet
122 346 m 2,0,1
 91 346 91 346 72.5 358.5 c 128,-1,2
 54 371 54 371 46 390.5 c 128,-1,3
 38 410 38 410 38 431 c 0,4,5
 38 445 38 445 41.5 461 c 128,-1,6
 45 477 45 477 51 487 c 1,7,-1
 92.5 482 92.5 482 114 475 c 1,8,9
 113 471 113 471 111.5 461.5 c 128,-1,10
 110 452 110 452 110 443 c 0,11,12
 110 430 110 430 115.5 421.5 c 128,-1,13
 121 413 121 413 134 413 c 2,14,-1
 227.5 414 227.5 414 227 413 c 1,15,-1
 299 379 299 379 227 346 c 1,16,-1
 226 344 226 344 122 346 c 2,0,1
122 66 m 2,17,18
 91 66 91 66 72.5 78.5 c 128,-1,19
 54 91 54 91 46 110.5 c 128,-1,20
 38 130 38 130 38 151 c 0,21,22
 38 165 38 165 41.5 181 c 128,-1,23
 45 197 45 197 51 207 c 1,24,-1
 92.5 202 92.5 202 114 195 c 1,25,26
 113 191 113 191 111.5 181.5 c 128,-1,27
 110 172 110 172 110 163 c 0,28,29
 110 150 110 150 115.5 141.5 c 128,-1,30
 121 133 121 133 134 133 c 2,31,-1
 227.5 134 227.5 134 227 133 c 1,32,-1
 299 99 299 99 227 66 c 1,33,-1
 226 64 226 64 122 66 c 2,17,18
EndSplineSet
EndChar

StartChar: uni0E32
Encoding: 3634 3634 78
Width: 324
GlyphClass: 1
Flags: W
LayerCount: 2
Fore
SplineSet
177 0 m 1,0,-1
 236 194.5 236 194.5 177 391 c 2,1,2
 177 441 177 441 162.5 464.5 c 128,-1,3
 148 488 148 488 113 488 c 0,4,5
 88 488 88 488 67 478 c 128,-1,6
 46 468 46 468 27 451 c 1,7,-1
 10 488 10 488 27 528 c 1,8,9
 42 538 42 538 69 548 c 128,-1,10
 96 558 96 558 133 558 c 0,11,12
 171 558 171 558 199.5 543 c 128,-1,13
 228 528 228 528 244 494 c 128,-1,14
 260 460 260 460 260 404 c 2,15,-1
 325 201 325 201 260 0 c 1,16,-1
 280.5 0 280.5 0 177 0 c 1,0,-1
EndSplineSet
EndChar

StartChar: uni0E44
Encoding: 3652 3652 80
Width: 256
GlyphClass: 1
Flags: W
LayerCount: 2
Fore
SplineSet
89 448 m 1,0,-1
 110 537.5 110 537.5 89 630 c 2,1,2
 89 668 89 668 94.5 691.5 c 128,-1,3
 100 715 100 715 108.5 730 c 128,-1,4
 117 745 117 745 126 755 c 1,5,-1
 161.5 754 161.5 754 125 759 c 1,6,-1
 74 756 74 756 8 759 c 1,7,-1
 -1.5 791 -1.5 791 25 825 c 1,8,-1
 151 826 151 826 237 825 c 1,9,-1
 292 791 292 791 237 759 c 1,10,11
 211 759 211 759 191 735 c 128,-1,12
 171 711 171 711 171 647 c 2,13,-1
 199 546 199 546 171 448 c 1,14,-1
 154.5 448 154.5 448 89 448 c 1,0,-1
176 -10 m 0,15,16
 151 -10 151 -10 131 -1.5 c 128,-1,17
 111 7 111 7 100 29.5 c 128,-1,18
 89 52 89 52 89 92 c 2,19,-1
 110 321.5 110 321.5 89 548 c 1,20,-1
 154.5 548 154.5 548 171 548 c 1,21,-1
 199 327 199 327 171 103 c 2,22,23
 171 80 171 80 178 70 c 128,-1,24
 185 60 185 60 199 60 c 0,25,26
 205 60 205 60 212 62 c 128,-1,27
 219 64 219 64 224 67 c 1,28,-1
 285 37.5 285 37.5 234 4 c 1,29,30
 221 -4 221 -4 206 -7 c 128,-1,31
 191 -10 191 -10 176 -10 c 0,15,16
EndSplineSet
EndChar

StartChar: uni0E43
Encoding: 3651 3651 81
Width: 241
GlyphClass: 1
Flags: W
LayerCount: 2
Fore
SplineSet
158 -10 m 0,0,1
 133 -10 133 -10 113 -1.5 c 128,-1,2
 93 7 93 7 82 29.5 c 128,-1,3
 71 52 71 52 71 92 c 2,4,-1
 86 290.5 86 290.5 71 486 c 2,5,6
 71 514 71 514 74 531.5 c 128,-1,7
 77 549 77 549 84.5 566.5 c 128,-1,8
 92 584 92 584 106 610 c 0,9,10
 123 642 123 642 132 662 c 128,-1,11
 141 682 141 682 141 707 c 0,12,13
 141 736 141 736 129 750.5 c 128,-1,14
 117 765 117 765 91 765 c 0,15,16
 70 765 70 765 53.5 755.5 c 128,-1,17
 37 746 37 746 25 737 c 1,18,-1
 19 773 19 773 25 810 c 1,19,20
 35 818 35 818 58 825.5 c 128,-1,21
 81 833 81 833 112 833 c 0,22,23
 163 833 163 833 193.5 803.5 c 128,-1,24
 224 774 224 774 224 714 c 0,25,26
 224 674 224 674 213.5 644.5 c 128,-1,27
 203 615 203 615 189 590 c 0,28,29
 177 568 177 568 169 553.5 c 128,-1,30
 161 539 161 539 157 524 c 128,-1,31
 153 509 153 509 153 484 c 2,32,-1
 175 295 175 295 153 103 c 2,33,34
 153 80 153 80 160 70 c 128,-1,35
 167 60 167 60 180 60 c 0,36,37
 187 60 187 60 194 62 c 128,-1,38
 201 64 201 64 207 67 c 1,39,-1
 261 37.5 261 37.5 216 4 c 1,40,41
 203 -4 203 -4 188 -7 c 128,-1,42
 173 -10 173 -10 158 -10 c 0,0,1
EndSplineSet
EndChar

StartChar: uni0E40
Encoding: 3648 3648 83
Width: 248
GlyphClass: 1
Flags: W
LayerCount: 2
Fore
SplineSet
165 -10 m 0,0,1
 140 -10 140 -10 120 -1.5 c 128,-1,2
 100 7 100 7 89 29.5 c 128,-1,3
 78 52 78 52 78 92 c 2,4,-1
 96 321.5 96 321.5 78 548 c 1,5,-1
 140.5 548 140.5 548 160 548 c 1,6,-1
 185 327 185 327 160 103 c 2,7,8
 160 80 160 80 167 70 c 128,-1,9
 174 60 174 60 188 60 c 0,10,11
 194 60 194 60 201 62 c 128,-1,12
 208 64 208 64 213 67 c 1,13,-1
 271 37.5 271 37.5 223 4 c 1,14,15
 210 -4 210 -4 195 -7 c 128,-1,16
 180 -10 180 -10 165 -10 c 0,0,1
EndSplineSet
EndChar

StartChar: uni0E34
Encoding: 3636 3636 84
Width: 0
GlyphClass: 4
Flags: W
LayerCount: 2
Fore
SplineSet
-514 635 m 1,0,-1
 -382 673 l 1,1,-1
 -321 703 l 1,2,-1
 -89 706 l 1,3,-1
 -70 636 l 1,4,-1
 -514 635 l 1,0,-1
EndSplineSet
EndChar

StartChar: uni0E34.narrow
Encoding: 65556 -1 85
Width: 0
GlyphClass: 4
Flags: W
LayerCount: 2
Fore
SplineSet
-574 635 m 1,0,-1
 -438 673 l 1,1,-1
 -383 703 l 1,2,-1
 -228 706 l 1,3,-1
 -184 636 l 1,4,-1
 -574 635 l 1,0,-1
EndSplineSet
EndChar

StartChar: uni0E35
Encoding: 3637 3637 86
Width: 0
GlyphClass: 4
Flags: W
LayerCount: 2
Fore
SplineSet
-514 635 m 1,0,-1
 -382 673 l 1,1,-1
 -321 703 l 1,2,-1
 -89 706 l 1,3,-1
 -70 636 l 1,4,-1
 -514 635 l 1,0,-1
-172 674 m 1,5,-1
 -144 786 l 1,6,-1
 -88 787 l 1,7,-1
 -70 673 l 1,8,-1
 -172 674 l 1,5,-1
EndSplineSet
EndChar

StartChar: uni0E35.narrow
Encoding: 65557 -1 87
Width: 0
GlyphClass: 4
Flags: W
LayerCount: 2
Fore
SplineSet
-574 635 m 1,0,-1
 -438 673 l 1,1,-1
 -383 703 l 1,2,-1
 -228 705 l 1,3,-1
 -184 636 l 1,4,-1
 -574 635 l 1,0,-1
-311 674 m 1,5,-1
 -256 782 l 1,6,-1
 -228 784 l 1,7,-1
 -184 673 l 1,8,-1
 -311 674 l 1,5,-1
EndSplineSet
EndChar

StartChar: uni0E42
Encoding: 3650 3650 88
Width: 259
GlyphClass: 1
Flags: W
LayerCount: 2
Fore
SplineSet
90 448 m 1,0,-1
 110 546 110 546 90 647 c 2,1,2
 90 707 90 707 71.5 733 c 128,-1,3
 53 759 53 759 22 759 c 1,4,-1
 9 775 9 775 22 795 c 1,5,-1
 46 810 46 810 83 825 c 1,6,-1
 216.5 826 216.5 826 269 825 c 1,7,-1
 350 791 350 791 269 759 c 1,8,-1
 248.5 756 248.5 756 136 759 c 1,9,-1
 146.5 754 146.5 754 135 755 c 1,10,11
 152 740 152 740 162 709.5 c 128,-1,12
 172 679 172 679 172 630 c 2,13,-1
 199 537.5 199 537.5 172 448 c 1,14,-1
 154.5 448 154.5 448 90 448 c 1,0,-1
177 -10 m 0,15,16
 152 -10 152 -10 132 -1.5 c 128,-1,17
 112 7 112 7 101 29.5 c 128,-1,18
 90 52 90 52 90 92 c 2,19,-1
 110 321.5 110 321.5 90 548 c 1,20,-1
 154.5 548 154.5 548 172 548 c 1,21,-1
 199 327 199 327 172 103 c 2,22,23
 172 80 172 80 179 70 c 128,-1,24
 186 60 186 60 200 60 c 0,25,26
 206 60 206 60 213 62 c 128,-1,27
 220 64 220 64 225 67 c 1,28,-1
 285 37.5 285 37.5 235 4 c 1,29,30
 222 -4 222 -4 207 -7 c 128,-1,31
 192 -10 192 -10 177 -10 c 0,15,16
EndSplineSet
EndChar

StartChar: uni0E38
Encoding: 3640 3640 89
Width: 0
GlyphClass: 4
Flags: W
LayerCount: 2
Fore
SplineSet
-142 -261 m 1,0,-1
 -169 -208 -169 -208 -142 -153 c 2,1,2
 -142 -128 -142 -128 -157 -128 c 0,3,4
 -161 -128 -161 -128 -165 -129 c 128,-1,5
 -169 -130 -169 -130 -172 -132 c 1,6,-1
 -215.5 -104 -215.5 -104 -177 -73 c 1,7,8
 -166 -68 -166 -68 -152 -66 c 128,-1,9
 -138 -64 -138 -64 -125 -64 c 0,10,11
 -96 -64 -96 -64 -83 -80 c 128,-1,12
 -70 -96 -70 -96 -70 -125 c 2,13,-1
 -90 -193.5 -90 -193.5 -70 -261 c 1,14,-1
 -129.5 -261 -129.5 -261 -142 -261 c 1,0,-1
EndSplineSet
EndChar

StartChar: uni0E36
Encoding: 3638 3638 91
Width: 0
GlyphClass: 4
Flags: W
LayerCount: 2
Fore
SplineSet
-382 636 m 1,0,-1
 -514 654.5 -514 654.5 -382 673 c 1,1,-1
 -477.5 690 -477.5 690 -321 703 c 1,2,-1
 -341.5 706 -341.5 706 -177 703 c 1,3,-1
 -248.5 693.5 -248.5 693.5 -191 680 c 1,4,5
 -194 691 -194 691 -195 700.5 c 128,-1,6
 -196 710 -196 710 -196 716 c 0,7,8
 -196 753 -196 753 -177.5 776 c 128,-1,9
 -159 799 -159 799 -128 799 c 0,10,11
 -95 799 -95 799 -76.5 775.5 c 128,-1,12
 -58 752 -58 752 -58 716 c 0,13,14
 -58 682 -58 682 -75 659 c 128,-1,15
 -92 636 -92 636 -125 636 c 2,16,-1
 -340 635 -340 635 -382 636 c 1,0,-1
-128 678 m 0,17,18
 -113 678 -113 678 -105 689.5 c 128,-1,19
 -97 701 -97 701 -97 717 c 0,20,21
 -97 734 -97 734 -105.5 745 c 128,-1,22
 -114 756 -114 756 -128 756 c 256,23,24
 -142 756 -142 756 -150 745.5 c 128,-1,25
 -158 735 -158 735 -158 718 c 0,26,27
 -158 702 -158 702 -150.5 690 c 128,-1,28
 -143 678 -143 678 -128 678 c 0,17,18
EndSplineSet
EndChar

StartChar: uni0E36.narrow
Encoding: 65559 -1 92
Width: 0
GlyphClass: 4
Flags: W
LayerCount: 2
Fore
SplineSet
-438 636 m 1,0,-1
 -574 654.5 -574 654.5 -438 673 c 1,1,-1
 -538 689.5 -538 689.5 -383 703 c 1,2,-1
 -434.5 705 -434.5 705 -285 703 c 1,3,-1
 -373.5 693 -373.5 693 -298 680 c 1,4,5
 -301 691 -301 691 -302 700.5 c 128,-1,6
 -303 710 -303 710 -303 717 c 0,7,8
 -303 756 -303 756 -285 779.5 c 128,-1,9
 -267 803 -267 803 -236 803 c 0,10,11
 -204 803 -204 803 -185.5 779.5 c 128,-1,12
 -167 756 -167 756 -167 718 c 0,13,14
 -167 683 -167 683 -183.5 659.5 c 128,-1,15
 -200 636 -200 636 -233 636 c 2,16,-1
 -431.5 635 -431.5 635 -438 636 c 1,0,-1
-235 678 m 0,17,18
 -221 678 -221 678 -213 689.5 c 128,-1,19
 -205 701 -205 701 -205 719 c 0,20,21
 -205 738 -205 738 -213.5 749 c 128,-1,22
 -222 760 -222 760 -237 760 c 0,23,24
 -250 760 -250 760 -258 749 c 128,-1,25
 -266 738 -266 738 -266 719 c 0,26,27
 -266 702 -266 702 -258.5 690 c 128,-1,28
 -251 678 -251 678 -235 678 c 0,17,18
EndSplineSet
EndChar

StartChar: uni0E37
Encoding: 3639 3639 93
Width: 0
GlyphClass: 4
Flags: W
LayerCount: 2
Fore
SplineSet
-514 635 m 1,0,-1
 -382 673 l 1,1,-1
 -321 703 l 1,2,-1
 -89 706 l 1,3,-1
 -70 636 l 1,4,-1
 -514 635 l 1,0,-1
-308 674 m 1,5,-1
 -234 786 l 1,6,-1
 -234 787 l 1,7,-1
 -175 673 l 1,8,-1
 -308 674 l 1,5,-1
-162 674 m 1,9,-1
 -128 786 l 1,10,-1
 -89 787 l 1,11,-1
 -70 673 l 1,12,-1
 -162 674 l 1,9,-1
EndSplineSet
EndChar

StartChar: uni0E37.narrow
Encoding: 65560 -1 94
Width: 0
GlyphClass: 4
Flags: W
LayerCount: 2
Fore
SplineSet
-574 635 m 1,0,-1
 -438 673 l 1,1,-1
 -383 703 l 1,2,-1
 -226 705 l 1,3,-1
 -184 636 l 1,4,-1
 -574 635 l 1,0,-1
-432 689 m 1,5,-1
 -332 782 l 1,6,-1
 -360 784 l 1,7,-1
 -278 687 l 1,8,-1
 -432 689 l 1,5,-1
-299 689 m 1,9,-1
 -238 782 l 1,10,-1
 -227 784 l 1,11,-1
 -184 687 l 1,12,-1
 -299 689 l 1,9,-1
EndSplineSet
EndChar

StartChar: uni0E39
Encoding: 3641 3641 95
Width: 0
GlyphClass: 4
Flags: W
LayerCount: 2
Fore
SplineSet
-170 -265 m 256,0,1
 -221 -265 -221 -265 -246 -239.5 c 128,-1,2
 -271 -214 -271 -214 -271 -166 c 2,3,-1
 -350 -158.5 -350 -158.5 -271 -149 c 2,4,5
 -271 -132 -271 -132 -277 -128.5 c 128,-1,6
 -283 -125 -283 -125 -294 -129 c 1,7,-1
 -385 -100 -385 -100 -298 -70 c 1,8,9
 -289 -66 -289 -66 -276 -65 c 128,-1,10
 -263 -64 -263 -64 -256 -64 c 0,11,12
 -228 -64 -228 -64 -216 -80 c 128,-1,13
 -204 -96 -204 -96 -204 -125 c 2,14,-1
 -273 -142 -273 -142 -204 -160 c 2,15,16
 -204 -180 -204 -180 -197 -193 c 128,-1,17
 -190 -206 -190 -206 -172 -206 c 0,18,19
 -153 -206 -153 -206 -146.5 -193 c 128,-1,20
 -140 -180 -140 -180 -140 -160 c 2,21,-1
 -167 -113 -167 -113 -140 -67 c 1,22,-1
 -128 -67 -128 -67 -70 -67 c 1,23,-1
 -89 -115.5 -89 -115.5 -70 -164 c 2,24,25
 -70 -213 -70 -213 -95 -239 c 128,-1,26
 -120 -265 -120 -265 -170 -265 c 256,0,1
EndSplineSet
EndChar

StartChar: uni0E57
Encoding: 3671 3671 97
Width: 540
GlyphClass: 1
Flags: W
LayerCount: 2
Fore
SplineSet
187 336 m 1,0,1
 185 369 185 369 179 383 c 128,-1,2
 173 397 173 397 162 397 c 0,3,4
 149 397 149 397 141 380 c 128,-1,5
 133 363 133 363 130 330 c 128,-1,6
 127 297 127 297 127 248 c 0,7,8
 127 149 127 149 139 103.5 c 128,-1,9
 151 58 151 58 180 58 c 0,10,11
 185 58 185 58 191.5 59.5 c 128,-1,12
 198 61 198 61 204 65 c 1,13,-1
 273 34.5 273 34.5 213 1 c 1,14,15
 203 -3 203 -3 189.5 -6.5 c 128,-1,16
 176 -10 176 -10 162 -10 c 0,17,18
 120 -10 120 -10 95 22.5 c 128,-1,19
 70 55 70 55 59 112 c 128,-1,20
 48 169 48 169 48 244 c 0,21,22
 48 306 48 306 54.5 348.5 c 128,-1,23
 61 391 61 391 73.5 416.5 c 128,-1,24
 86 442 86 442 104 453.5 c 128,-1,25
 122 465 122 465 145 465 c 0,26,27
 165 465 165 465 180.5 454 c 128,-1,28
 196 443 196 443 205 414 c 1,29,-1
 273.5 414 273.5 414 207 414 c 1,30,31
 213 434 213 434 223.5 445 c 128,-1,32
 234 456 234 456 247 460.5 c 128,-1,33
 260 465 260 465 274 465 c 0,34,35
 309 465 309 465 330 440.5 c 128,-1,36
 351 416 351 416 351 353 c 2,37,-1
 474 213 474 213 351 71 c 1,38,39
 370 71 370 71 382.5 82 c 128,-1,40
 395 93 395 93 402 117.5 c 128,-1,41
 409 142 409 142 409 183 c 2,42,-1
 565 384.5 565 384.5 409 584 c 1,43,-1
 608 584 608 584 486 584 c 1,44,-1
 651 383 651 383 486 179 c 2,45,46
 486 128 486 128 473 93.5 c 128,-1,47
 460 59 460 59 439 38.5 c 128,-1,48
 418 18 418 18 392 9 c 128,-1,49
 366 0 366 0 340 0 c 2,50,-1
 422.5 0 422.5 0 276 0 c 1,51,-1
 389 170 389 170 276 343 c 2,52,53
 276 374 276 374 269 385.5 c 128,-1,54
 262 397 262 397 251 397 c 0,55,56
 238 397 238 397 231.5 382.5 c 128,-1,57
 225 368 225 368 223 336 c 1,58,-1
 273 334 273 334 187 336 c 1,0,1
EndSplineSet
EndChar

StartChar: uni0E56
Encoding: 3670 3670 98
Width: 391
GlyphClass: 1
Flags: W
LayerCount: 2
Fore
SplineSet
189 -10 m 0,0,1
 148 -10 148 -10 114.5 7 c 128,-1,2
 81 24 81 24 59 63 c 1,3,-1
 97.5 92 97.5 92 111 116 c 1,4,5
 125 91 125 91 142 75 c 128,-1,6
 159 59 159 59 186 59 c 0,7,8
 227 59 227 59 245 101.5 c 128,-1,9
 263 144 263 144 263 229 c 0,10,11
 263 319 263 319 244.5 357.5 c 128,-1,12
 226 396 226 396 191 396 c 0,13,14
 165 396 165 396 147.5 376.5 c 128,-1,15
 130 357 130 357 128 317 c 1,16,-1
 118.5 315 118.5 315 72 317 c 1,17,-1
 52 449.5 52 449.5 24 584 c 1,18,-1
 56 584 56 584 95 584 c 1,19,-1
 125 485.5 125 485.5 129 386 c 1,20,-1
 139 387 139 387 110 386 c 1,21,22
 121 429 121 429 146.5 447 c 128,-1,23
 172 465 172 465 206 465 c 0,24,25
 277 465 277 465 310 399.5 c 128,-1,26
 343 334 343 334 343 226 c 0,27,28
 343 109 343 109 305.5 49.5 c 128,-1,29
 268 -10 268 -10 189 -10 c 0,0,1
EndSplineSet
EndChar

StartChar: uni0E29
Encoding: 3625 3625 99
Width: 485
GlyphClass: 2
Flags: W
LayerCount: 2
Fore
SplineSet
234 -10 m 0,0,1
 173 -10 173 -10 135.5 14.5 c 128,-1,2
 98 39 98 39 81 86 c 128,-1,3
 64 133 64 133 64 200 c 2,4,-1
 81 375.5 81 375.5 64 548 c 1,5,-1
 125.5 548 125.5 548 146 548 c 1,6,-1
 170 375 170 375 146 200 c 2,7,8
 146 129 146 129 167 94.5 c 128,-1,9
 188 60 188 60 235 60 c 256,10,11
 282 60 282 60 302.5 94.5 c 128,-1,12
 323 129 323 129 323 200 c 2,13,-1
 448 375 448 375 323 548 c 1,14,-1
 492.5 548 492.5 548 405 548 c 1,15,-1
 537 375.5 537 375.5 405 200 c 2,16,17
 405 133 405 133 388 86 c 128,-1,18
 371 39 371 39 333.5 14.5 c 128,-1,19
 296 -10 296 -10 234 -10 c 0,0,1
278 227 m 2,20,21
 247 227 247 227 229 239.5 c 128,-1,22
 211 252 211 252 203.5 271.5 c 128,-1,23
 196 291 196 291 196 312 c 0,24,25
 196 326 196 326 199 342 c 128,-1,26
 202 358 202 358 208 368 c 1,27,-1
 310 364.5 310 364.5 264 356 c 1,28,29
 263 352 263 352 261.5 343.5 c 128,-1,30
 260 335 260 335 260 327 c 0,31,32
 260 314 260 314 265.5 303 c 128,-1,33
 271 292 271 292 283 292 c 2,34,-1
 487.5 294 487.5 294 448 292 c 1,35,-1
 601 260 601 260 448 227 c 1,36,-1
 485.5 226 485.5 226 278 227 c 2,20,21
EndSplineSet
EndChar

StartChar: uni0E28
Encoding: 3624 3624 100
Width: 476
GlyphClass: 2
Flags: W
LayerCount: 2
Fore
SplineSet
64 0 m 1,0,-1
 81 175 81 175 64 353 c 2,1,2
 64 452 64 452 104.5 505 c 128,-1,3
 145 558 145 558 234 558 c 0,4,5
 273 558 273 558 303 545 c 128,-1,6
 333 532 333 532 349 500 c 1,7,8
 378 482 378 482 390 443.5 c 128,-1,9
 402 405 402 405 402 352 c 2,10,-1
 533 175 533 175 402 0 c 1,11,-1
 488.5 0 488.5 0 320 0 c 1,12,-1
 444 175 444 175 320 353 c 2,13,14
 320 421 320 421 298.5 454.5 c 128,-1,15
 277 488 277 488 233 488 c 256,16,17
 189 488 189 488 167.5 454.5 c 128,-1,18
 146 421 146 421 146 353 c 2,19,-1
 170 294.5 170 294.5 146 239 c 1,20,-1
 171.5 238.5 171.5 238.5 148 238 c 1,21,22
 163 277 163 277 184 289.5 c 128,-1,23
 205 302 205 302 242 302 c 2,24,-1
 333.5 302 333.5 302 263 302 c 1,25,-1
 350 265.5 350 265.5 263 232 c 1,26,-1
 333.5 229 333.5 229 242 232 c 2,27,28
 203 232 203 232 182 215 c 128,-1,29
 161 198 161 198 153.5 170.5 c 128,-1,30
 146 143 146 143 146 109 c 2,31,-1
 170 53 170 53 146 0 c 1,32,-1
 125.5 0 125.5 0 64 0 c 1,0,-1
351 474 m 1,33,-1
 441 494.5 441 494.5 305 519 c 1,34,35
 326 522 326 522 341.5 538 c 128,-1,36
 357 554 357 554 357 584 c 1,37,-1
 531.5 584 531.5 584 433 584 c 1,38,39
 433 553 433 553 423 530 c 128,-1,40
 413 507 413 507 395 493 c 128,-1,41
 377 479 377 479 351 474 c 1,33,-1
EndSplineSet
EndChar

StartChar: uni0E0B
Encoding: 3595 3595 101
Width: 431
GlyphClass: 2
Flags: W
LayerCount: 2
Fore
SplineSet
215 -10 m 0,0,1
 141 -10 141 -10 103 35 c 128,-1,2
 65 80 65 80 65 171 c 2,3,-1
 82 204.5 82 204.5 65 238 c 2,4,5
 65 297 65 297 78 329.5 c 128,-1,6
 91 362 91 362 110 392 c 0,7,8
 121 409 121 409 128.5 423 c 128,-1,9
 136 437 136 437 137 453 c 1,10,-1
 185.5 451 185.5 451 135 455 c 1,11,12
 128 446 128 446 119 441 c 128,-1,13
 110 436 110 436 99 436 c 0,14,15
 73 436 73 436 56.5 460 c 128,-1,16
 40 484 40 484 40 529 c 2,17,-1
 44 537.5 44 537.5 40 548 c 1,18,-1
 83 548 83 548 105 548 c 1,19,20
 105 518 105 518 110 504 c 128,-1,21
 115 490 115 490 126 490 c 0,22,23
 133 490 133 490 141 494.5 c 128,-1,24
 149 499 149 499 156 507 c 1,25,-1
 208.5 527.5 208.5 527.5 168 548 c 1,26,-1
 242.5 548 242.5 548 211 548 c 1,27,-1
 267 525.5 267 525.5 211 506 c 2,28,29
 211 476 211 476 210 454 c 128,-1,30
 209 432 209 432 203 411.5 c 128,-1,31
 197 391 197 391 183 363 c 0,32,33
 173 344 173 344 165 328.5 c 128,-1,34
 157 313 157 313 152 294 c 128,-1,35
 147 275 147 275 147 244 c 2,36,-1
 171 210.5 171 210.5 147 176 c 2,37,38
 147 127 147 127 156 102 c 128,-1,39
 165 77 165 77 180.5 68 c 128,-1,40
 196 59 196 59 215 59 c 0,41,42
 250 59 250 59 267 83 c 128,-1,43
 284 107 284 107 284 156 c 2,44,-1
 384 229 384 229 284 300 c 2,45,46
 284 338 284 338 273 358 c 128,-1,47
 262 378 262 378 238 378 c 2,48,-1
 309 375 309 375 235 378 c 1,49,-1
 307 403.5 307 403.5 235 432 c 1,50,-1
 309.5 432 309.5 432 238 432 c 2,51,52
 264 432 264 432 275 451.5 c 128,-1,53
 286 471 286 471 289 498 c 128,-1,54
 292 525 292 525 292 548 c 1,55,-1
 438.5 548 438.5 548 374 548 c 1,56,57
 374 496 374 496 363.5 460 c 128,-1,58
 353 424 353 424 322 407 c 1,59,-1
 411 404 411 404 322 403 c 1,60,61
 348 392 348 392 357 363 c 128,-1,62
 366 334 366 334 366 291 c 2,63,-1
 473 222 473 222 366 151 c 2,64,65
 366 75 366 75 327.5 32.5 c 128,-1,66
 289 -10 289 -10 215 -10 c 0,0,1
EndSplineSet
EndChar

StartChar: uni0E2A
Encoding: 3626 3626 102
Width: 436
GlyphClass: 2
Flags: W
LayerCount: 2
Fore
SplineSet
289 0 m 1,0,-1
 402 182.5 402 182.5 289 366 c 2,1,2
 289 432 289 432 269.5 460 c 128,-1,3
 250 488 250 488 206 488 c 0,4,5
 170 488 170 488 136.5 475 c 128,-1,6
 103 462 103 462 75 438 c 1,7,-1
 92 475.5 92 475.5 75 517 c 1,8,9
 95 532 95 532 131.5 545 c 128,-1,10
 168 558 168 558 214 558 c 0,11,12
 252 558 252 558 280.5 545.5 c 128,-1,13
 309 533 309 533 322 503 c 1,14,15
 348 487 348 487 359.5 453 c 128,-1,16
 371 419 371 419 371 372 c 2,17,-1
 490 185 490 185 371 0 c 1,18,-1
 446 0 446 0 289 0 c 1,0,-1
170 -10 m 0,19,20
 108 -10 108 -10 75 30.5 c 128,-1,21
 42 71 42 71 42 147 c 0,22,23
 42 230 42 230 83.5 275.5 c 128,-1,24
 125 321 125 321 218 328 c 2,25,-1
 363 331.5 363 331.5 303 335 c 1,26,-1
 420 298 420 298 303 264 c 1,27,-1
 369 257.5 369 257.5 228 257 c 2,28,29
 170 252 170 252 147 225.5 c 128,-1,30
 124 199 124 199 124 149 c 0,31,32
 124 102 124 102 141.5 81 c 128,-1,33
 159 60 159 60 189 60 c 0,34,35
 200 60 200 60 209.5 62.5 c 128,-1,36
 219 65 219 65 227 69 c 1,37,-1
 312 37.5 312 37.5 236 4 c 1,38,39
 223 -3 223 -3 205.5 -6.5 c 128,-1,40
 188 -10 188 -10 170 -10 c 0,19,20
319 474 m 1,41,-1
 400 494.5 400 494.5 274 519 c 1,42,43
 295 522 295 522 310 538 c 128,-1,44
 325 554 325 554 326 584 c 1,45,-1
 490.5 584 490.5 584 401 584 c 1,46,47
 401 553 401 553 391.5 530 c 128,-1,48
 382 507 382 507 363.5 493 c 128,-1,49
 345 479 345 479 319 474 c 1,41,-1
EndSplineSet
EndChar

StartChar: uni0E4C
Encoding: 3660 3660 104
Width: 0
GlyphClass: 4
Flags: W
LayerCount: 2
Fore
SplineSet
-193 606 m 1,0,1
 -198 617 -198 617 -201.5 634 c 128,-1,2
 -205 651 -205 651 -205 667 c 0,3,4
 -205 688 -205 688 -198 706.5 c 128,-1,5
 -191 725 -191 725 -174 736.5 c 128,-1,6
 -157 748 -157 748 -126 748 c 2,7,-1
 -95.5 751 -95.5 751 -27 748 c 1,8,-1
 -27 682 l 1,9,-1
 -101 682 l 2,10,11
 -115 682 -115 682 -123 674.5 c 128,-1,12
 -131 667 -131 667 -131 649 c 0,13,14
 -131 642 -131 642 -129.5 634 c 128,-1,15
 -128 626 -128 626 -125 618 c 1,16,-1
 -214.5 612 -214.5 612 -193 606 c 1,0,1
EndSplineSet
EndChar

StartChar: uni0E4C.narrow
Encoding: 65562 -1 105
Width: 0
GlyphClass: 4
Flags: W
LayerCount: 2
Fore
SplineSet
-344 606 m 1,0,1
 -349 617 -349 617 -352.5 634 c 128,-1,2
 -356 651 -356 651 -356 667 c 0,3,4
 -356 699 -356 699 -338.5 723.5 c 128,-1,5
 -321 748 -321 748 -275 748 c 2,6,-1
 -293.5 751 -293.5 751 -184 748 c 1,7,-1
 -226 716.5 -226 716.5 -184 682 c 1,8,-1
 -282 682 -282 682 -252 682 c 2,9,10
 -266 682 -266 682 -274 674.5 c 128,-1,11
 -282 667 -282 667 -282 649 c 0,12,13
 -282 635 -282 635 -277 618 c 1,14,-1
 -412 612 -412 612 -344 606 c 1,0,1
EndSplineSet
EndChar

StartChar: uni0E4C.small
Encoding: 65563 -1 106
Width: 0
GlyphClass: 4
Flags: W
LayerCount: 2
Fore
SplineSet
-171 816 m 1,0,1
 -177 827 -177 827 -180.5 844 c 128,-1,2
 -184 861 -184 861 -184 878 c 0,3,4
 -184 899 -184 899 -176.5 917 c 128,-1,5
 -169 935 -169 935 -149 946.5 c 128,-1,6
 -129 958 -129 958 -94 958 c 2,7,-1
 -69.5 963 -69.5 963 -11 958 c 1,8,-1
 -7 929 -7 929 -11 893 c 1,9,-1
 -58.5 895 -58.5 895 -81 893 c 2,10,11
 -97 893 -97 893 -105.5 885 c 128,-1,12
 -114 877 -114 877 -114 859 c 0,13,14
 -114 852 -114 852 -112.5 844 c 128,-1,15
 -111 836 -111 836 -108 828 c 1,16,-1
 -185 823.5 -185 823.5 -171 816 c 1,0,1
EndSplineSet
EndChar

StartChar: uni0E11
Encoding: 3601 3601 107
Width: 472
GlyphClass: 2
Flags: W
LayerCount: 2
Fore
SplineSet
75 0 m 1,0,-1
 98 107 98 107 75 214 c 2,1,2
 75 257 75 257 77.5 286.5 c 128,-1,3
 80 316 80 316 86.5 338 c 128,-1,4
 93 360 93 360 104 380 c 0,5,6
 119 406 119 406 125.5 417.5 c 128,-1,7
 132 429 132 429 134.5 436 c 128,-1,8
 137 443 137 443 137 453 c 1,9,-1
 185.5 451 185.5 451 135 455 c 1,10,11
 128 446 128 446 119 441 c 128,-1,12
 110 436 110 436 99 436 c 0,13,14
 73 436 73 436 56.5 460 c 128,-1,15
 40 484 40 484 40 529 c 2,16,-1
 44 537.5 44 537.5 40 548 c 1,17,-1
 83 548 83 548 103 548 c 1,18,19
 103 516 103 516 108.5 503 c 128,-1,20
 114 490 114 490 126 490 c 0,21,22
 132 490 132 490 138.5 493.5 c 128,-1,23
 145 497 145 497 150 507 c 2,24,-1
 200.5 527.5 200.5 527.5 163 548 c 1,25,-1
 233 548 233 548 204 548 c 1,26,-1
 256 511.5 256 511.5 204 475 c 1,27,-1
 258 475 258 475 207 475 c 1,28,29
 227 525 227 525 253 541.5 c 128,-1,30
 279 558 279 558 310 558 c 0,31,32
 361 558 361 558 384.5 516.5 c 128,-1,33
 408 475 408 475 408 411 c 2,34,-1
 545 206 545 206 408 0 c 1,35,-1
 500.5 0 500.5 0 326 0 c 1,36,-1
 456 197.5 456 197.5 326 398 c 2,37,38
 326 444 326 444 315 465.5 c 128,-1,39
 304 487 304 487 283 487 c 0,40,41
 261 487 261 487 241 463.5 c 128,-1,42
 221 440 221 440 195 388 c 0,43,44
 181 360 181 360 173 337 c 128,-1,45
 165 314 165 314 161.5 285 c 128,-1,46
 158 256 158 256 158 210 c 2,47,-1
 187 105 187 105 158 0 c 1,48,-1
 142.5 0 142.5 0 75 0 c 1,0,-1
EndSplineSet
EndChar

StartChar: uni0E12
Encoding: 3602 3602 108
Width: 673
GlyphClass: 2
Flags: W
LayerCount: 2
Fore
SplineSet
203 -10 m 0,0,1
 144 -10 144 -10 110.5 26.5 c 128,-1,2
 77 63 77 63 64 129 c 128,-1,3
 51 195 51 195 51 281 c 0,4,5
 51 384 51 384 64.5 444.5 c 128,-1,6
 78 505 78 505 103 531.5 c 128,-1,7
 128 558 128 558 164 558 c 0,8,9
 187 558 187 558 205 546 c 128,-1,10
 223 534 223 534 231 507 c 1,11,-1
 308 506 308 506 234 507 c 1,12,13
 242 535 242 535 262 546.5 c 128,-1,14
 282 558 282 558 305 558 c 0,15,16
 348 558 348 558 372.5 524 c 128,-1,17
 397 490 397 490 397 419 c 2,18,-1
 528 323 528 323 397 225 c 2,19,20
 397 176 397 176 407.5 138.5 c 128,-1,21
 418 101 418 101 436.5 80.5 c 128,-1,22
 455 60 455 60 480 60 c 0,23,24
 507 60 507 60 524 87.5 c 128,-1,25
 541 115 541 115 541 176 c 2,26,-1
 762 363.5 762 363.5 541 548 c 1,27,-1
 806.5 548 806.5 548 624 548 c 1,28,-1
 851 360.5 851 360.5 624 172 c 2,29,30
 624 106 624 106 610 66 c 128,-1,31
 596 26 596 26 570 8 c 128,-1,32
 544 -10 544 -10 508 -10 c 0,33,34
 462 -10 462 -10 433 17 c 128,-1,35
 404 44 404 44 391 87 c 1,36,-1
 519 87 519 87 387 87 c 1,37,-1
 514.5 43.5 514.5 43.5 380 0 c 1,38,-1
 475.5 0 475.5 0 315 0 c 1,39,-1
 439 208.5 439 208.5 315 420 c 2,40,41
 315 459 315 459 306.5 473.5 c 128,-1,42
 298 488 298 488 284 488 c 0,43,44
 269 488 269 488 261 473.5 c 128,-1,45
 253 459 253 459 251 427 c 1,46,-1
 306.5 424 306.5 424 211 427 c 1,47,48
 209 463 209 463 199.5 475.5 c 128,-1,49
 190 488 190 488 179 488 c 0,50,51
 164 488 164 488 154 469.5 c 128,-1,52
 144 451 144 451 138.5 406.5 c 128,-1,53
 133 362 133 362 133 284 c 0,54,55
 133 212 133 212 139.5 162 c 128,-1,56
 146 112 146 112 164 86 c 128,-1,57
 182 60 182 60 215 60 c 0,58,59
 226 60 226 60 234 62.5 c 128,-1,60
 242 65 242 65 249 68 c 1,61,-1
 343.5 37 343.5 37 258 3 c 1,62,63
 247 -4 247 -4 233 -7 c 128,-1,64
 219 -10 219 -10 203 -10 c 0,0,1
EndSplineSet
EndChar

StartChar: uni0E17
Encoding: 3607 3607 109
Width: 462
GlyphClass: 2
Flags: W
LayerCount: 2
Fore
SplineSet
67 0 m 1,0,-1
 84 274 84 274 67 548 c 1,1,-1
 115 548 115 548 126 548 c 1,2,-1
 154 504.5 154 504.5 139 461 c 1,3,-1
 164 461 164 461 143 461 c 1,4,5
 155 507 155 507 186 532.5 c 128,-1,6
 217 558 217 558 263 558 c 0,7,8
 307 558 307 558 337 538 c 128,-1,9
 367 518 367 518 382.5 476 c 128,-1,10
 398 434 398 434 398 368 c 2,11,-1
 528 183 528 183 398 0 c 1,12,-1
 483.5 0 483.5 0 316 0 c 1,13,-1
 439 180.5 439 180.5 316 364 c 2,14,15
 316 425 316 425 297 456.5 c 128,-1,16
 278 488 278 488 241 488 c 0,17,18
 212 488 212 488 191.5 465.5 c 128,-1,19
 171 443 171 443 160 405.5 c 128,-1,20
 149 368 149 368 149 322 c 2,21,-1
 173 158.5 173 158.5 149 0 c 1,22,-1
 128.5 0 128.5 0 67 0 c 1,0,-1
EndSplineSet
EndChar

StartChar: uni0E10
Encoding: 3600 3600 110
Width: 417
GlyphClass: 2
Flags: W
LayerCount: 2
Fore
SplineSet
103 0 m 1,0,-1
 143 122 143 122 103 246 c 1,1,-1
 105 244 105 244 56 246 c 1,2,-1
 67 279 67 279 56 313 c 1,3,-1
 147.5 314 147.5 314 180 313 c 1,4,-1
 228 193 228 193 180 68 c 1,5,-1
 234.5 72 234.5 72 187 68 c 2,6,7
 215 68 215 68 234 88.5 c 128,-1,8
 253 109 253 109 263 154.5 c 128,-1,9
 273 200 273 200 273 276 c 256,10,11
 273 352 273 352 261 398.5 c 128,-1,12
 249 445 249 445 224 466.5 c 128,-1,13
 199 488 199 488 159 488 c 0,14,15
 124 488 124 488 93.5 475.5 c 128,-1,16
 63 463 63 463 37 437 c 1,17,-1
 34 474.5 34 474.5 37 516 c 1,18,19
 59 534 59 534 94.5 546 c 128,-1,20
 130 558 130 558 173 558 c 0,21,22
 218 558 218 558 250 542 c 128,-1,23
 282 526 282 526 296 494 c 1,24,25
 327 461 327 461 342 405 c 128,-1,26
 357 349 357 349 357 275 c 0,27,28
 357 188 357 188 339 126.5 c 128,-1,29
 321 65 321 65 281.5 32.5 c 128,-1,30
 242 0 242 0 177 0 c 2,31,-1
 185 0 185 0 103 0 c 1,0,-1
40 -200 m 1,32,-1
 41 -189 41 -189 40 -176 c 2,33,34
 40 -125 40 -125 63.5 -97 c 128,-1,35
 87 -69 87 -69 119 -69 c 0,36,37
 148 -69 148 -69 165.5 -86 c 128,-1,38
 183 -103 183 -103 195 -127 c 1,39,-1
 280.5 -98 280.5 -98 234 -73 c 1,40,-1
 355.5 -105.5 355.5 -105.5 294 -143 c 1,41,-1
 390.5 -142.5 390.5 -142.5 282 -148 c 1,42,-1
 380 -98.5 380 -98.5 282 -54 c 1,43,-1
 420 -52 420 -52 353 -54 c 1,44,-1
 460 -126.5 460 -126.5 353 -200 c 1,45,-1
 418 -201 418 -201 279 -200 c 1,46,-1
 343 -173 343 -173 234 -143 c 1,47,-1
 281.5 -173 281.5 -173 199 -200 c 1,48,-1
 243.5 -201 243.5 -201 182 -200 c 1,49,50
 175 -172 175 -172 163.5 -153 c 128,-1,51
 152 -134 152 -134 135 -134 c 256,52,53
 118 -134 118 -134 111.5 -152.5 c 128,-1,54
 105 -171 105 -171 105 -190 c 2,55,-1
 120 -196.5 120 -196.5 105 -200 c 1,56,-1
 80.5 -201 80.5 -201 40 -200 c 1,32,-1
302 474 m 1,57,-1
 376 494.5 376 494.5 257 519 c 1,58,59
 277 522 277 522 292.5 538 c 128,-1,60
 308 554 308 554 309 584 c 1,61,-1
 466.5 584 466.5 584 384 584 c 1,62,63
 384 553 384 553 374.5 530 c 128,-1,64
 365 507 365 507 346.5 493 c 128,-1,65
 328 479 328 479 302 474 c 1,57,-1
EndSplineSet
EndChar

StartChar: uni0E10.less
Encoding: 65564 -1 111
Width: 416
GlyphClass: 2
Flags: W
LayerCount: 2
Fore
SplineSet
102 0 m 1,0,-1
 143 122 143 122 102 246 c 1,1,-1
 105 244 105 244 55 246 c 1,2,-1
 67 279 67 279 55 313 c 1,3,-1
 147.5 314 147.5 314 179 313 c 1,4,-1
 228 193 228 193 179 68 c 1,5,-1
 234.5 72 234.5 72 186 68 c 2,6,7
 214 68 214 68 233 88.5 c 128,-1,8
 252 109 252 109 262 154.5 c 128,-1,9
 272 200 272 200 272 276 c 256,10,11
 272 352 272 352 260 398.5 c 128,-1,12
 248 445 248 445 223 466.5 c 128,-1,13
 198 488 198 488 158 488 c 0,14,15
 123 488 123 488 92.5 475.5 c 128,-1,16
 62 463 62 463 36 437 c 1,17,-1
 34 474.5 34 474.5 36 516 c 1,18,19
 58 534 58 534 93.5 546 c 128,-1,20
 129 558 129 558 172 558 c 0,21,22
 217 558 217 558 249 542 c 128,-1,23
 281 526 281 526 295 494 c 1,24,25
 326 461 326 461 341 405 c 128,-1,26
 356 349 356 349 356 275 c 0,27,28
 356 188 356 188 338 126.5 c 128,-1,29
 320 65 320 65 280.5 32.5 c 128,-1,30
 241 0 241 0 176 0 c 2,31,-1
 185 0 185 0 102 0 c 1,0,-1
301 474 m 1,32,-1
 376 494.5 376 494.5 256 519 c 1,33,34
 277 522 277 522 292 538 c 128,-1,35
 307 554 307 554 308 584 c 1,36,-1
 466.5 584 466.5 584 383 584 c 1,37,38
 383 553 383 553 373.5 530 c 128,-1,39
 364 507 364 507 345.5 493 c 128,-1,40
 327 479 327 479 301 474 c 1,32,-1
EndSplineSet
EndChar

StartChar: uni0E18
Encoding: 3608 3608 112
Width: 411
GlyphClass: 2
Flags: W
LayerCount: 2
Fore
SplineSet
209 -10 m 0,0,1
 164 -10 164 -10 127.5 1.5 c 128,-1,2
 91 13 91 13 64 26 c 1,3,-1
 81 140 81 140 64 255 c 1,4,-1
 122.5 254 122.5 254 137 255 c 1,5,-1
 164 167.5 164 167.5 137 78 c 1,6,7
 147 71 147 71 166 65.5 c 128,-1,8
 185 60 185 60 207 60 c 0,9,10
 229 60 229 60 248 68 c 128,-1,11
 267 76 267 76 278.5 97.5 c 128,-1,12
 290 119 290 119 290 161 c 0,13,14
 290 190 290 190 282.5 208.5 c 128,-1,15
 275 227 275 227 260.5 238.5 c 128,-1,16
 246 250 246 250 224.5 260 c 128,-1,17
 203 270 203 270 175 283 c 0,18,19
 134 302 134 302 106 319.5 c 128,-1,20
 78 337 78 337 64.5 361.5 c 128,-1,21
 51 386 51 386 51 426 c 0,22,23
 51 468 51 468 69 497.5 c 128,-1,24
 87 527 87 527 122 542.5 c 128,-1,25
 157 558 157 558 208 558 c 0,26,27
 257 558 257 558 291 547 c 128,-1,28
 325 536 325 536 343 525 c 1,29,-1
 460 485.5 460 485.5 343 449 c 1,30,31
 330 458 330 458 307.5 467 c 128,-1,32
 285 476 285 476 258 482 c 128,-1,33
 231 488 231 488 202 488 c 0,34,35
 182 488 182 488 166 482.5 c 128,-1,36
 150 477 150 477 141.5 465 c 128,-1,37
 133 453 133 453 133 433 c 0,38,39
 133 411 133 411 145 397 c 128,-1,40
 157 383 157 383 179.5 372.5 c 128,-1,41
 202 362 202 362 233 350 c 0,42,43
 263 339 263 339 288 326.5 c 128,-1,44
 313 314 313 314 331.5 294 c 128,-1,45
 350 274 350 274 360 242.5 c 128,-1,46
 370 211 370 211 370 162 c 0,47,48
 370 110 370 110 354.5 71 c 128,-1,49
 339 32 339 32 304 11 c 128,-1,50
 269 -10 269 -10 209 -10 c 0,0,1
EndSplineSet
EndChar

StartChar: uni0E16
Encoding: 3606 3606 113
Width: 454
GlyphClass: 2
Flags: W
LayerCount: 2
Fore
SplineSet
151 -10 m 0,0,1
 126 -10 126 -10 106.5 -1.5 c 128,-1,2
 87 7 87 7 75 29.5 c 128,-1,3
 63 52 63 52 63 92 c 2,4,-1
 84 143.5 84 143.5 63 193 c 2,5,6
 63 256 63 256 82 284 c 128,-1,7
 101 312 101 312 132 322 c 1,8,-1
 180.5 322.5 180.5 322.5 133 325 c 1,9,-1
 123.5 345 123.5 345 53 367 c 1,10,-1
 66 382.5 66 382.5 53 401 c 2,11,12
 53 441 53 441 73 477 c 128,-1,13
 93 513 93 513 130.5 535.5 c 128,-1,14
 168 558 168 558 222 558 c 0,15,16
 270 558 270 558 308 539 c 128,-1,17
 346 520 346 520 368 478.5 c 128,-1,18
 390 437 390 437 390 371 c 2,19,-1
 521 184.5 521 184.5 390 0 c 1,20,-1
 476.5 0 476.5 0 308 0 c 1,21,-1
 432 180 432 180 308 362 c 2,22,23
 308 430 308 430 283 459 c 128,-1,24
 258 488 258 488 220 488 c 0,25,26
 181 488 181 488 159.5 462 c 128,-1,27
 138 436 138 436 138 396 c 1,28,-1
 214 367 214 367 210 341 c 1,29,-1
 267 316 267 316 203 295 c 1,30,31
 177 294 177 294 160.5 275.5 c 128,-1,32
 144 257 144 257 144 203 c 2,33,-1
 173 154 173 154 144 103 c 2,34,35
 144 80 144 80 151 70 c 128,-1,36
 158 60 158 60 174 60 c 0,37,38
 180 60 180 60 187 62 c 128,-1,39
 194 64 194 64 199 67 c 1,40,-1
 258.5 37 258.5 37 209 4 c 1,41,42
 196 -4 196 -4 181 -7 c 128,-1,43
 166 -10 166 -10 151 -10 c 0,0,1
EndSplineSet
EndChar

StartChar: uni0E53
Encoding: 3667 3667 114
Width: 419
GlyphClass: 1
Flags: W
LayerCount: 2
Fore
SplineSet
192 336 m 1,0,1
 190 372 190 372 182 384.5 c 128,-1,2
 174 397 174 397 165 397 c 0,3,4
 152 397 152 397 143.5 379 c 128,-1,5
 135 361 135 361 131 326 c 128,-1,6
 127 291 127 291 127 240 c 0,7,8
 127 151 127 151 140 104.5 c 128,-1,9
 153 58 153 58 181 58 c 0,10,11
 186 58 186 58 192 59.5 c 128,-1,12
 198 61 198 61 204 65 c 1,13,-1
 273 34.5 273 34.5 213 1 c 1,14,15
 203 -3 203 -3 188.5 -6.5 c 128,-1,16
 174 -10 174 -10 160 -10 c 0,17,18
 119 -10 119 -10 94.5 23 c 128,-1,19
 70 56 70 56 59 112 c 128,-1,20
 48 168 48 168 48 238 c 0,21,22
 48 314 48 314 59.5 364.5 c 128,-1,23
 71 415 71 415 93 440 c 128,-1,24
 115 465 115 465 148 465 c 0,25,26
 168 465 168 465 184.5 454 c 128,-1,27
 201 443 201 443 211 414 c 1,28,-1
 284 414 284 414 213 414 c 1,29,30
 218 433 218 433 228.5 444 c 128,-1,31
 239 455 239 455 253 460 c 128,-1,32
 267 465 267 465 281 465 c 0,33,34
 321 465 321 465 343.5 436 c 128,-1,35
 366 407 366 407 366 336 c 2,36,-1
 495 167.5 495 167.5 366 0 c 1,37,-1
 451.5 0 451.5 0 288 0 c 1,38,-1
 408 167.5 408 167.5 288 337 c 2,39,40
 288 376 288 376 279.5 386.5 c 128,-1,41
 271 397 271 397 260 397 c 0,42,43
 248 397 248 397 240 385 c 128,-1,44
 232 373 232 373 230 336 c 1,45,-1
 282.5 334 282.5 334 192 336 c 1,0,1
EndSplineSet
EndChar

StartChar: tildecomb
Encoding: 771 771 115
Width: 0
GlyphClass: 4
Flags: W
LayerCount: 2
Fore
SplineSet
-120 728 m 1,0,1
 -124 669 -124 669 -145.5 637.5 c 128,-1,2
 -167 606 -167 606 -200 606 c 0,3,4
 -218 606 -218 606 -235 615 c 128,-1,5
 -252 624 -252 624 -268 635 c 128,-1,6
 -284 646 -284 646 -298 655 c 128,-1,7
 -312 664 -312 664 -323 664 c 0,8,9
 -336 664 -336 664 -345.5 648.5 c 128,-1,10
 -355 633 -355 633 -359 605 c 1,11,-1
 -443 606 -443 606 -409 605 c 1,12,13
 -407 629 -407 629 -401.5 650.5 c 128,-1,14
 -396 672 -396 672 -387 689.5 c 128,-1,15
 -378 707 -378 707 -363.5 717 c 128,-1,16
 -349 727 -349 727 -328 727 c 0,17,18
 -310 727 -310 727 -293.5 718.5 c 128,-1,19
 -277 710 -277 710 -262 698.5 c 128,-1,20
 -247 687 -247 687 -232.5 678.5 c 128,-1,21
 -218 670 -218 670 -204 670 c 0,22,23
 -190 670 -190 670 -182.5 686 c 128,-1,24
 -175 702 -175 702 -171 728 c 1,25,-1
 -144.5 735 -144.5 735 -120 728 c 1,0,1
EndSplineSet
EndChar

StartChar: uni0E0F
Encoding: 3599 3599 116
Width: 459
GlyphClass: 2
Flags: W
LayerCount: 2
Fore
SplineSet
59 -200 m 1,0,-1
 76 -188.5 76 -188.5 59 -176 c 2,1,2
 59 -125 59 -125 85 -97 c 128,-1,3
 111 -69 111 -69 146 -69 c 0,4,5
 177 -69 177 -69 196 -86 c 128,-1,6
 215 -103 215 -103 225 -127 c 1,7,-1
 334 -98 334 -98 269 -73 c 1,8,-1
 412.5 -105.5 412.5 -105.5 330 -142 c 1,9,-1
 446 -142.5 446 -142.5 312 -147 c 1,10,-1
 433 107.5 433 107.5 312 362 c 2,11,12
 312 430 312 430 287.5 459 c 128,-1,13
 263 488 263 488 225 488 c 0,14,15
 185 488 185 488 164 462 c 128,-1,16
 143 436 143 436 142 396 c 1,17,-1
 215 367 215 367 215 341 c 1,18,-1
 268 316 268 316 208 295 c 1,19,20
 185 295 185 295 171.5 270.5 c 128,-1,21
 158 246 158 246 158 191 c 2,22,-1
 181 142.5 181 142.5 158 92 c 2,23,24
 158 31 158 31 136 10.5 c 128,-1,25
 114 -10 114 -10 81 -10 c 0,26,27
 65 -10 65 -10 51.5 -6.5 c 128,-1,28
 38 -3 38 -3 25 4 c 1,29,-1
 24 36.5 24 36.5 34 65 c 1,30,31
 39 63 39 63 44 61 c 128,-1,32
 49 59 49 59 55 59 c 0,33,34
 66 59 66 59 71 68.5 c 128,-1,35
 76 78 76 78 76 99 c 2,36,-1
 92 147.5 92 147.5 76 193 c 2,37,38
 76 256 76 256 92 284 c 128,-1,39
 108 312 108 312 137 322 c 1,40,-1
 181.5 322.5 181.5 322.5 138 325 c 1,41,-1
 124.5 345 124.5 345 58 367 c 1,42,-1
 67 382.5 67 382.5 58 401 c 2,43,44
 58 441 58 441 77.5 477 c 128,-1,45
 97 513 97 513 134.5 535.5 c 128,-1,46
 172 558 172 558 226 558 c 0,47,48
 275 558 275 558 313 539 c 128,-1,49
 351 520 351 520 373 478.5 c 128,-1,50
 395 437 395 437 395 371 c 2,51,-1
 522 84 522 84 395 -200 c 1,52,-1
 482 -201 482 -201 324 -200 c 1,53,-1
 405 -173 405 -173 273 -143 c 1,54,-1
 337.5 -173 337.5 -173 232 -200 c 1,55,-1
 295.5 -201 295.5 -201 213 -200 c 1,56,57
 205 -172 205 -172 192.5 -153 c 128,-1,58
 180 -134 180 -134 163 -134 c 256,59,60
 144 -134 144 -134 137.5 -152.5 c 128,-1,61
 131 -171 131 -171 131 -190 c 2,62,-1
 160 -196.5 160 -196.5 131 -200 c 1,63,-1
 118 -201 118 -201 59 -200 c 1,0,-1
EndSplineSet
EndChar

StartChar: uni0E0F.short
Encoding: 65565 -1 117
Width: 459
GlyphClass: 2
Flags: W
LayerCount: 2
Fore
SplineSet
59 -174 m 1,0,-1
 76 -163.5 76 -163.5 59 -150 c 2,1,2
 59 -115 59 -115 71 -91.5 c 128,-1,3
 83 -68 83 -68 103 -55.5 c 128,-1,4
 123 -43 123 -43 146 -43 c 0,5,6
 177 -43 177 -43 196 -60 c 128,-1,7
 215 -77 215 -77 225 -101 c 1,8,-1
 334 -74 334 -74 269 -47 c 1,9,-1
 412.5 -81 412.5 -81 330 -116 c 1,10,-1
 446 -117.5 446 -117.5 312 -121 c 1,11,-1
 433 120 433 120 312 362 c 2,12,13
 312 430 312 430 287.5 459 c 128,-1,14
 263 488 263 488 225 488 c 0,15,16
 185 488 185 488 164 462 c 128,-1,17
 143 436 143 436 142 396 c 1,18,-1
 215 367 215 367 215 341 c 1,19,-1
 268 316 268 316 208 295 c 1,20,21
 185 295 185 295 171.5 270.5 c 128,-1,22
 158 246 158 246 158 191 c 2,23,-1
 181 142.5 181 142.5 158 92 c 2,24,25
 158 31 158 31 136 10.5 c 128,-1,26
 114 -10 114 -10 81 -10 c 0,27,28
 65 -10 65 -10 51.5 -6.5 c 128,-1,29
 38 -3 38 -3 25 4 c 1,30,-1
 24 36.5 24 36.5 34 65 c 1,31,32
 39 63 39 63 44 61 c 128,-1,33
 49 59 49 59 55 59 c 0,34,35
 66 59 66 59 71 68.5 c 128,-1,36
 76 78 76 78 76 99 c 2,37,-1
 92 147.5 92 147.5 76 193 c 2,38,39
 76 256 76 256 92 284 c 128,-1,40
 108 312 108 312 137 322 c 1,41,-1
 181.5 322.5 181.5 322.5 138 325 c 1,42,-1
 124.5 345 124.5 345 58 367 c 1,43,-1
 67 382.5 67 382.5 58 401 c 2,44,45
 58 441 58 441 77.5 477 c 128,-1,46
 97 513 97 513 134.5 535.5 c 128,-1,47
 172 558 172 558 226 558 c 0,48,49
 275 558 275 558 313 539 c 128,-1,50
 351 520 351 520 373 478.5 c 128,-1,51
 395 437 395 437 395 371 c 2,52,-1
 522 96.5 522 96.5 395 -174 c 1,53,-1
 482 -176 482 -176 324 -174 c 1,54,-1
 405 -147.5 405 -147.5 273 -117 c 1,55,-1
 337.5 -147.5 337.5 -147.5 232 -174 c 1,56,-1
 295.5 -176 295.5 -176 213 -174 c 1,57,58
 205 -146 205 -146 192.5 -127 c 128,-1,59
 180 -108 180 -108 163 -108 c 256,60,61
 144 -108 144 -108 137.5 -126.5 c 128,-1,62
 131 -145 131 -145 131 -164 c 2,63,-1
 160 -171 160 -171 131 -174 c 1,64,-1
 118 -176 118 -176 59 -174 c 1,0,-1
EndSplineSet
EndChar

StartChar: uni0E15
Encoding: 3605 3605 118
Width: 476
GlyphClass: 2
Flags: W
LayerCount: 2
Fore
SplineSet
207 -10 m 0,0,1
 146 -10 146 -10 112 28.5 c 128,-1,2
 78 67 78 67 64.5 134 c 128,-1,3
 51 201 51 201 51 285 c 0,4,5
 51 383 51 383 64.5 443 c 128,-1,6
 78 503 78 503 104 530.5 c 128,-1,7
 130 558 130 558 168 558 c 0,8,9
 194 558 194 558 211.5 546 c 128,-1,10
 229 534 229 534 238 507 c 1,11,-1
 320 506 320 506 241 507 c 1,12,13
 249 535 249 535 269.5 546.5 c 128,-1,14
 290 558 290 558 315 558 c 0,15,16
 362 558 362 558 387 524 c 128,-1,17
 412 490 412 490 412 419 c 2,18,-1
 555 209 555 209 412 0 c 1,19,-1
 510.5 0 510.5 0 330 0 c 1,20,-1
 466 208.5 466 208.5 330 420 c 2,21,22
 330 460 330 460 320 474 c 128,-1,23
 310 488 310 488 295 488 c 0,24,25
 278 488 278 488 269 473.5 c 128,-1,26
 260 459 260 459 258 427 c 1,27,-1
 319 424 319 424 218 427 c 1,28,29
 215 463 215 463 205 475.5 c 128,-1,30
 195 488 195 488 182 488 c 0,31,32
 158 488 158 488 146 440.5 c 128,-1,33
 134 393 134 393 134 284 c 0,34,35
 134 214 134 214 141 164 c 128,-1,36
 148 114 148 114 166 87 c 128,-1,37
 184 60 184 60 218 60 c 0,38,39
 229 60 229 60 237.5 62.5 c 128,-1,40
 246 65 246 65 253 68 c 1,41,-1
 348.5 37 348.5 37 261 3 c 1,42,43
 250 -4 250 -4 236 -7 c 128,-1,44
 222 -10 222 -10 207 -10 c 0,0,1
EndSplineSet
EndChar

StartChar: uni0E52
Encoding: 3666 3666 119
Width: 464
GlyphClass: 1
Flags: W
LayerCount: 2
Fore
SplineSet
237 -10 m 0,0,1
 172 -10 172 -10 130.5 17 c 128,-1,2
 89 44 89 44 69.5 95.5 c 128,-1,3
 50 147 50 147 50 218 c 2,4,-1
 59 401 59 401 50 584 c 1,5,-1
 102 584 102 584 127 584 c 1,6,-1
 145 403.5 145 403.5 127 223 c 2,7,8
 127 179 127 179 137 142 c 128,-1,9
 147 105 147 105 171.5 82.5 c 128,-1,10
 196 60 196 60 237 60 c 256,11,12
 279 60 279 60 301 82.5 c 128,-1,13
 323 105 323 105 331.5 142 c 128,-1,14
 340 179 340 179 340 223 c 2,15,-1
 468 281 468 281 340 338 c 2,16,17
 340 370 340 370 335 382.5 c 128,-1,18
 330 395 330 395 320 395 c 0,19,20
 308 395 308 395 304 379.5 c 128,-1,21
 300 364 300 364 299 338 c 1,22,-1
 375 337 375 337 265 338 c 1,23,24
 264 366 264 366 259.5 380.5 c 128,-1,25
 255 395 255 395 243 395 c 0,26,27
 233 395 233 395 227.5 379.5 c 128,-1,28
 222 364 222 364 222 329 c 0,29,30
 222 301 222 301 227.5 281.5 c 128,-1,31
 233 262 233 262 249 262 c 0,32,33
 254 262 254 262 259 264 c 128,-1,34
 264 266 264 266 270 270 c 1,35,-1
 360 240.5 360 240.5 283 211 c 1,36,37
 273 204 273 204 263.5 200 c 128,-1,38
 254 196 254 196 241 196 c 0,39,40
 212 196 212 196 193.5 215 c 128,-1,41
 175 234 175 234 166.5 265.5 c 128,-1,42
 158 297 158 297 158 334 c 0,43,44
 158 396 158 396 176 428.5 c 128,-1,45
 194 461 194 461 229 461 c 0,46,47
 248 461 248 461 262.5 449.5 c 128,-1,48
 277 438 277 438 284 409 c 1,49,-1
 376.5 410 376.5 410 286 409 c 1,50,51
 294 438 294 438 308.5 449.5 c 128,-1,52
 323 461 323 461 343 461 c 0,53,54
 362 461 362 461 378 451 c 128,-1,55
 394 441 394 441 404 416 c 128,-1,56
 414 391 414 391 414 346 c 2,57,-1
 555 282 555 282 414 218 c 2,58,59
 414 147 414 147 397 95.5 c 128,-1,60
 380 44 380 44 341.5 17 c 128,-1,61
 303 -10 303 -10 237 -10 c 0,0,1
EndSplineSet
EndChar

StartChar: uni02BC
Encoding: 700 700 120
Width: 189
GlyphClass: 1
Flags: W
LayerCount: 2
Fore
SplineSet
153 714 m 1,0,-1
 152.5 708.5 152.5 708.5 160 703 c 1,1,2
 151 662 151 662 140 622 c 128,-1,3
 129 582 129 582 116 544 c 128,-1,4
 103 506 103 506 87 468 c 1,5,-1
 43 469 43 469 24 468 c 1,6,7
 32 498 32 498 38.5 530.5 c 128,-1,8
 45 563 45 563 51 595.5 c 128,-1,9
 57 628 57 628 61 658 c 128,-1,10
 65 688 65 688 67 714 c 1,11,-1
 103.5 714 103.5 714 153 714 c 1,0,-1
EndSplineSet
EndChar

StartChar: uni02D7
Encoding: 727 727 121
Width: 170
GlyphClass: 1
Flags: W
LayerCount: 2
Fore
SplineSet
158 250 m 1,0,-1
 12 250 l 1,1,-1
 12 302 l 1,2,-1
 158 302 l 1,3,-1
 206 276 206 276 158 250 c 1,0,-1
EndSplineSet
EndChar

StartChar: uni200C
Encoding: 8204 8204 123
Width: 0
GlyphClass: 1
Flags: W
LayerCount: 2
Fore
SplineSet
-21 -133 m 1,0,-1
 -21 628 l 1,1,-1
 21 628 l 1,2,-1
 21 -133 l 1,3,-1
 -21 -133 l 1,0,-1
EndSplineSet
EndChar

StartChar: uni200D
Encoding: 8205 8205 124
Width: 0
GlyphClass: 1
Flags: W
LayerCount: 2
Fore
SplineSet
-21 -133 m 1,0,-1
 -21 535 l 1,1,-1
 -83 473 l 1,2,-1
 -109 500 l 1,3,-1
 -27 582 l 1,4,-1
 -109 663 l 1,5,-1
 -83 690 l 1,6,-1
 0 607 l 1,7,-1
 83 690 l 1,8,-1
 109 663 l 1,9,-1
 27 582 l 1,10,-1
 109 500 l 1,11,-1
 83 473 l 1,12,-1
 21 535 l 1,13,-1
 21 -133 l 1,14,-1
 -21 -133 l 1,0,-1
EndSplineSet
EndChar

StartChar: uni25CC
Encoding: 9676 9676 125
Width: 594
GlyphClass: 2
Flags: W
LayerCount: 2
Fore
SplineSet
455 423 m 0,0,1
 445 423 445 423 437 431 c 128,-1,2
 429 439 429 439 429 449 c 0,3,4
 429 460 429 460 437 467.5 c 128,-1,5
 445 475 445 475 455 475 c 0,6,7
 466 475 466 475 473.5 467.5 c 128,-1,8
 481 460 481 460 481 449 c 0,9,10
 481 439 481 439 473.5 431 c 128,-1,11
 466 423 466 423 455 423 c 0,0,1
139 107 m 0,12,13
 129 107 129 107 121 115 c 128,-1,14
 113 123 113 123 113 133 c 0,15,16
 113 144 113 144 121 151.5 c 128,-1,17
 129 159 129 159 139 159 c 0,18,19
 150 159 150 159 157.5 151.5 c 128,-1,20
 165 144 165 144 165 133 c 0,21,22
 165 123 165 123 157.5 115 c 128,-1,23
 150 107 150 107 139 107 c 0,12,13
213 60 m 0,24,25
 203 60 203 60 195 68 c 128,-1,26
 187 76 187 76 187 86 c 0,27,28
 187 97 187 97 195 104.5 c 128,-1,29
 203 112 203 112 213 112 c 0,30,31
 224 112 224 112 231.5 104.5 c 128,-1,32
 239 97 239 97 239 86 c 0,33,34
 239 76 239 76 231.5 68 c 128,-1,35
 224 60 224 60 213 60 c 0,24,25
92 181 m 0,36,37
 82 181 82 181 74 189 c 128,-1,38
 66 197 66 197 66 207 c 0,39,40
 66 218 66 218 74 225.5 c 128,-1,41
 82 233 82 233 92 233 c 0,42,43
 103 233 103 233 110.5 225.5 c 128,-1,44
 118 218 118 218 118 207 c 0,45,46
 118 197 118 197 110.5 189 c 128,-1,47
 103 181 103 181 92 181 c 0,36,37
297 42 m 0,48,49
 287 42 287 42 279 50 c 128,-1,50
 271 58 271 58 271 68 c 0,51,52
 271 79 271 79 279 86.5 c 128,-1,53
 287 94 287 94 297 94 c 0,54,55
 308 94 308 94 315.5 86.5 c 128,-1,56
 323 79 323 79 323 68 c 0,57,58
 323 58 323 58 315.5 50 c 128,-1,59
 308 42 308 42 297 42 c 0,48,49
74 265 m 0,60,61
 64 265 64 265 56 273 c 128,-1,62
 48 281 48 281 48 291 c 0,63,64
 48 302 48 302 56 309.5 c 128,-1,65
 64 317 64 317 74 317 c 0,66,67
 85 317 85 317 92.5 309.5 c 128,-1,68
 100 302 100 302 100 291 c 0,69,70
 100 281 100 281 92.5 273 c 128,-1,71
 85 265 85 265 74 265 c 0,60,61
381 60 m 0,72,73
 371 60 371 60 363 68 c 128,-1,74
 355 76 355 76 355 86 c 0,75,76
 355 97 355 97 363 104.5 c 128,-1,77
 371 112 371 112 381 112 c 0,78,79
 392 112 392 112 399.5 104.5 c 128,-1,80
 407 97 407 97 407 86 c 0,81,82
 407 76 407 76 399.5 68 c 128,-1,83
 392 60 392 60 381 60 c 0,72,73
92 349 m 0,84,85
 82 349 82 349 74 357 c 128,-1,86
 66 365 66 365 66 375 c 0,87,88
 66 386 66 386 74 393.5 c 128,-1,89
 82 401 82 401 92 401 c 0,90,91
 103 401 103 401 110.5 393.5 c 128,-1,92
 118 386 118 386 118 375 c 0,93,94
 118 365 118 365 110.5 357 c 128,-1,95
 103 349 103 349 92 349 c 0,84,85
139 423 m 0,96,97
 129 423 129 423 121 431 c 128,-1,98
 113 439 113 439 113 449 c 0,99,100
 113 460 113 460 121 467.5 c 128,-1,101
 129 475 129 475 139 475 c 0,102,103
 150 475 150 475 157.5 467.5 c 128,-1,104
 165 460 165 460 165 449 c 0,105,106
 165 439 165 439 157.5 431 c 128,-1,107
 150 423 150 423 139 423 c 0,96,97
455 107 m 0,108,109
 445 107 445 107 437 115 c 128,-1,110
 429 123 429 123 429 133 c 0,111,112
 429 144 429 144 437 151.5 c 128,-1,113
 445 159 445 159 455 159 c 0,114,115
 466 159 466 159 473.5 151.5 c 128,-1,116
 481 144 481 144 481 133 c 0,117,118
 481 123 481 123 473.5 115 c 128,-1,119
 466 107 466 107 455 107 c 0,108,109
213 470 m 0,120,121
 203 470 203 470 195 478 c 128,-1,122
 187 486 187 486 187 496 c 0,123,124
 187 507 187 507 195 514.5 c 128,-1,125
 203 522 203 522 213 522 c 0,126,127
 224 522 224 522 231.5 514.5 c 128,-1,128
 239 507 239 507 239 496 c 0,129,130
 239 486 239 486 231.5 478 c 128,-1,131
 224 470 224 470 213 470 c 0,120,121
502 181 m 0,132,133
 492 181 492 181 484 189 c 128,-1,134
 476 197 476 197 476 207 c 0,135,136
 476 218 476 218 484 225.5 c 128,-1,137
 492 233 492 233 502 233 c 0,138,139
 513 233 513 233 520.5 225.5 c 128,-1,140
 528 218 528 218 528 207 c 0,141,142
 528 197 528 197 520.5 189 c 128,-1,143
 513 181 513 181 502 181 c 0,132,133
297 488 m 0,144,145
 287 488 287 488 279 496 c 128,-1,146
 271 504 271 504 271 514 c 0,147,148
 271 525 271 525 279 532.5 c 128,-1,149
 287 540 287 540 297 540 c 0,150,151
 308 540 308 540 315.5 532.5 c 128,-1,152
 323 525 323 525 323 514 c 0,153,154
 323 504 323 504 315.5 496 c 128,-1,155
 308 488 308 488 297 488 c 0,144,145
520 265 m 0,156,157
 510 265 510 265 502 273 c 128,-1,158
 494 281 494 281 494 291 c 0,159,160
 494 302 494 302 502 309.5 c 128,-1,161
 510 317 510 317 520 317 c 0,162,163
 531 317 531 317 538.5 309.5 c 128,-1,164
 546 302 546 302 546 291 c 0,165,166
 546 281 546 281 538.5 273 c 128,-1,167
 531 265 531 265 520 265 c 0,156,157
381 470 m 0,168,169
 371 470 371 470 363 478 c 128,-1,170
 355 486 355 486 355 496 c 0,171,172
 355 507 355 507 363 514.5 c 128,-1,173
 371 522 371 522 381 522 c 0,174,175
 392 522 392 522 399.5 514.5 c 128,-1,176
 407 507 407 507 407 496 c 0,177,178
 407 486 407 486 399.5 478 c 128,-1,179
 392 470 392 470 381 470 c 0,168,169
502 349 m 0,180,181
 492 349 492 349 484 357 c 128,-1,182
 476 365 476 365 476 375 c 0,183,184
 476 386 476 386 484 393.5 c 128,-1,185
 492 401 492 401 502 401 c 0,186,187
 513 401 513 401 520.5 393.5 c 128,-1,188
 528 386 528 386 528 375 c 0,189,190
 528 365 528 365 520.5 357 c 128,-1,191
 513 349 513 349 502 349 c 0,180,181
EndSplineSet
EndChar

StartChar: uni0E27
Encoding: 3623 3623 126
Width: 376
GlyphClass: 2
Flags: W
LayerCount: 2
Fore
SplineSet
154 -10 m 0,0,1
 123 -10 123 -10 94.5 -2 c 128,-1,2
 66 6 66 6 37 28 c 1,3,-1
 52 62 52 62 61 92 c 1,4,5
 76 79 76 79 97 69.5 c 128,-1,6
 118 60 118 60 142 60 c 0,7,8
 189 60 189 60 215.5 115 c 128,-1,9
 242 170 242 170 242 276 c 0,10,11
 242 379 242 379 214.5 433.5 c 128,-1,12
 187 488 187 488 131 488 c 0,13,14
 109 488 109 488 84.5 481 c 128,-1,15
 60 474 60 474 43 460 c 1,16,-1
 42 493.5 42 493.5 43 531 c 1,17,18
 64 546 64 546 89.5 552 c 128,-1,19
 115 558 115 558 143 558 c 0,20,21
 208 558 208 558 248.5 522.5 c 128,-1,22
 289 487 289 487 307.5 423.5 c 128,-1,23
 326 360 326 360 326 276 c 0,24,25
 326 145 326 145 282.5 67.5 c 128,-1,26
 239 -10 239 -10 154 -10 c 0,0,1
EndSplineSet
EndChar

StartChar: uni0E4E
Encoding: 3662 3662 127
Width: 0
GlyphClass: 4
Flags: W
LayerCount: 2
Fore
SplineSet
-197 606 m 1,0,1
 -201 615 -201 615 -204 630 c 128,-1,2
 -207 645 -207 645 -207 659 c 0,3,4
 -207 692 -207 692 -190.5 709 c 128,-1,5
 -174 726 -174 726 -150 726 c 0,6,7
 -135 726 -135 726 -126.5 719.5 c 128,-1,8
 -118 713 -118 713 -111 705 c 1,9,-1
 -149.5 701.5 -149.5 701.5 -121 696 c 1,10,11
 -125 704 -125 704 -127.5 715 c 128,-1,12
 -130 726 -130 726 -130 739 c 0,13,14
 -130 770 -130 770 -112 785 c 128,-1,15
 -94 800 -94 800 -71 800 c 0,16,17
 -63 800 -63 800 -51.5 797.5 c 128,-1,18
 -40 795 -40 795 -31 790 c 1,19,-1
 -36 765 -36 765 -31 739 c 1,20,21
 -37 742 -37 742 -43.5 743 c 128,-1,22
 -50 744 -50 744 -55 744 c 0,23,24
 -69 744 -69 744 -77.5 734.5 c 128,-1,25
 -86 725 -86 725 -86 709 c 0,26,27
 -86 702 -86 702 -84.5 695 c 128,-1,28
 -83 688 -83 688 -81 682 c 1,29,-1
 -123 672 -123 672 -104 663 c 1,30,31
 -110 671 -110 671 -116.5 673 c 128,-1,32
 -123 675 -123 675 -127 675 c 0,33,34
 -140 675 -140 675 -145.5 665 c 128,-1,35
 -151 655 -151 655 -151 643 c 0,36,37
 -151 636 -151 636 -149.5 629.5 c 128,-1,38
 -148 623 -148 623 -147 616 c 1,39,-1
 -227.5 611 -227.5 611 -197 606 c 1,0,1
EndSplineSet
EndChar

StartChar: uni0E22
Encoding: 3618 3618 128
Width: 450
GlyphClass: 2
Flags: W
LayerCount: 2
Fore
SplineSet
220 -9 m 0,0,1
 160 -9 160 -9 124 12 c 128,-1,2
 88 33 88 33 71.5 71 c 128,-1,3
 55 109 55 109 55 161 c 0,4,5
 55 208 55 208 64.5 235 c 128,-1,6
 74 262 74 262 89 275 c 128,-1,7
 104 288 104 288 120 292 c 1,8,-1
 161 294 161 294 120 296 c 1,9,10
 105 301 105 301 89.5 315 c 128,-1,11
 74 329 74 329 64 354.5 c 128,-1,12
 54 380 54 380 54 418 c 0,13,14
 54 453 54 453 65.5 484 c 128,-1,15
 77 515 77 515 103.5 535 c 128,-1,16
 130 555 130 555 174 555 c 0,17,18
 194 555 194 555 213 551.5 c 128,-1,19
 232 548 232 548 242 540 c 1,20,-1
 313 505.5 313 505.5 229 474 c 1,21,22
 222 478 222 478 211 481.5 c 128,-1,23
 200 485 200 485 188 485 c 0,24,25
 162 485 162 485 149.5 465 c 128,-1,26
 137 445 137 445 137 413 c 0,27,28
 137 377 137 377 148 358.5 c 128,-1,29
 159 340 159 340 176 333 c 128,-1,30
 193 326 193 326 212 326 c 2,31,-1
 287.5 327 287.5 327 226 326 c 1,32,-1
 297 294.5 297 294.5 226 264 c 1,33,-1
 287.5 262 287.5 262 212 264 c 2,34,35
 175 264 175 264 157 242 c 128,-1,36
 139 220 139 220 139 168 c 0,37,38
 139 139 139 139 146 114.5 c 128,-1,39
 153 90 153 90 171 75.5 c 128,-1,40
 189 61 189 61 221 61 c 256,41,42
 253 61 253 61 270.5 75.5 c 128,-1,43
 288 90 288 90 295.5 117 c 128,-1,44
 303 144 303 144 303 182 c 2,45,-1
 424 365 424 365 303 548 c 1,46,-1
 468.5 548 468.5 548 386 548 c 1,47,-1
 513 368 513 368 386 188 c 2,48,49
 386 83 386 83 346 37 c 128,-1,50
 306 -9 306 -9 220 -9 c 0,0,1
EndSplineSet
EndChar

StartChar: uni0E0D
Encoding: 3597 3597 129
Width: 673
GlyphClass: 2
Flags: W
LayerCount: 2
Fore
SplineSet
434 -171 m 0,0,1
 403 -171 403 -171 372.5 -162.5 c 128,-1,2
 342 -154 342 -154 315 -137 c 1,3,-1
 437 -97 437 -97 315 -56 c 1,4,5
 335 -78 335 -78 365.5 -88 c 128,-1,6
 396 -98 396 -98 426 -98 c 256,7,8
 456 -98 456 -98 478 -85.5 c 128,-1,9
 500 -73 500 -73 512 -41.5 c 128,-1,10
 524 -10 524 -10 524 48 c 2,11,-1
 734 61 734 61 524 74 c 1,12,-1
 732 74 732 74 520 74 c 1,13,14
 506 42 506 42 479.5 21 c 128,-1,15
 453 0 453 0 413 0 c 0,16,17
 379 0 379 0 352 18 c 128,-1,18
 325 36 325 36 309.5 76 c 128,-1,19
 294 116 294 116 294 182 c 2,20,-1
 408 271.5 408 271.5 294 362 c 2,21,22
 294 411 294 411 283 438.5 c 128,-1,23
 272 466 272 466 254 477 c 128,-1,24
 236 488 236 488 214 488 c 0,25,26
 181 488 181 488 160 464.5 c 128,-1,27
 139 441 139 441 138 396 c 1,28,-1
 214 367 214 367 210 341 c 1,29,-1
 267 316 267 316 203 295 c 1,30,31
 177 295 177 295 160.5 271.5 c 128,-1,32
 144 248 144 248 144 193 c 2,33,-1
 173 149 173 149 144 103 c 2,34,35
 144 80 144 80 151 70 c 128,-1,36
 158 60 158 60 173 60 c 0,37,38
 180 60 180 60 187 62 c 128,-1,39
 194 64 194 64 199 67 c 1,40,-1
 258.5 37 258.5 37 209 4 c 1,41,42
 196 -4 196 -4 181 -7 c 128,-1,43
 166 -10 166 -10 151 -10 c 0,44,45
 126 -10 126 -10 106.5 -1.5 c 128,-1,46
 87 7 87 7 75 29.5 c 128,-1,47
 63 52 63 52 63 92 c 2,48,-1
 84 143.5 84 143.5 63 193 c 2,49,50
 63 256 63 256 82 284 c 128,-1,51
 101 312 101 312 132 322 c 1,52,-1
 180.5 322.5 180.5 322.5 133 325 c 1,53,-1
 123.5 345 123.5 345 53 367 c 1,54,-1
 66 382.5 66 382.5 53 401 c 2,55,56
 53 445 53 445 72.5 480.5 c 128,-1,57
 92 516 92 516 128.5 537 c 128,-1,58
 165 558 165 558 215 558 c 0,59,60
 260 558 260 558 296.5 540 c 128,-1,61
 333 522 333 522 354.5 481.5 c 128,-1,62
 376 441 376 441 376 371 c 2,63,-1
 497 279.5 497 279.5 376 186 c 2,64,65
 376 125 376 125 393.5 97.5 c 128,-1,66
 411 70 411 70 438 70 c 0,67,68
 463 70 463 70 481.5 90.5 c 128,-1,69
 500 111 500 111 510.5 148.5 c 128,-1,70
 521 186 521 186 521 236 c 2,71,-1
 732 393 732 393 521 548 c 1,72,-1
 776.5 548 776.5 548 603 548 c 1,73,-1
 821 299 821 299 603 48 c 2,74,75
 603 -25 603 -25 583.5 -74 c 128,-1,76
 564 -123 564 -123 526.5 -147 c 128,-1,77
 489 -171 489 -171 434 -171 c 0,0,1
EndSplineSet
EndChar

StartChar: uni0E0D.less
Encoding: 65566 -1 130
Width: 658
GlyphClass: 2
Flags: W
LayerCount: 2
Fore
SplineSet
442 -10 m 256,0,1
 364 -10 364 -10 327 39 c 128,-1,2
 290 88 290 88 290 188 c 2,3,-1
 404 275.5 404 275.5 290 362 c 2,4,5
 290 411 290 411 279.5 438.5 c 128,-1,6
 269 466 269 466 251.5 477 c 128,-1,7
 234 488 234 488 212 488 c 0,8,9
 179 488 179 488 159 464.5 c 128,-1,10
 139 441 139 441 138 396 c 1,11,-1
 214 367 214 367 210 341 c 1,12,-1
 267 316 267 316 203 295 c 1,13,14
 177 295 177 295 160.5 271.5 c 128,-1,15
 144 248 144 248 144 193 c 2,16,-1
 173 149 173 149 144 103 c 2,17,18
 144 80 144 80 151 70 c 128,-1,19
 158 60 158 60 174 60 c 0,20,21
 180 60 180 60 187 62 c 128,-1,22
 194 64 194 64 199 67 c 1,23,-1
 258.5 37 258.5 37 209 4 c 1,24,25
 196 -4 196 -4 181 -7 c 128,-1,26
 166 -10 166 -10 151 -10 c 0,27,28
 126 -10 126 -10 106.5 -1.5 c 128,-1,29
 87 7 87 7 75 29.5 c 128,-1,30
 63 52 63 52 63 92 c 2,31,-1
 84 143.5 84 143.5 63 193 c 2,32,33
 63 256 63 256 82 284 c 128,-1,34
 101 312 101 312 132 322 c 1,35,-1
 180.5 322.5 180.5 322.5 133 325 c 1,36,-1
 123.5 345 123.5 345 53 367 c 1,37,-1
 66 382.5 66 382.5 53 401 c 2,38,39
 53 445 53 445 72 480.5 c 128,-1,40
 91 516 91 516 127 537 c 128,-1,41
 163 558 163 558 212 558 c 0,42,43
 256 558 256 558 292 540 c 128,-1,44
 328 522 328 522 349.5 481.5 c 128,-1,45
 371 441 371 441 371 371 c 2,46,-1
 492 279.5 492 279.5 371 188 c 2,47,48
 371 119 371 119 390 89.5 c 128,-1,49
 409 60 409 60 442 60 c 0,50,51
 474 60 474 60 493 89.5 c 128,-1,52
 512 119 512 119 512 188 c 2,53,-1
 721 368.5 721 368.5 512 548 c 1,54,-1
 765.5 548 765.5 548 594 548 c 1,55,-1
 810 369 810 369 594 188 c 2,56,57
 594 88 594 88 557 39 c 128,-1,58
 520 -10 520 -10 442 -10 c 256,0,1
EndSplineSet
EndChar

StartChar: uni0E50
Encoding: 3664 3664 131
Width: 424
GlyphClass: 1
Flags: W
LayerCount: 2
Fore
SplineSet
212 -10 m 256,0,1
 133 -10 133 -10 90.5 53.5 c 128,-1,2
 48 117 48 117 48 228 c 0,3,4
 48 344 48 344 90.5 404.5 c 128,-1,5
 133 465 133 465 212 465 c 256,6,7
 292 465 292 465 334 404.5 c 128,-1,8
 376 344 376 344 376 228 c 0,9,10
 376 117 376 117 334 53.5 c 128,-1,11
 292 -10 292 -10 212 -10 c 256,0,1
212 60 m 0,12,13
 253 60 253 60 274 103 c 128,-1,14
 295 146 295 146 295 228 c 0,15,16
 295 316 295 316 274 355.5 c 128,-1,17
 253 395 253 395 212 395 c 0,18,19
 171 395 171 395 150 355.5 c 128,-1,20
 129 316 129 316 129 228 c 0,21,22
 129 146 129 146 150 103 c 128,-1,23
 171 60 171 60 212 60 c 0,12,13
EndSplineSet
EndChar

StartChar: A
Encoding: 65 65 132
Width: 450
GlyphClass: 1
Flags: W
LayerCount: 2
Fore
SplineSet
361 0 m 1,0,-1
 502 110.5 502 110.5 309 223 c 1,1,-1
 317.5 221 317.5 221 142 223 c 1,2,-1
 133.5 110.5 133.5 110.5 90 0 c 1,3,-1
 0 0 l 1,4,-1
 173 714 l 1,5,-1
 319.5 717 319.5 717 274 714 c 1,6,-1
 499 358.5 499 358.5 450 0 c 1,7,-1
 591.5 0 591.5 0 361 0 c 1,0,-1
240 535 m 2,8,9
 237 554 237 554 233.5 571.5 c 128,-1,10
 230 589 230 589 227.5 606 c 128,-1,11
 225 623 225 623 223 638 c 1,12,13
 222 623 222 623 219.5 606 c 128,-1,14
 217 589 217 589 213.5 571.5 c 128,-1,15
 210 554 210 554 206 536 c 2,16,-1
 246.5 409 246.5 409 155 301 c 1,17,-1
 319 301 319 301 293 301 c 1,18,-1
 392 409 392 409 240 535 c 2,8,9
EndSplineSet
EndChar

StartChar: AE
Encoding: 198 198 133
Width: 881
GlyphClass: 1
Flags: W
LayerCount: 2
Fore
SplineSet
570 0 m 1,0,-1
 449 0 l 1,1,-1
 286 223 l 1,2,-1
 153 223 l 1,3,-1
 89 0 l 1,4,-1
 -2 0 l 1,5,-1
 213 714 l 1,6,-1
 821 714 l 1,7,-1
 570 638 l 1,8,-1
 539 635 l 1,9,-1
 370 410 l 1,10,-1
 802 412 l 1,11,-1
 557 335 l 1,12,-1
 539 334 l 1,13,-1
 370 76 l 1,14,-1
 821 79 l 1,15,-1
 570 0 l 1,0,-1
174 301 m 1,16,-1
 449 301 l 1,17,-1
 287 637 l 1,18,-1
 270 637 l 1,19,-1
 174 301 l 1,16,-1
EndSplineSet
EndChar

StartChar: B
Encoding: 66 66 143
Width: 477
GlyphClass: 1
Flags: W
LayerCount: 2
Fore
SplineSet
231 714 m 2,0,1
 326 714 326 714 375 671 c 128,-1,2
 424 628 424 628 424 542 c 0,3,4
 424 496 424 496 412 462 c 128,-1,5
 400 428 400 428 377.5 407 c 128,-1,6
 355 386 355 386 321 378 c 1,7,-1
 436 376.5 436 376.5 321 374 c 1,8,9
 361 365 361 365 387 343.5 c 128,-1,10
 413 322 413 322 425.5 287.5 c 128,-1,11
 438 253 438 253 438 205 c 0,12,13
 438 143 438 143 417 97 c 128,-1,14
 396 51 396 51 355.5 25.5 c 128,-1,15
 315 0 315 0 256 0 c 2,16,-1
 222.5 0 222.5 0 73 0 c 1,17,-1
 97 357 97 357 73 714 c 1,18,-1
 199 714 199 714 231 714 c 2,0,1
231 408 m 2,19,20
 287 408 287 408 312.5 439.5 c 128,-1,21
 338 471 338 471 338 534 c 0,22,23
 338 587 338 587 310.5 614.5 c 128,-1,24
 283 642 283 642 230 642 c 2,25,-1
 246 637 246 637 157 642 c 1,26,-1
 187 523.5 187 523.5 157 408 c 1,27,-1
 253 410 253 410 231 408 c 2,19,20
157 337 m 1,28,-1
 187 205.5 187 205.5 157 73 c 1,29,-1
 259 76 259 76 247 73 c 2,30,31
 299 73 299 73 325 107 c 128,-1,32
 351 141 351 141 351 209 c 0,33,34
 351 251 351 251 337.5 279.5 c 128,-1,35
 324 308 324 308 298.5 322.5 c 128,-1,36
 273 337 273 337 237 337 c 2,37,-1
 255.5 335 255.5 335 157 337 c 1,28,-1
EndSplineSet
EndChar

StartChar: C
Encoding: 67 67 144
Width: 446
GlyphClass: 1
Flags: W
LayerCount: 2
Fore
SplineSet
292 649 m 0,0,1
 251 649 251 649 221.5 625.5 c 128,-1,2
 192 602 192 602 173.5 561 c 128,-1,3
 155 520 155 520 146 467.5 c 128,-1,4
 137 415 137 415 137 357 c 0,5,6
 137 267 137 267 156.5 201.5 c 128,-1,7
 176 136 176 136 212 101 c 128,-1,8
 248 66 248 66 297 66 c 0,9,10
 327 66 327 66 353.5 73.5 c 128,-1,11
 380 81 380 81 404 93 c 1,12,-1
 573 58 573 58 404 17 c 1,13,14
 380 4 380 4 351 -3 c 128,-1,15
 322 -10 322 -10 287 -10 c 0,16,17
 214 -10 214 -10 161 34 c 128,-1,18
 108 78 108 78 79 160.5 c 128,-1,19
 50 243 50 243 50 358 c 0,20,21
 50 434 50 434 64.5 500.5 c 128,-1,22
 79 567 79 567 109 617.5 c 128,-1,23
 139 668 139 668 184 696.5 c 128,-1,24
 229 725 229 725 289 725 c 0,25,26
 325 725 325 725 358 716 c 128,-1,27
 391 707 391 707 422 689 c 1,28,-1
 583 644 583 644 392 618 c 1,29,30
 370 632 370 632 345 640.5 c 128,-1,31
 320 649 320 649 292 649 c 0,0,1
EndSplineSet
EndChar

StartChar: D
Encoding: 68 68 149
Width: 516
GlyphClass: 1
Flags: W
LayerCount: 2
Fore
SplineSet
467 366 m 0,0,1
 467 246 467 246 438.5 164.5 c 128,-1,2
 410 83 410 83 354.5 41.5 c 128,-1,3
 299 0 299 0 217 0 c 2,4,-1
 196.5 0 196.5 0 73 0 c 1,5,-1
 97 357 97 357 73 714 c 1,6,-1
 207 714 207 714 223 714 c 2,7,8
 303 714 303 714 357 674.5 c 128,-1,9
 411 635 411 635 439 557.5 c 128,-1,10
 467 480 467 480 467 366 c 0,0,1
379 362 m 0,11,12
 379 454 379 454 361 515.5 c 128,-1,13
 343 577 343 577 308 608 c 128,-1,14
 273 639 273 639 220 639 c 2,15,-1
 245.5 637 245.5 637 157 639 c 1,16,-1
 187 357 187 357 157 75 c 1,17,-1
 235.5 77 235.5 77 214 75 c 2,18,19
 300 75 300 75 339.5 147.5 c 128,-1,20
 379 220 379 220 379 362 c 0,11,12
EndSplineSet
EndChar

StartChar: E
Encoding: 69 69 152
Width: 556
GlyphClass: 1
Flags: W
LayerCount: 2
Fore
SplineSet
496 0 m 1,0,-1
 73 0 l 1,1,-1
 97 714 l 1,2,-1
 357 714 l 1,3,-1
 496 635 l 1,4,-1
 157 639 l 1,5,-1
 187 412 l 1,6,-1
 345 410 l 1,7,-1
 478 334 l 1,8,-1
 157 335 l 1,9,-1
 187 79 l 1,10,-1
 357 76 l 1,11,-1
 496 0 l 1,0,-1
EndSplineSet
EndChar

StartChar: Eng
Encoding: 330 330 160
Width: 569
GlyphClass: 1
Flags: W
LayerCount: 2
Fore
SplineSet
362 -193 m 0,0,1
 344 -193 344 -193 328 -190.5 c 128,-1,2
 312 -188 312 -188 298 -182 c 1,3,-1
 399 -139 399 -139 298 -107 c 1,4,5
 310 -111 310 -111 324 -114 c 128,-1,6
 338 -117 338 -117 354 -117 c 0,7,8
 376 -117 376 -117 389.5 -105 c 128,-1,9
 403 -93 403 -93 410 -67 c 128,-1,10
 417 -41 417 -41 417 1 c 1,11,-1
 377.5 296.5 377.5 296.5 150 589 c 1,12,-1
 174 593 174 593 147 589 c 1,13,14
 149 562 149 562 150.5 537 c 128,-1,15
 152 512 152 512 152.5 489 c 128,-1,16
 153 466 153 466 153 445 c 2,17,-1
 180 193.5 180 193.5 153 0 c 1,18,-1
 138.5 0 138.5 0 73 0 c 1,19,-1
 97 357 97 357 73 714 c 1,20,-1
 149 714 149 714 175 714 c 1,21,-1
 391.5 428 391.5 428 419 177 c 1,22,-1
 584 142 584 142 422 177 c 1,23,24
 421 205 421 205 419.5 230.5 c 128,-1,25
 418 256 418 256 417.5 278.5 c 128,-1,26
 417 301 417 301 417 320 c 2,27,-1
 579 528 579 528 417 714 c 1,28,-1
 621 714 621 714 497 714 c 1,29,-1
 663 360 663 360 497 4 c 2,30,31
 497 -62 497 -62 482 -105.5 c 128,-1,32
 467 -149 467 -149 437.5 -171 c 128,-1,33
 408 -193 408 -193 362 -193 c 0,0,1
EndSplineSet
EndChar

StartChar: Eth
Encoding: 208 208 162
Width: 516
GlyphClass: 1
Flags: W
LayerCount: 2
Fore
SplineSet
222 714 m 2,0,1
 302 714 302 714 356 674.5 c 128,-1,2
 410 635 410 635 438 557.5 c 128,-1,3
 466 480 466 480 466 366 c 0,4,5
 466 246 466 246 437.5 164.5 c 128,-1,6
 409 83 409 83 353.5 41.5 c 128,-1,7
 298 0 298 0 216 0 c 2,8,-1
 199.5 0 199.5 0 72 0 c 1,9,-1
 104 157 104 157 72 332 c 1,10,-1
 67 314 67 314 21 332 c 1,11,-1
 30 353 30 353 21 400 c 1,12,-1
 67 392 67 392 72 400 c 1,13,-1
 104 553 104 553 72 714 c 1,14,-1
 210.5 714 210.5 714 222 714 c 2,0,1
220 639 m 2,15,-1
 249 637 249 637 157 639 c 1,16,-1
 194 514.5 194 514.5 157 400 c 1,17,-1
 283 392 283 392 254 400 c 1,18,-1
 372 353 372 353 254 332 c 1,19,-1
 283 314 283 314 157 332 c 1,20,-1
 194 195.5 194 195.5 157 75 c 1,21,-1
 239 77 239 77 214 75 c 2,22,23
 300 75 300 75 339.5 147.5 c 128,-1,24
 379 220 379 220 379 362 c 0,25,26
 379 454 379 454 361 515.5 c 128,-1,27
 343 577 343 577 308 608 c 128,-1,28
 273 639 273 639 220 639 c 2,15,-1
EndSplineSet
EndChar

StartChar: F
Encoding: 70 70 163
Width: 519
GlyphClass: 1
Flags: W
LayerCount: 2
Fore
SplineSet
187 0 m 1,0,-1
 73 0 l 1,1,-1
 97 714 l 1,2,-1
 357 714 l 1,3,-1
 496 635 l 1,4,-1
 157 639 l 1,5,-1
 187 382 l 1,6,-1
 345 381 l 1,7,-1
 477 303 l 1,8,-1
 157 305 l 1,9,-1
 187 0 l 1,0,-1
EndSplineSet
EndChar

StartChar: G
Encoding: 71 71 164
Width: 545
GlyphClass: 1
Flags: W
LayerCount: 2
Fore
SplineSet
308 377 m 1,0,-1
 530.5 377 530.5 377 491 377 c 1,1,-1
 654 202 654 202 491 25 c 1,2,3
 447 8 447 8 400 -1 c 128,-1,4
 353 -10 353 -10 304 -10 c 0,5,6
 217 -10 217 -10 160.5 38.5 c 128,-1,7
 104 87 104 87 77 170.5 c 128,-1,8
 50 254 50 254 50 359 c 0,9,10
 50 466 50 466 79.5 548 c 128,-1,11
 109 630 109 630 169 677 c 128,-1,12
 229 724 229 724 320 724 c 0,13,14
 365 724 365 724 406 712.5 c 128,-1,15
 447 701 447 701 483 678 c 1,16,-1
 627 643 627 643 453 607 c 1,17,18
 420 628 420 628 387.5 638.5 c 128,-1,19
 355 649 355 649 322 649 c 0,20,21
 262 649 262 649 221 615.5 c 128,-1,22
 180 582 180 582 159 517 c 128,-1,23
 138 452 138 452 138 357 c 0,24,25
 138 275 138 275 155.5 209 c 128,-1,26
 173 143 173 143 211.5 104.5 c 128,-1,27
 250 66 250 66 311 66 c 0,28,29
 339 66 339 66 363.5 70 c 128,-1,30
 388 74 388 74 409 81 c 1,31,-1
 564 191 564 191 409 302 c 1,32,-1
 485.5 297 485.5 297 308 302 c 1,33,-1
 407 337 407 337 308 377 c 1,0,-1
EndSplineSet
EndChar

StartChar: uni1E9E
Encoding: 7838 7838 168
Width: 549
GlyphClass: 1
Flags: W
LayerCount: 2
Fore
SplineSet
258 724 m 0,0,1
 312 724 312 724 353 703.5 c 128,-1,2
 394 683 394 683 419 642 c 128,-1,3
 444 601 444 601 448 539 c 1,4,-1
 528 486.5 528 486.5 341 403 c 1,5,6
 391 400 391 400 427.5 376 c 128,-1,7
 464 352 464 352 483.5 309 c 128,-1,8
 503 266 503 266 503 206 c 0,9,10
 503 137 503 137 481.5 88.5 c 128,-1,11
 460 40 460 40 417.5 15 c 128,-1,12
 375 -10 375 -10 311 -10 c 0,13,14
 281 -10 281 -10 249 -2 c 128,-1,15
 217 6 217 6 196 23 c 1,16,-1
 239 70 239 70 196 106 c 1,17,18
 216 87 216 87 245 76.5 c 128,-1,19
 274 66 274 66 303 66 c 0,20,21
 362 66 362 66 389 102 c 128,-1,22
 416 138 416 138 416 208 c 0,23,24
 416 276 416 276 382.5 309.5 c 128,-1,25
 349 343 349 343 281 343 c 2,26,-1
 377 338 377 338 257 343 c 1,27,-1
 346 370.5 346 370.5 257 406 c 1,28,-1
 424 485 424 485 362 548 c 1,29,30
 356 583 356 583 342.5 604.5 c 128,-1,31
 329 626 329 626 308 636.5 c 128,-1,32
 287 647 287 647 258 647 c 0,33,34
 222 647 222 647 198.5 631.5 c 128,-1,35
 175 616 175 616 163 581.5 c 128,-1,36
 151 547 151 547 151 491 c 2,37,-1
 179 231 179 231 151 0 c 1,38,-1
 134.5 0 134.5 0 67 0 c 1,39,-1
 90 231 90 231 67 490 c 2,40,41
 67 571 67 571 89.5 622.5 c 128,-1,42
 112 674 112 674 155 699 c 128,-1,43
 198 724 198 724 258 724 c 0,0,1
EndSplineSet
EndChar

StartChar: H
Encoding: 72 72 169
Width: 741
GlyphClass: 1
Flags: W
LayerCount: 2
Fore
SplineSet
643 0 m 1,0,-1
 377 0 l 1,1,-1
 553 333 l 1,2,-1
 157 335 l 1,3,-1
 187 0 l 1,4,-1
 73 0 l 1,5,-1
 97 714 l 1,6,-1
 157 714 l 1,7,-1
 187 412 l 1,8,-1
 377 411 l 1,9,-1
 553 714 l 1,10,-1
 461 714 l 1,11,-1
 643 0 l 1,0,-1
EndSplineSet
EndChar

StartChar: Hbar
Encoding: 294 294 170
Width: 741
GlyphClass: 1
Flags: W
LayerCount: 2
Fore
SplineSet
97 0 m 1,0,-1
 72 530 l 1,1,-1
 0 523 l 1,2,-1
 -2 595 l 1,3,-1
 97 595 l 1,4,-1
 72 714 l 1,5,-1
 187 714 l 1,6,-1
 156 595 l 1,7,-1
 553 595 l 1,8,-1
 376 714 l 1,9,-1
 643 714 l 1,10,-1
 460 595 l 1,11,-1
 740 595 l 1,12,-1
 534 530 l 1,13,-1
 643 523 l 1,14,-1
 460 0 l 1,15,-1
 553 0 l 1,16,-1
 376 334 l 1,17,-1
 187 333 l 1,18,-1
 156 0 l 1,19,-1
 97 0 l 1,0,-1
187 412 m 1,20,-1
 377 412 l 1,21,-1
 553 523 l 1,22,-1
 157 530 l 1,23,-1
 187 412 l 1,20,-1
EndSplineSet
EndChar

StartChar: I
Encoding: 73 73 171
Width: 283
GlyphClass: 1
Flags: W
LayerCount: 2
Fore
SplineSet
248 0 m 1,0,-1
 169 0 169 0 34 0 c 1,1,-1
 40 26 40 26 34 48 c 1,2,-1
 82 61.5 82 61.5 99 65 c 1,3,-1
 124 356.5 124 356.5 99 649 c 1,4,-1
 82 652 82 652 34 666 c 1,5,-1
 40 688 40 688 34 714 c 1,6,-1
 169 714 169 714 248 714 c 1,7,-1
 298 688 298 688 248 666 c 1,8,-1
 256 652 256 652 183 649 c 1,9,-1
 214 356.5 214 356.5 183 65 c 1,10,-1
 256 61.5 256 61.5 248 48 c 1,11,-1
 298 26 298 26 248 0 c 1,0,-1
EndSplineSet
EndChar

StartChar: J
Encoding: 74 74 179
Width: 224
GlyphClass: 1
Flags: W
LayerCount: 2
Fore
SplineSet
16 -193 m 0,0,1
 -2 -193 -2 -193 -18.5 -190.5 c 128,-1,2
 -35 -188 -35 -188 -49 -182 c 1,3,-1
 -78 -139 -78 -139 -49 -107 c 1,4,5
 -37 -111 -37 -111 -23 -114 c 128,-1,6
 -9 -117 -9 -117 7 -117 c 0,7,8
 29 -117 29 -117 43 -105 c 128,-1,9
 57 -93 57 -93 63.5 -66 c 128,-1,10
 70 -39 70 -39 70 6 c 2,11,-1
 92 359 92 359 70 714 c 1,12,-1
 137 714 137 714 154 714 c 1,13,-1
 182 362.5 182 362.5 154 -1 c 2,14,15
 154 -71 154 -71 138 -113 c 128,-1,16
 122 -155 122 -155 91.5 -174 c 128,-1,17
 61 -193 61 -193 16 -193 c 0,0,1
EndSplineSet
EndChar

StartChar: K
Encoding: 75 75 180
Width: 447
GlyphClass: 1
Flags: W
LayerCount: 2
Fore
SplineSet
451 0 m 1,0,-1
 566 0 566 0 357 0 c 1,1,-1
 386.5 170.5 386.5 170.5 208 330 c 1,2,-1
 223.5 309 223.5 309 157 270 c 1,3,-1
 187 138.5 187 138.5 157 0 c 1,4,-1
 142 0 142 0 73 0 c 1,5,-1
 97 357 97 357 73 714 c 1,6,-1
 142 714 142 714 157 714 c 1,7,-1
 187 538 187 538 157 356 c 1,8,9
 163 370 163 370 176.5 396 c 128,-1,10
 190 422 190 422 211 459 c 2,11,-1
 406.5 606 406.5 606 351 714 c 1,12,-1
 555.5 714 555.5 714 442 714 c 1,13,-1
 466.5 558.5 466.5 558.5 265 398 c 1,14,-1
 472 201.5 472 201.5 451 0 c 1,0,-1
EndSplineSet
EndChar

StartChar: L
Encoding: 76 76 182
Width: 524
GlyphClass: 1
Flags: W
LayerCount: 2
Fore
SplineSet
97 0 m 1,0,-1
 73 714 l 1,1,-1
 187 714 l 1,2,-1
 157 76 l 1,3,-1
 499 80 l 1,4,-1
 354 0 l 1,5,-1
 97 0 l 1,0,-1
EndSplineSet
EndChar

StartChar: Lslash
Encoding: 321 321 186
Width: 379
GlyphClass: 1
Flags: W
LayerCount: 2
Fore
SplineSet
79 0 m 1,0,-1
 97 123.5 97 123.5 79 243 c 1,1,-1
 72.5 233 72.5 233 33 214 c 1,2,-1
 30.5 249 30.5 249 -7 268 c 1,3,-1
 55 304 55 304 79 326 c 1,4,-1
 97 521.5 97 521.5 79 714 c 1,5,-1
 142 714 142 714 163 714 c 1,6,-1
 187 548 187 548 163 383 c 1,7,-1
 255.5 422.5 255.5 422.5 272 452 c 1,8,-1
 342 431.5 342 431.5 310 397 c 1,9,-1
 273.5 350 273.5 350 163 301 c 1,10,-1
 187 190 187 190 163 76 c 1,11,-1
 343 80 343 80 359 76 c 1,12,-1
 499 40 499 40 359 0 c 1,13,-1
 298 0 298 0 79 0 c 1,0,-1
EndSplineSet
EndChar

StartChar: M
Encoding: 77 77 187
Width: 718
GlyphClass: 1
Flags: W
LayerCount: 2
Fore
SplineSet
321 0 m 1,0,-1
 294.5 313 294.5 313 151 599 c 1,1,-1
 175 626 175 626 147 599 c 1,2,3
 149 566 149 566 150.5 538.5 c 128,-1,4
 152 511 152 511 152.5 491 c 128,-1,5
 153 471 153 471 153 458 c 2,6,-1
 180 216.5 180 216.5 153 0 c 1,7,-1
 138.5 0 138.5 0 73 0 c 1,8,-1
 97 357 97 357 73 714 c 1,9,-1
 163.5 714 163.5 714 192 714 c 1,10,-1
 340 421.5 340 421.5 358 131 c 1,11,-1
 452 129 452 129 361 131 c 1,12,-1
 566 421.5 566 421.5 527 714 c 1,13,-1
 744 714 744 714 647 714 c 1,14,-1
 810 357 810 357 647 0 c 1,15,-1
 765.5 0 765.5 0 565 0 c 1,16,-1
 721 219.5 721 219.5 565 456 c 2,17,18
 565 471 565 471 565.5 491.5 c 128,-1,19
 566 512 566 512 567.5 539 c 128,-1,20
 569 566 569 566 570 599 c 1,21,-1
 726 625 726 625 566 599 c 1,22,-1
 605 312.5 605 312.5 396 0 c 1,23,-1
 449 0 449 0 321 0 c 1,0,-1
EndSplineSet
EndChar

StartChar: N
Encoding: 78 78 188
Width: 569
GlyphClass: 1
Flags: W
LayerCount: 2
Fore
SplineSet
497 0 m 1,0,-1
 610.5 0 610.5 0 395 0 c 1,1,-1
 367 296.5 367 296.5 151 582 c 1,2,-1
 174 593 174 593 147 582 c 1,3,4
 149 555 149 555 150.5 529.5 c 128,-1,5
 152 504 152 504 152.5 481.5 c 128,-1,6
 153 459 153 459 153 438 c 2,7,-1
 180 199.5 180 199.5 153 0 c 1,8,-1
 138.5 0 138.5 0 73 0 c 1,9,-1
 97 357 97 357 73 714 c 1,10,-1
 149 714 149 714 175 714 c 1,11,-1
 391.5 418.5 391.5 418.5 419 141 c 1,12,-1
 584 123 584 123 422 141 c 1,13,14
 421 171 421 171 419.5 196.5 c 128,-1,15
 418 222 418 222 417.5 244.5 c 128,-1,16
 417 267 417 267 417 286 c 2,17,-1
 579 512.5 579 512.5 417 714 c 1,18,-1
 621 714 621 714 497 714 c 1,19,-1
 663 357 663 357 497 0 c 1,0,-1
EndSplineSet
EndChar

StartChar: O
Encoding: 79 79 193
Width: 550
GlyphClass: 1
Flags: W
LayerCount: 2
Fore
SplineSet
501 358 m 0,0,1
 501 281 501 281 488.5 214 c 128,-1,2
 476 147 476 147 449 96.5 c 128,-1,3
 422 46 422 46 379.5 18 c 128,-1,4
 337 -10 337 -10 276 -10 c 0,5,6
 214 -10 214 -10 171 19 c 128,-1,7
 128 48 128 48 101 98.5 c 128,-1,8
 74 149 74 149 62 216 c 128,-1,9
 50 283 50 283 50 359 c 0,10,11
 50 481 50 481 75 562 c 128,-1,12
 100 643 100 643 150.5 683.5 c 128,-1,13
 201 724 201 724 276 724 c 0,14,15
 357 724 357 724 406.5 675 c 128,-1,16
 456 626 456 626 478.5 543.5 c 128,-1,17
 501 461 501 461 501 358 c 0,0,1
137 358 m 256,18,19
 137 262 137 262 153 197.5 c 128,-1,20
 169 133 169 133 199.5 100 c 128,-1,21
 230 67 230 67 275 67 c 0,22,23
 320 67 320 67 350.5 99 c 128,-1,24
 381 131 381 131 396.5 196 c 128,-1,25
 412 261 412 261 412 358 c 0,26,27
 412 503 412 503 378 575.5 c 128,-1,28
 344 648 344 648 276 648 c 0,29,30
 230 648 230 648 199 615.5 c 128,-1,31
 168 583 168 583 152.5 518.5 c 128,-1,32
 137 454 137 454 137 358 c 256,18,19
EndSplineSet
EndChar

StartChar: OE
Encoding: 338 338 194
Width: 646
GlyphClass: 1
Flags: W
LayerCount: 2
Fore
SplineSet
293 719 m 0,0,1
 310 719 310 719 325 717.5 c 128,-1,2
 340 716 340 716 354 714 c 1,3,-1
 675 714 675 714 601 714 c 1,4,-1
 868 674.5 868 674.5 601 639 c 1,5,-1
 724.5 635 724.5 635 401 639 c 1,6,-1
 581 523.5 581 523.5 401 410 c 1,7,-1
 715 412 715 412 589 410 c 1,8,-1
 849 373 849 373 589 335 c 1,9,-1
 715 334 715 334 401 335 c 1,10,-1
 581 206.5 581 206.5 401 76 c 1,11,-1
 724.5 79 724.5 79 601 76 c 1,12,-1
 868 39.5 868 39.5 601 0 c 1,13,-1
 678 0 678 0 355 0 c 1,14,15
 340 -1 340 -1 324.5 -3 c 128,-1,16
 309 -5 309 -5 291 -5 c 0,17,18
 209 -5 209 -5 155.5 38 c 128,-1,19
 102 81 102 81 76 162.5 c 128,-1,20
 50 244 50 244 50 359 c 256,21,22
 50 474 50 474 77 554.5 c 128,-1,23
 104 635 104 635 158 677 c 128,-1,24
 212 719 212 719 293 719 c 0,0,1
294 643 m 0,25,26
 248 642 248 642 218 621.5 c 128,-1,27
 188 601 188 601 170.5 563.5 c 128,-1,28
 153 526 153 526 145.5 474 c 128,-1,29
 138 422 138 422 138 358 c 0,30,31
 138 271 138 271 152 207 c 128,-1,32
 166 143 166 143 200.5 108 c 128,-1,33
 235 73 235 73 296 72 c 0,34,35
 302 72 302 72 307.5 72.5 c 128,-1,36
 313 73 313 73 317 74 c 1,37,-1
 492 357.5 492 357.5 317 639 c 1,38,39
 313 641 313 641 307 642 c 128,-1,40
 301 643 301 643 294 643 c 0,25,26
EndSplineSet
EndChar

StartChar: Oslash
Encoding: 216 216 201
Width: 550
GlyphClass: 1
Flags: W
LayerCount: 2
Fore
SplineSet
501 358 m 0,0,1
 501 269 501 269 486.5 200.5 c 128,-1,2
 472 132 472 132 443.5 85 c 128,-1,3
 415 38 415 38 373 14 c 128,-1,4
 331 -10 331 -10 276 -10 c 0,5,6
 239 -10 239 -10 207.5 2 c 128,-1,7
 176 14 176 14 151 36 c 1,8,-1
 182 3 182 3 110 -48 c 1,9,-1
 127.5 -11 127.5 -11 58 -25 c 1,10,-1
 123 46 123 46 111 82 c 1,11,12
 79 133 79 133 64.5 201.5 c 128,-1,13
 50 270 50 270 50 359 c 0,14,15
 50 481 50 481 75.5 562 c 128,-1,16
 101 643 101 643 151.5 683.5 c 128,-1,17
 202 724 202 724 276 724 c 0,18,19
 314 724 314 724 346.5 711 c 128,-1,20
 379 698 379 698 405 672 c 1,21,-1
 593 713 593 713 447 754 c 1,22,-1
 646.5 725.5 646.5 725.5 498 729 c 1,23,-1
 651.5 669.5 651.5 669.5 445 624 c 1,24,25
 474 578 474 578 487.5 511 c 128,-1,26
 501 444 501 444 501 358 c 0,0,1
414 358 m 0,27,28
 414 461 414 461 396 527 c 1,29,-1
 414 333 414 333 187 111 c 1,30,31
 204 88 204 88 226 76.5 c 128,-1,32
 248 65 248 65 275 65 c 0,33,34
 321 65 321 65 352 97.5 c 128,-1,35
 383 130 383 130 398.5 195.5 c 128,-1,36
 414 261 414 261 414 358 c 0,27,28
136 358 m 0,37,38
 136 300 136 300 142 254.5 c 128,-1,39
 148 209 148 209 159 176 c 1,40,-1
 362.5 385.5 362.5 385.5 369 595 c 1,41,42
 352 623 352 623 329 636 c 128,-1,43
 306 649 306 649 276 649 c 0,44,45
 230 649 230 649 198.5 616 c 128,-1,46
 167 583 167 583 151.5 518.5 c 128,-1,47
 136 454 136 454 136 358 c 0,37,38
EndSplineSet
EndChar

StartChar: P
Encoding: 80 80 203
Width: 443
GlyphClass: 1
Flags: W
LayerCount: 2
Fore
SplineSet
205 714 m 2,0,1
 311 714 311 714 361.5 662 c 128,-1,2
 412 610 412 610 412 503 c 0,3,4
 412 448 412 448 399 406 c 128,-1,5
 386 364 386 364 360 335.5 c 128,-1,6
 334 307 334 307 295 292.5 c 128,-1,7
 256 278 256 278 203 278 c 2,8,-1
 228 278 228 278 157 278 c 1,9,-1
 187 139 187 139 157 0 c 1,10,-1
 142 0 142 0 73 0 c 1,11,-1
 97 357 97 357 73 714 c 1,12,-1
 191.5 714 191.5 714 205 714 c 2,0,1
202 640 m 2,13,-1
 232.5 637 232.5 637 157 640 c 1,14,-1
 187 496 187 496 157 352 c 1,15,-1
 223 355 223 355 195 352 c 2,16,17
 242 352 242 352 270.5 367 c 128,-1,18
 299 382 299 382 312.5 415.5 c 128,-1,19
 326 449 326 449 326 502 c 0,20,21
 326 576 326 576 296 608 c 128,-1,22
 266 640 266 640 202 640 c 2,13,-1
EndSplineSet
EndChar

StartChar: Q
Encoding: 81 81 204
Width: 550
GlyphClass: 1
Flags: W
LayerCount: 2
Fore
SplineSet
501 358 m 0,0,1
 501 267 501 267 485.5 197.5 c 128,-1,2
 470 128 470 128 441 81.5 c 128,-1,3
 412 35 412 35 369 12 c 1,4,-1
 597.5 -81 597.5 -81 479 -170 c 1,5,-1
 618.5 -170 618.5 -170 379 -170 c 1,6,-1
 485 -89.5 485 -89.5 290 -8 c 1,7,8
 287 -9 287 -9 281.5 -9.5 c 128,-1,9
 276 -10 276 -10 271 -10 c 0,10,11
 210 -10 210 -10 168 19.5 c 128,-1,12
 126 49 126 49 100 100.5 c 128,-1,13
 74 152 74 152 62 218.5 c 128,-1,14
 50 285 50 285 50 359 c 0,15,16
 50 481 50 481 75 562 c 128,-1,17
 100 643 100 643 150.5 683.5 c 128,-1,18
 201 724 201 724 276 724 c 0,19,20
 349 724 349 724 399 683 c 128,-1,21
 449 642 449 642 475 560.5 c 128,-1,22
 501 479 501 479 501 358 c 0,0,1
137 358 m 256,23,24
 137 262 137 262 153 197.5 c 128,-1,25
 169 133 169 133 199.5 100 c 128,-1,26
 230 67 230 67 275 67 c 0,27,28
 320 67 320 67 350.5 99 c 128,-1,29
 381 131 381 131 396.5 196 c 128,-1,30
 412 261 412 261 412 358 c 0,31,32
 412 503 412 503 378 575.5 c 128,-1,33
 344 648 344 648 276 648 c 0,34,35
 230 648 230 648 199 615.5 c 128,-1,36
 168 583 168 583 152.5 518.5 c 128,-1,37
 137 454 137 454 137 358 c 256,23,24
EndSplineSet
EndChar

StartChar: R
Encoding: 82 82 205
Width: 461
GlyphClass: 1
Flags: W
LayerCount: 2
Fore
SplineSet
199 714 m 2,0,1
 273 714 273 714 320 691.5 c 128,-1,2
 367 669 367 669 390 624.5 c 128,-1,3
 413 580 413 580 413 513 c 0,4,5
 413 466 413 466 402 429 c 128,-1,6
 391 392 391 392 367 365 c 128,-1,7
 343 338 343 338 304 320 c 1,8,-1
 509 160 509 160 448 0 c 1,9,-1
 554.5 0 554.5 0 355 0 c 1,10,-1
 415.5 147.5 415.5 147.5 228 299 c 1,11,-1
 258 295 258 295 157 299 c 1,12,-1
 187 147.5 187 147.5 157 0 c 1,13,-1
 142 0 142 0 73 0 c 1,14,-1
 97 357 97 357 73 714 c 1,15,-1
 195.5 714 195.5 714 199 714 c 2,0,1
200 638 m 2,16,-1
 238 636 238 636 157 638 c 1,17,-1
 187 503.5 187 503.5 157 369 c 1,18,-1
 240.5 371 240.5 371 209 369 c 2,19,20
 266 369 266 369 296.5 404 c 128,-1,21
 327 439 327 439 327 509 c 0,22,23
 327 555 327 555 313.5 583 c 128,-1,24
 300 611 300 611 272 624.5 c 128,-1,25
 244 638 244 638 200 638 c 2,16,-1
EndSplineSet
EndChar

StartChar: S
Encoding: 83 83 209
Width: 413
GlyphClass: 1
Flags: W
LayerCount: 2
Fore
SplineSet
375 196 m 0,0,1
 375 136 375 136 351.5 89.5 c 128,-1,2
 328 43 328 43 286 16.5 c 128,-1,3
 244 -10 244 -10 187 -10 c 0,4,5
 158 -10 158 -10 132 -6.5 c 128,-1,6
 106 -3 106 -3 82.5 4 c 128,-1,7
 59 11 59 11 38 21 c 1,8,-1
 51 67 51 67 38 108 c 1,9,10
 72 89 72 89 111 79 c 128,-1,11
 150 69 150 69 184 69 c 0,12,13
 218 69 218 69 241.5 85 c 128,-1,14
 265 101 265 101 277.5 128.5 c 128,-1,15
 290 156 290 156 290 188 c 256,16,17
 290 223 290 223 279.5 247 c 128,-1,18
 269 271 269 271 245 291 c 128,-1,19
 221 311 221 311 180 332 c 0,20,21
 148 349 148 349 122.5 367.5 c 128,-1,22
 97 386 97 386 79.5 409 c 128,-1,23
 62 432 62 432 52.5 463 c 128,-1,24
 43 494 43 494 43 536 c 0,25,26
 42 592 42 592 65.5 634.5 c 128,-1,27
 89 677 89 677 130.5 701 c 128,-1,28
 172 725 172 725 225 724 c 0,29,30
 267 724 267 724 304 713.5 c 128,-1,31
 341 703 341 703 369 689 c 1,32,-1
 471 645.5 471 645.5 342 612 c 1,33,34
 312 629 312 629 283 637 c 128,-1,35
 254 645 254 645 227 645 c 0,36,37
 196 645 196 645 174 631.5 c 128,-1,38
 152 618 152 618 140 594.5 c 128,-1,39
 128 571 128 571 128 540 c 0,40,41
 128 503 128 503 138 479.5 c 128,-1,42
 148 456 148 456 172.5 437.5 c 128,-1,43
 197 419 197 419 238 396 c 0,44,45
 285 372 285 372 315 343 c 128,-1,46
 345 314 345 314 360 278 c 128,-1,47
 375 242 375 242 375 196 c 0,0,1
EndSplineSet
EndChar

StartChar: T
Encoding: 84 84 214
Width: 556
GlyphClass: 1
Flags: W
LayerCount: 2
Fore
SplineSet
323 0 m 1,0,-1
 148 0 l 1,1,-1
 233 635 l 1,2,-1
 10 638 l 1,3,-1
 10 714 l 1,4,-1
 370 714 l 1,5,-1
 545 635 l 1,6,-1
 232 638 l 1,7,-1
 323 0 l 1,0,-1
EndSplineSet
EndChar

StartChar: Thorn
Encoding: 222 222 217
Width: 436
GlyphClass: 1
Flags: W
LayerCount: 2
Fore
SplineSet
409 383 m 0,0,1
 409 329 409 329 396.5 286.5 c 128,-1,2
 384 244 384 244 359 214.5 c 128,-1,3
 334 185 334 185 295.5 169.5 c 128,-1,4
 257 154 257 154 204 154 c 2,5,-1
 227.5 155 227.5 155 157 154 c 1,6,-1
 187 77.5 187 77.5 157 0 c 1,7,-1
 142 0 142 0 73 0 c 1,8,-1
 97 357 97 357 73 714 c 1,9,-1
 142 714 142 714 157 714 c 1,10,-1
 187 652 187 652 157 590 c 1,11,-1
 235 590 235 590 204 590 c 2,12,13
 309 590 309 590 359 538.5 c 128,-1,14
 409 487 409 487 409 383 c 0,0,1
196 229 m 2,15,16
 243 229 243 229 271 245 c 128,-1,17
 299 261 299 261 311.5 294 c 128,-1,18
 324 327 324 327 324 378 c 0,19,20
 324 450 324 450 295 482.5 c 128,-1,21
 266 515 266 515 203 515 c 2,22,-1
 231.5 513 231.5 513 157 515 c 1,23,-1
 187 372 187 372 157 229 c 1,24,-1
 223 231 223 231 196 229 c 2,15,16
EndSplineSet
EndChar

StartChar: U
Encoding: 85 85 218
Width: 522
GlyphClass: 1
Flags: W
LayerCount: 2
Fore
SplineSet
455 224 m 2,0,1
 455 143 455 143 433 91.5 c 128,-1,2
 411 40 411 40 368.5 15 c 128,-1,3
 326 -10 326 -10 262 -10 c 0,4,5
 167 -10 167 -10 117 47 c 128,-1,6
 67 104 67 104 67 223 c 2,7,-1
 90 484 90 484 67 714 c 1,8,-1
 135 714 135 714 151 714 c 1,9,-1
 180 482.5 180 482.5 151 222 c 2,10,11
 151 140 151 140 180 103.5 c 128,-1,12
 209 67 209 67 262 67 c 0,13,14
 298 67 298 67 322 82.5 c 128,-1,15
 346 98 346 98 358 132.5 c 128,-1,16
 370 167 370 167 370 223 c 2,17,-1
 551 483 551 483 370 714 c 1,18,-1
 595.5 714 595.5 714 455 714 c 1,19,-1
 640 483 640 483 455 224 c 2,0,1
EndSplineSet
EndChar

StartChar: Uogonek
Encoding: 370 370 226
Width: 522
GlyphClass: 1
Flags: W
LayerCount: 2
Fore
SplineSet
303 -118 m 0,0,1
 303 -142 303 -142 314.5 -153.5 c 128,-1,2
 326 -165 326 -165 347 -165 c 0,3,4
 357 -165 357 -165 366 -163 c 128,-1,5
 375 -161 375 -161 381 -159 c 1,6,-1
 559 -183 559 -183 381 -216 c 1,7,8
 371 -220 371 -220 357.5 -222 c 128,-1,9
 344 -224 344 -224 330 -224 c 0,10,11
 282 -224 282 -224 259 -200 c 128,-1,12
 236 -176 236 -176 236 -131 c 0,13,14
 236 -106 236 -106 246 -82.5 c 128,-1,15
 256 -59 256 -59 272.5 -38 c 128,-1,16
 289 -17 289 -17 309 0 c 1,17,-1
 523.5 45.5 523.5 45.5 397 40 c 1,18,19
 359 1 359 1 338.5 -27 c 128,-1,20
 318 -55 318 -55 310.5 -76.5 c 128,-1,21
 303 -98 303 -98 303 -118 c 0,0,1
455 224 m 2,22,23
 455 143 455 143 433 91.5 c 128,-1,24
 411 40 411 40 368.5 15 c 128,-1,25
 326 -10 326 -10 262 -10 c 0,26,27
 167 -10 167 -10 117 47 c 128,-1,28
 67 104 67 104 67 223 c 2,29,-1
 90 484 90 484 67 714 c 1,30,-1
 135 714 135 714 151 714 c 1,31,-1
 180 482.5 180 482.5 151 222 c 2,32,33
 151 140 151 140 180 103.5 c 128,-1,34
 209 67 209 67 262 67 c 0,35,36
 298 67 298 67 322 82.5 c 128,-1,37
 346 98 346 98 358 132.5 c 128,-1,38
 370 167 370 167 370 223 c 2,39,-1
 551 483 551 483 370 714 c 1,40,-1
 595.5 714 595.5 714 455 714 c 1,41,-1
 640 483 640 483 455 224 c 2,22,23
EndSplineSet
EndChar

StartChar: V
Encoding: 86 86 228
Width: 441
GlyphClass: 1
Flags: W
LayerCount: 2
Fore
SplineSet
441 714 m 1,0,-1
 472.5 357 472.5 357 268 0 c 1,1,-1
 300 0 300 0 171 0 c 1,2,-1
 0 714 l 1,3,-1
 88 714 l 1,4,-1
 174.5 485 174.5 485 196 231 c 2,5,6
 201 210 201 210 205 186.5 c 128,-1,7
 209 163 209 163 213 140 c 128,-1,8
 217 117 217 117 219 95 c 1,9,10
 222 117 222 117 226 140 c 128,-1,11
 230 163 230 163 234.5 187 c 128,-1,12
 239 211 239 211 244 233 c 2,13,-1
 425 486 425 486 353 714 c 1,14,-1
 552.5 714 552.5 714 441 714 c 1,0,-1
EndSplineSet
EndChar

StartChar: W
Encoding: 87 87 229
Width: 719
GlyphClass: 1
Flags: W
LayerCount: 2
Fore
SplineSet
716 714 m 1,0,-1
 822 357 822 357 570 0 c 1,1,-1
 681.5 0 681.5 0 470 0 c 1,2,-1
 566.5 234 566.5 234 379 455 c 2,3,4
 378 464 378 464 375.5 477.5 c 128,-1,5
 373 491 373 491 371 508.5 c 128,-1,6
 369 526 369 526 366 548 c 128,-1,7
 363 570 363 570 360 595 c 1,8,9
 358 579 358 579 355.5 561.5 c 128,-1,10
 353 544 353 544 351 526 c 128,-1,11
 349 508 349 508 346 490.5 c 128,-1,12
 343 473 343 473 340 456 c 2,13,-1
 359.5 232.5 359.5 232.5 250 0 c 1,14,-1
 246.5 0 246.5 0 152 0 c 1,15,-1
 106.5 357 106.5 357 4 714 c 1,16,-1
 59 714 59 714 89 714 c 1,17,-1
 161.5 496 161.5 496 175 276 c 2,18,19
 180 249 180 249 184.5 224 c 128,-1,20
 189 199 189 199 192.5 176 c 128,-1,21
 196 153 196 153 199 133 c 128,-1,22
 202 113 202 113 203 97 c 1,23,24
 206 119 206 119 209.5 141.5 c 128,-1,25
 213 164 213 164 217 187 c 128,-1,26
 221 210 221 210 224.5 232 c 128,-1,27
 228 254 228 254 232 274 c 2,28,-1
 352 498.5 352 498.5 321 714 c 1,29,-1
 461.5 714 461.5 714 400 714 c 1,30,-1
 573.5 497 573.5 497 487 275 c 2,31,32
 491 256 491 256 494.5 235 c 128,-1,33
 498 214 498 214 501.5 192 c 128,-1,34
 505 170 505 170 508.5 146.5 c 128,-1,35
 512 123 512 123 515 97 c 1,36,37
 519 130 519 130 523.5 161 c 128,-1,38
 528 192 528 192 533 221.5 c 128,-1,39
 538 251 538 251 543 276 c 2,40,-1
 768 496.5 768 496.5 631 714 c 1,41,-1
 870 714 870 714 716 714 c 1,0,-1
EndSplineSet
EndChar

StartChar: X
Encoding: 88 88 234
Width: 400
GlyphClass: 1
Flags: W
LayerCount: 2
Fore
SplineSet
394 0 m 1,0,-1
 531 0 531 0 304 0 c 1,1,-1
 385.5 155 385.5 155 204 292 c 1,2,-1
 195 155 195 155 94 0 c 1,3,-1
 51.5 0 51.5 0 7 0 c 1,4,-1
 122.5 186 122.5 186 158 373 c 1,5,-1
 130 543 130 543 25 714 c 1,6,-1
 69 714 69 714 112 714 c 1,7,-1
 206.5 574 206.5 574 205 447 c 1,8,-1
 382 574 382 574 299 714 c 1,9,-1
 517.5 714 517.5 714 387 714 c 1,10,-1
 454.5 544 454.5 544 253 367 c 1,11,-1
 463 187 463 187 394 0 c 1,0,-1
EndSplineSet
EndChar

StartChar: Y
Encoding: 89 89 235
Width: 392
GlyphClass: 1
Flags: W
LayerCount: 2
Fore
SplineSet
197 378 m 1,0,-1
 376 538.5 376 538.5 304 714 c 1,1,-1
 517.5 714 517.5 714 392 714 c 1,2,-1
 447 495.5 447 495.5 238 278 c 1,3,-1
 328 138.5 328 138.5 238 0 c 1,4,-1
 283 0 283 0 154 0 c 1,5,-1
 238 136.5 238 136.5 154 276 c 1,6,-1
 0 714 l 1,7,-1
 88 714 l 1,8,-1
 190.5 538.5 190.5 538.5 197 378 c 1,0,-1
EndSplineSet
EndChar

StartChar: Z
Encoding: 90 90 240
Width: 572
GlyphClass: 1
Flags: W
LayerCount: 2
Fore
SplineSet
341 0 m 1,0,-1
 38 0 l 1,1,-1
 26 65 l 1,2,-1
 244 638 l 1,3,-1
 50 634 l 1,4,-1
 30 714 l 1,5,-1
 523 714 l 1,6,-1
 335 648 l 1,7,-1
 115 76 l 1,8,-1
 533 80 l 1,9,-1
 341 0 l 1,0,-1
EndSplineSet
EndChar

StartChar: a
Encoding: 97 97 244
Width: 416
GlyphClass: 1
Flags: W
LayerCount: 2
Fore
SplineSet
213 547 m 0,0,1
 289 547 289 547 321 499 c 128,-1,2
 353 451 353 451 353 362 c 2,3,-1
 480 182.5 480 182.5 353 0 c 1,4,-1
 448 0 448 0 291 0 c 1,5,-1
 407.5 38 407.5 38 279 74 c 1,6,-1
 397 76 397 76 277 74 c 1,7,8
 263 46 263 46 245 27.5 c 128,-1,9
 227 9 227 9 204.5 -0.5 c 128,-1,10
 182 -10 182 -10 154 -10 c 0,11,12
 113 -10 113 -10 86 12.5 c 128,-1,13
 59 35 59 35 46.5 71.5 c 128,-1,14
 34 108 34 108 34 150 c 0,15,16
 34 230 34 230 80 274 c 128,-1,17
 126 318 126 318 211 322 c 2,18,-1
 348.5 321.5 348.5 321.5 272 325 c 1,19,-1
 394 339 394 339 272 360 c 2,20,21
 272 422 272 422 255 451 c 128,-1,22
 238 480 238 480 200 480 c 0,23,24
 178 480 178 480 153 472 c 128,-1,25
 128 464 128 464 99 447 c 1,26,-1
 118.5 466 118.5 466 73 508 c 1,27,28
 105 528 105 528 140 537.5 c 128,-1,29
 175 547 175 547 213 547 c 0,0,1
225 263 m 2,30,31
 170 260 170 260 143.5 232.5 c 128,-1,32
 117 205 117 205 117 152 c 0,33,34
 117 103 117 103 134 79.5 c 128,-1,35
 151 56 151 56 182 56 c 0,36,37
 224 56 224 56 248.5 97.5 c 128,-1,38
 273 139 273 139 273 212 c 2,39,-1
 393 238 393 238 273 266 c 1,40,-1
 353.5 260.5 353.5 260.5 225 263 c 2,30,31
EndSplineSet
EndChar

StartChar: acute
Encoding: 180 180 248
Width: 266
GlyphClass: 1
Flags: W
LayerCount: 2
Fore
SplineSet
226 757 m 1,0,1
 217 741 217 741 200.5 721 c 128,-1,2
 184 701 184 701 165 679.5 c 128,-1,3
 146 658 146 658 126.5 639 c 128,-1,4
 107 620 107 620 92 606 c 1,5,-1
 40 606 l 1,6,-1
 40 617 l 1,7,8
 59 644 59 644 75.5 669.5 c 128,-1,9
 92 695 92 695 105.5 719.5 c 128,-1,10
 119 744 119 744 129 766 c 1,11,-1
 188 766 188 766 226 766 c 1,12,-1
 241 761 241 761 226 757 c 1,0,1
EndSplineSet
EndChar

StartChar: ae
Encoding: 230 230 251
Width: 648
GlyphClass: 1
Flags: W
LayerCount: 2
Fore
SplineSet
444 546 m 0,0,1
 500 546 500 546 535.5 514.5 c 128,-1,2
 571 483 571 483 588.5 429.5 c 128,-1,3
 606 376 606 376 606 309 c 2,4,-1
 813 279 813 279 606 253 c 1,5,-1
 641.5 252 641.5 252 352 253 c 1,6,7
 354 155 354 155 382.5 106.5 c 128,-1,8
 411 58 411 58 468 58 c 0,9,10
 497 58 497 58 527 67 c 128,-1,11
 557 76 557 76 586 94 c 1,12,-1
 789 63.5 789 63.5 586 24 c 1,13,14
 558 7 558 7 527.5 -1.5 c 128,-1,15
 497 -10 497 -10 461 -10 c 0,16,17
 427 -10 427 -10 396 2.5 c 128,-1,18
 365 15 365 15 341.5 39 c 128,-1,19
 318 63 318 63 304 98 c 1,20,21
 287 61 287 61 265.5 37 c 128,-1,22
 244 13 244 13 217.5 1.5 c 128,-1,23
 191 -10 191 -10 159 -10 c 0,24,25
 116 -10 116 -10 88 12.5 c 128,-1,26
 60 35 60 35 47 71.5 c 128,-1,27
 34 108 34 108 34 150 c 256,28,29
 34 203 34 203 54.5 240.5 c 128,-1,30
 75 278 75 278 115 299 c 128,-1,31
 155 320 155 320 211 322 c 2,32,-1
 335 321.5 335 321.5 272 325 c 1,33,-1
 380 340 380 340 272 360 c 2,34,35
 272 420 272 420 255 450 c 128,-1,36
 238 480 238 480 200 480 c 0,37,38
 178 480 178 480 153 472 c 128,-1,39
 128 464 128 464 99 447 c 1,40,-1
 104.5 466 104.5 466 73 508 c 1,41,42
 101 525 101 525 133.5 536 c 128,-1,43
 166 547 166 547 206 547 c 0,44,45
 250 547 250 547 278 529 c 128,-1,46
 306 511 306 511 321 474 c 1,47,48
 342 510 342 510 373 528 c 128,-1,49
 404 546 404 546 444 546 c 0,0,1
225 263 m 2,50,51
 170 260 170 260 143.5 233.5 c 128,-1,52
 117 207 117 207 117 152 c 0,53,54
 117 103 117 103 134 79.5 c 128,-1,55
 151 56 151 56 182 56 c 256,56,57
 210 56 210 56 230.5 74.5 c 128,-1,58
 251 93 251 93 262 128 c 128,-1,59
 273 163 273 163 273 212 c 2,60,-1
 378 238 378 238 273 266 c 1,61,-1
 340.5 260.5 340.5 260.5 225 263 c 2,50,51
444 479 m 0,62,63
 404 479 404 479 380.5 439.5 c 128,-1,64
 357 400 357 400 353 317 c 1,65,-1
 596 321 596 321 531 317 c 1,66,67
 531 363 531 363 522 399.5 c 128,-1,68
 513 436 513 436 493.5 457.5 c 128,-1,69
 474 479 474 479 444 479 c 0,62,63
EndSplineSet
EndChar

StartChar: ampersand
Encoding: 38 38 254
Width: 477
GlyphClass: 1
Flags: W
LayerCount: 2
Fore
SplineSet
206 724 m 0,0,1
 245 724 245 724 272 706.5 c 128,-1,2
 299 689 299 689 313 655.5 c 128,-1,3
 327 622 327 622 327 574 c 0,4,5
 327 513 327 513 305.5 466 c 128,-1,6
 284 419 284 419 239 377 c 1,7,-1
 430.5 291 430.5 291 340 207 c 1,8,9
 353 233 353 233 360 266.5 c 128,-1,10
 367 300 367 300 368 340 c 1,11,-1
 641.5 357 641.5 357 451 340 c 1,12,13
 448 291 448 291 432 234 c 128,-1,14
 416 177 416 177 390 134 c 1,15,-1
 657 71 657 71 479 0 c 1,16,-1
 670.5 0 670.5 0 381 0 c 1,17,-1
 567.5 42 567.5 42 338 73 c 1,18,19
 316 47 316 47 292.5 28 c 128,-1,20
 269 9 269 9 241.5 -0.5 c 128,-1,21
 214 -10 214 -10 179 -10 c 0,22,23
 128 -10 128 -10 94.5 15 c 128,-1,24
 61 40 61 40 45 83 c 128,-1,25
 29 126 29 126 29 181 c 0,26,27
 29 224 29 224 40.5 259.5 c 128,-1,28
 52 295 52 295 77 326.5 c 128,-1,29
 102 358 102 358 140 388 c 1,30,31
 120 422 120 422 107 451 c 128,-1,32
 94 480 94 480 88 510.5 c 128,-1,33
 82 541 82 541 82 577 c 0,34,35
 82 623 82 623 97 655.5 c 128,-1,36
 112 688 112 688 140 706 c 128,-1,37
 168 724 168 724 206 724 c 0,0,1
178 333 m 1,38,39
 154 311 154 311 139.5 289 c 128,-1,40
 125 267 125 267 118.5 242 c 128,-1,41
 112 217 112 217 112 184 c 0,42,43
 112 129 112 129 133.5 97 c 128,-1,44
 155 65 155 65 191 65 c 0,45,46
 222 65 222 65 247 83 c 128,-1,47
 272 101 272 101 295 138 c 1,48,-1
 364 240 364 240 178 333 c 1,38,39
204 658 m 0,49,50
 184 658 184 658 172 637 c 128,-1,51
 160 616 160 616 160 575 c 0,52,53
 160 541 160 541 170.5 501.5 c 128,-1,54
 181 462 181 462 200 433 c 1,55,56
 229 460 229 460 240.5 496.5 c 128,-1,57
 252 533 252 533 252 576 c 0,58,59
 252 617 252 617 239.5 637.5 c 128,-1,60
 227 658 227 658 204 658 c 0,49,50
EndSplineSet
EndChar

StartChar: asciicircum
Encoding: 94 94 257
Width: 442
GlyphClass: 1
Flags: W
LayerCount: 2
Fore
SplineSet
15 332 m 1,0,-1
 144 493 144 493 197 713 c 1,1,-1
 275 719 275 719 245 713 c 1,2,-1
 417 493 417 493 428 332 c 1,3,-1
 495 267 495 267 349 332 c 1,4,-1
 366 446.5 366 446.5 221 609 c 1,5,-1
 196 446.5 196 446.5 93 332 c 1,6,-1
 77 267 77 267 15 332 c 1,0,-1
EndSplineSet
EndChar

StartChar: asciitilde
Encoding: 126 126 258
Width: 430
GlyphClass: 1
Flags: W
LayerCount: 2
Fore
SplineSet
205 320 m 0,0,1
 183 333 183 333 161.5 340 c 128,-1,2
 140 347 140 347 122 347 c 0,3,4
 100 347 100 347 76 331.5 c 128,-1,5
 52 316 52 316 29 288 c 1,6,-1
 50 326 50 326 29 365 c 1,7,8
 49 390 49 390 73 403 c 128,-1,9
 97 416 97 416 126 416 c 0,10,11
 154 416 154 416 176.5 408 c 128,-1,12
 199 400 199 400 225 386 c 0,13,14
 251 373 251 373 270.5 366 c 128,-1,15
 290 359 290 359 309 359 c 0,16,17
 332 359 332 359 357 375.5 c 128,-1,18
 382 392 382 392 402 417 c 1,19,-1
 521 379.5 521 379.5 402 340 c 1,20,21
 383 317 383 317 358.5 304 c 128,-1,22
 334 291 334 291 305 291 c 0,23,24
 275 291 275 291 254 298.5 c 128,-1,25
 233 306 233 306 205 320 c 0,0,1
EndSplineSet
EndChar

StartChar: asterisk
Encoding: 42 42 259
Width: 397
GlyphClass: 1
Flags: W
LayerCount: 2
Fore
SplineSet
241 761 m 1,0,-1
 312 664 312 664 226 631 c 1,1,-1
 398 595 398 595 346 667 c 1,2,-1
 501 576 501 576 361 589 c 1,3,-1
 416 522.5 416 522.5 242 580 c 1,4,-1
 383.5 436 383.5 436 327 469 c 1,5,-1
 400 333.5 400 333.5 258 428 c 1,6,-1
 314.5 397.5 314.5 397.5 199 550 c 1,7,-1
 233.5 397.5 233.5 397.5 138 428 c 1,8,-1
 150.5 333.5 150.5 333.5 71 469 c 1,9,-1
 164.5 436 164.5 436 153 580 c 1,10,-1
 132 522.5 132 522.5 36 588 c 1,11,-1
 48 576 48 576 52 666 c 1,12,-1
 150 595 150 595 171 631 c 1,13,-1
 234.5 664 234.5 664 157 761 c 1,14,-1
 273 760 273 760 241 761 c 1,0,-1
EndSplineSet
EndChar

StartChar: at
Encoding: 64 64 260
Width: 651
GlyphClass: 1
Flags: W
LayerCount: 2
Fore
SplineSet
606 362 m 0,0,1
 606 302 606 302 597.5 255.5 c 128,-1,2
 589 209 589 209 573 177.5 c 128,-1,3
 557 146 557 146 534 129.5 c 128,-1,4
 511 113 511 113 481 113 c 0,5,6
 441 113 441 113 421 137 c 128,-1,7
 401 161 401 161 396 204 c 1,8,-1
 560.5 196 560.5 196 391 204 c 1,9,10
 380 158 380 158 359.5 135.5 c 128,-1,11
 339 113 339 113 307 113 c 0,12,13
 256 113 256 113 228 160.5 c 128,-1,14
 200 208 200 208 200 294 c 0,15,16
 200 369 200 369 217 420.5 c 128,-1,17
 234 472 234 472 267 498.5 c 128,-1,18
 300 525 300 525 348 525 c 0,19,20
 373 525 373 525 398 520.5 c 128,-1,21
 423 516 423 516 446 507 c 1,22,-1
 618 394.5 618 394.5 438 299 c 2,23,24
 437 284 437 284 436.5 268.5 c 128,-1,25
 436 253 436 253 436 244 c 0,26,27
 436 207 436 207 447.5 190.5 c 128,-1,28
 459 174 459 174 479 174 c 0,29,30
 499 174 499 174 512.5 194 c 128,-1,31
 526 214 526 214 532.5 256 c 128,-1,32
 539 298 539 298 539 364 c 0,33,34
 539 452 539 452 515 519.5 c 128,-1,35
 491 587 491 587 447 625 c 128,-1,36
 403 663 403 663 343 662 c 0,37,38
 281 662 281 662 237 629 c 128,-1,39
 193 596 193 596 166 541.5 c 128,-1,40
 139 487 139 487 126.5 422 c 128,-1,41
 114 357 114 357 114 294 c 0,42,43
 114 206 114 206 135.5 133.5 c 128,-1,44
 157 61 157 61 202.5 17.5 c 128,-1,45
 248 -26 248 -26 320 -26 c 0,46,47
 358 -26 358 -26 394.5 -15 c 128,-1,48
 431 -4 431 -4 459 12 c 1,49,-1
 648 -14 648 -14 459 -51 c 1,50,51
 428 -67 428 -67 394.5 -75.5 c 128,-1,52
 361 -84 361 -84 318 -84 c 0,53,54
 231 -84 231 -84 171 -41 c 128,-1,55
 111 2 111 2 79.5 85 c 128,-1,56
 48 168 48 168 48 287 c 0,57,58
 48 386 48 386 69 466.5 c 128,-1,59
 90 547 90 547 129.5 604 c 128,-1,60
 169 661 169 661 223 691 c 128,-1,61
 277 721 277 721 343 720 c 0,62,63
 405 720 405 720 454 692 c 128,-1,64
 503 664 503 664 537 615 c 128,-1,65
 571 566 571 566 588.5 501 c 128,-1,66
 606 436 606 436 606 362 c 0,0,1
268 292 m 0,67,68
 268 233 268 233 280.5 203.5 c 128,-1,69
 293 174 293 174 317 174 c 0,70,71
 340 174 340 174 352 212.5 c 128,-1,72
 364 251 364 251 368 336 c 2,73,-1
 542 384.5 542 384.5 375 466 c 1,74,75
 368 468 368 468 360.5 469 c 128,-1,76
 353 470 353 470 343 470 c 0,77,78
 320 470 320 470 303 449.5 c 128,-1,79
 286 429 286 429 277 389.5 c 128,-1,80
 268 350 268 350 268 292 c 0,67,68
EndSplineSet
EndChar

StartChar: b
Encoding: 98 98 262
Width: 462
GlyphClass: 1
Flags: W
LayerCount: 2
Fore
SplineSet
146 543 m 2,0,1
 146 527 146 527 145 508 c 128,-1,2
 144 489 144 489 143 466 c 1,3,-1
 170.5 465 170.5 465 147 466 c 1,4,5
 169 507 169 507 198 526.5 c 128,-1,6
 227 546 227 546 264 546 c 0,7,8
 341 546 341 546 381 475.5 c 128,-1,9
 421 405 421 405 421 269 c 0,10,11
 421 180 421 180 403 117.5 c 128,-1,12
 385 55 385 55 351 22.5 c 128,-1,13
 317 -10 317 -10 267 -10 c 0,14,15
 229 -10 229 -10 199.5 9 c 128,-1,16
 170 28 170 28 147 68 c 1,17,-1
 169.5 68 169.5 68 142 68 c 1,18,-1
 157 34 157 34 131 0 c 1,19,-1
 116.5 0 116.5 0 65 0 c 1,20,-1
 85 380 85 380 65 760 c 1,21,-1
 129 760 129 760 146 760 c 1,22,-1
 173 667.5 173 667.5 146 543 c 2,0,1
246 475 m 0,23,24
 206 475 206 475 184 449 c 128,-1,25
 162 423 162 423 154 378 c 128,-1,26
 146 333 146 333 146 276 c 2,27,-1
 173 269 173 269 146 257 c 2,28,29
 146 157 146 157 171 108.5 c 128,-1,30
 196 60 196 60 247 60 c 0,31,32
 293 60 293 60 315.5 111 c 128,-1,33
 338 162 338 162 338 270 c 0,34,35
 338 372 338 372 316 423.5 c 128,-1,36
 294 475 294 475 246 475 c 0,23,24
EndSplineSet
EndChar

StartChar: backslash
Encoding: 92 92 263
Width: 371
GlyphClass: 1
Flags: W
LayerCount: 2
Fore
SplineSet
94 717 m 1,0,-1
 229.5 357 229.5 357 357 -3 c 1,1,-1
 319.5 0 319.5 0 280 -3 c 1,2,-1
 143 357 143 357 18 717 c 1,3,-1
 53 714 53 714 94 717 c 1,0,-1
EndSplineSet
EndChar

StartChar: bar
Encoding: 124 124 264
Width: 551
GlyphClass: 1
Flags: W
LayerCount: 2
Fore
SplineSet
239 760 m 1,0,-1
 240 763 l 1,1,-1
 312 -241 l 1,2,-1
 165 -237 l 1,3,-1
 239 760 l 1,0,-1
EndSplineSet
EndChar

StartChar: braceleft
Encoding: 123 123 265
Width: 362
GlyphClass: 1
Flags: W
LayerCount: 2
Fore
SplineSet
320 -161 m 1,0,1
 260 -160 260 -160 220.5 -142.5 c 128,-1,2
 181 -125 181 -125 161.5 -90 c 128,-1,3
 142 -55 142 -55 142 -1 c 2,4,-1
 150 74.5 150 74.5 142 149 c 2,5,6
 142 182 142 182 133 203.5 c 128,-1,7
 124 225 124 225 102 236 c 128,-1,8
 80 247 80 247 41 247 c 1,9,-1
 28 278.5 28 278.5 41 309 c 1,10,11
 76 309 76 309 98 318 c 128,-1,12
 120 327 120 327 131 348.5 c 128,-1,13
 142 370 142 370 142 407 c 2,14,-1
 150 482 150 482 142 558 c 2,15,16
 142 610 142 610 160.5 645 c 128,-1,17
 179 680 179 680 218.5 698 c 128,-1,18
 258 716 258 716 320 717 c 1,19,-1
 348 678 348 678 320 651 c 1,20,21
 287 650 287 650 265 640.5 c 128,-1,22
 243 631 243 631 232 610.5 c 128,-1,23
 221 590 221 590 221 555 c 2,24,-1
 237 476 237 476 221 405 c 2,25,26
 221 350 221 350 200 319.5 c 128,-1,27
 179 289 179 289 128 280 c 1,28,-1
 128 276 l 1,29,30
 181 266 181 266 201 235 c 128,-1,31
 221 204 221 204 221 151 c 2,32,-1
 237 80.5 237 80.5 221 1 c 2,33,34
 221 -32 221 -32 231 -53 c 128,-1,35
 241 -74 241 -74 263 -84 c 128,-1,36
 285 -94 285 -94 320 -95 c 1,37,-1
 348 -122 348 -122 320 -161 c 1,0,1
EndSplineSet
EndChar

StartChar: braceright
Encoding: 125 125 266
Width: 362
GlyphClass: 1
Flags: W
LayerCount: 2
Fore
SplineSet
41 -95 m 1,0,1
 76 -94 76 -94 98 -84 c 128,-1,2
 120 -74 120 -74 130 -53 c 128,-1,3
 140 -32 140 -32 140 1 c 2,4,-1
 143 80.5 143 80.5 140 151 c 2,5,6
 140 206 140 206 161.5 236 c 128,-1,7
 183 266 183 266 233 276 c 1,8,-1
 252 278 252 278 233 280 c 1,9,10
 183 289 183 289 161.5 319.5 c 128,-1,11
 140 350 140 350 140 405 c 2,12,-1
 143 476 143 476 140 555 c 2,13,14
 140 590 140 590 128.5 610.5 c 128,-1,15
 117 631 117 631 95 640.5 c 128,-1,16
 73 650 73 650 41 651 c 1,17,-1
 32 678 32 678 41 717 c 1,18,19
 101 716 101 716 140.5 698.5 c 128,-1,20
 180 681 180 681 199.5 646.5 c 128,-1,21
 219 612 219 612 219 558 c 2,22,-1
 230 482 230 482 219 407 c 2,23,24
 219 375 219 375 227.5 353 c 128,-1,25
 236 331 236 331 258 320 c 128,-1,26
 280 309 280 309 320 309 c 1,27,-1
 352 278.5 352 278.5 320 247 c 1,28,29
 283 247 283 247 261 237 c 128,-1,30
 239 227 239 227 229 205.5 c 128,-1,31
 219 184 219 184 219 149 c 2,32,-1
 230 74.5 230 74.5 219 -1 c 2,33,34
 219 -53 219 -53 201 -88.5 c 128,-1,35
 183 -124 183 -124 143.5 -142 c 128,-1,36
 104 -160 104 -160 41 -161 c 1,37,-1
 32 -122 32 -122 41 -95 c 1,0,1
EndSplineSet
EndChar

StartChar: bracketleft
Encoding: 91 91 267
Width: 329
GlyphClass: 1
Flags: W
LayerCount: 2
Fore
SplineSet
304 -158 m 1,0,-1
 72 -161 l 1,1,-1
 80 714 l 1,2,-1
 281 720 l 1,3,-1
 304 642 l 1,4,-1
 149 652 l 1,5,-1
 166 -86 l 1,6,-1
 281 -93 l 1,7,-1
 304 -158 l 1,0,-1
EndSplineSet
EndChar

StartChar: bracketright
Encoding: 93 93 268
Width: 329
GlyphClass: 1
Flags: W
LayerCount: 2
Fore
SplineSet
25 -86 m 1,0,-1
 163 -93 l 1,1,-1
 163 642 l 1,2,-1
 31 652 l 1,3,-1
 25 714 l 1,4,-1
 240 720 l 1,5,-1
 249 -158 l 1,6,-1
 31 -161 l 1,7,-1
 25 -86 l 1,0,-1
EndSplineSet
EndChar

StartChar: breve
Encoding: 728 728 269
Width: 324
GlyphClass: 1
Flags: W
LayerCount: 2
Fore
SplineSet
284 741 m 1,0,1
 284 700 284 700 268 669.5 c 128,-1,2
 252 639 252 639 224.5 623 c 128,-1,3
 197 607 197 607 160 607 c 0,4,5
 105 607 105 607 73.5 640.5 c 128,-1,6
 42 674 42 674 40 741 c 1,7,-1
 67 740 67 740 93 741 c 1,8,9
 95 717 95 717 103.5 701 c 128,-1,10
 112 685 112 685 127 677 c 128,-1,11
 142 669 142 669 162 669 c 0,12,13
 182 669 182 669 197 677 c 128,-1,14
 212 685 212 685 221 701 c 128,-1,15
 230 717 230 717 232 741 c 1,16,-1
 323.5 740 323.5 740 284 741 c 1,0,1
EndSplineSet
EndChar

StartChar: bullet
Encoding: 8226 8226 271
Width: 381
GlyphClass: 1
Flags: W
LayerCount: 2
Fore
SplineSet
68 365 m 0,0,1
 68 410 68 410 82 440 c 128,-1,2
 96 470 96 470 123.5 485 c 128,-1,3
 151 500 151 500 190 500 c 256,4,5
 229 500 229 500 256.5 484.5 c 128,-1,6
 284 469 284 469 298 439 c 128,-1,7
 312 409 312 409 312 365 c 0,8,9
 312 322 312 322 297.5 291.5 c 128,-1,10
 283 261 283 261 256 245.5 c 128,-1,11
 229 230 229 230 190 230 c 256,12,13
 152 230 152 230 124.5 245.5 c 128,-1,14
 97 261 97 261 82.5 291 c 128,-1,15
 68 321 68 321 68 365 c 0,0,1
EndSplineSet
EndChar

StartChar: c
Encoding: 99 99 272
Width: 347
GlyphClass: 1
Flags: W
LayerCount: 2
Fore
SplineSet
221 -10 m 0,0,1
 162 -10 162 -10 122 20.5 c 128,-1,2
 82 51 82 51 62.5 112.5 c 128,-1,3
 43 174 43 174 43 265 c 0,4,5
 43 353 43 353 62.5 416 c 128,-1,6
 82 479 82 479 122 513 c 128,-1,7
 162 547 162 547 223 547 c 0,8,9
 255 547 255 547 280 540.5 c 128,-1,10
 305 534 305 534 326 522 c 1,11,-1
 433.5 480.5 433.5 480.5 301 455 c 1,12,13
 282 465 282 465 264 470 c 128,-1,14
 246 475 246 475 229 475 c 0,15,16
 195 475 195 475 172 451.5 c 128,-1,17
 149 428 149 428 137.5 381.5 c 128,-1,18
 126 335 126 335 126 266 c 0,19,20
 126 198 126 198 137.5 152 c 128,-1,21
 149 106 149 106 172.5 83.5 c 128,-1,22
 196 61 196 61 230 61 c 0,23,24
 252 61 252 61 274.5 67.5 c 128,-1,25
 297 74 297 74 320 86 c 1,26,-1
 438 58 438 58 320 18 c 1,27,28
 299 5 299 5 271.5 -2.5 c 128,-1,29
 244 -10 244 -10 221 -10 c 0,0,1
EndSplineSet
EndChar

StartChar: caron
Encoding: 711 711 274
Width: 342
GlyphClass: 1
Flags: W
LayerCount: 2
Fore
SplineSet
132 606 m 1,0,1
 122 628 122 628 107 654 c 128,-1,2
 92 680 92 680 75 706.5 c 128,-1,3
 58 733 58 733 40 756 c 1,4,-1
 40 766 l 1,5,-1
 85 766 l 1,6,7
 104 749 104 749 126.5 723.5 c 128,-1,8
 149 698 149 698 171 672 c 1,9,10
 197 702 197 702 214.5 721 c 128,-1,11
 232 740 232 740 257 766 c 1,12,-1
 347 766 347 766 302 766 c 1,13,-1
 378 759.5 378 759.5 302 756 c 1,14,15
 287 736 287 736 269.5 709.5 c 128,-1,16
 252 683 252 683 236 656 c 128,-1,17
 220 629 220 629 209 606 c 1,18,-1
 208 606 208 606 132 606 c 1,0,1
EndSplineSet
EndChar

StartChar: cedilla
Encoding: 184 184 279
Width: 202
GlyphClass: 1
Flags: W
LayerCount: 2
Fore
SplineSet
184 -137 m 0,0,1
 184 -187 184 -187 153 -213.5 c 128,-1,2
 122 -240 122 -240 66 -240 c 0,3,4
 48 -240 48 -240 34 -238.5 c 128,-1,5
 20 -237 20 -237 10 -234 c 1,6,-1
 14 -207.5 14 -207.5 10 -180 c 1,7,8
 20 -183 20 -183 31 -184.5 c 128,-1,9
 42 -186 42 -186 53 -186 c 0,10,11
 85 -186 85 -186 100.5 -172.5 c 128,-1,12
 116 -159 116 -159 116 -137 c 0,13,14
 116 -111 116 -111 96 -97.5 c 128,-1,15
 76 -84 76 -84 40 -79 c 1,16,-1
 71.5 -43 71.5 -43 74 0 c 1,17,-1
 122 0 122 0 123 0 c 1,18,-1
 138 -26.5 138 -26.5 101 -50 c 1,19,20
 128 -55 128 -55 146.5 -67 c 128,-1,21
 165 -79 165 -79 174.5 -96.5 c 128,-1,22
 184 -114 184 -114 184 -137 c 0,0,1
EndSplineSet
EndChar

StartChar: cent
Encoding: 162 162 281
Width: 429
GlyphClass: 1
Flags: W
LayerCount: 2
Fore
SplineSet
271 644 m 1,0,1
 296 642 296 642 317.5 636 c 128,-1,2
 339 630 339 630 357 619 c 1,3,-1
 472 578.5 472 578.5 332 551 c 1,4,5
 313 562 313 562 294.5 566.5 c 128,-1,6
 276 571 276 571 261 571 c 0,7,8
 225 571 225 571 202 548 c 128,-1,9
 179 525 179 525 168 479 c 128,-1,10
 157 433 157 433 157 364 c 256,11,12
 157 294 157 294 168 248.5 c 128,-1,13
 179 203 179 203 202 181 c 128,-1,14
 225 159 225 159 260 159 c 0,15,16
 281 159 281 159 304.5 166 c 128,-1,17
 328 173 328 173 351 185 c 1,18,-1
 476 155.5 476 155.5 351 115 c 1,19,20
 335 105 335 105 315 98.5 c 128,-1,21
 295 92 295 92 271 89 c 1,22,-1
 352 38.5 352 38.5 271 -10 c 1,23,-1
 318.5 -10 318.5 -10 218 -10 c 1,24,-1
 285 40 285 40 218 90 c 1,25,26
 169 97 169 97 137 131 c 128,-1,27
 105 165 105 165 89.5 224 c 128,-1,28
 74 283 74 283 74 363 c 0,29,30
 74 444 74 444 90 503 c 128,-1,31
 106 562 106 562 138 597.5 c 128,-1,32
 170 633 170 633 218 641 c 1,33,-1
 285 682 285 682 218 724 c 1,34,-1
 319 724 319 724 271 724 c 1,35,-1
 353 684 353 684 271 644 c 1,0,1
EndSplineSet
EndChar

StartChar: circumflex
Encoding: 710 710 282
Width: 342
GlyphClass: 1
Flags: W
LayerCount: 2
Fore
SplineSet
209 766 m 1,0,1
 220 744 220 744 235 717.5 c 128,-1,2
 250 691 250 691 268 664.5 c 128,-1,3
 286 638 286 638 302 616 c 1,4,-1
 378 611.5 378 611.5 302 606 c 1,5,-1
 347 606 347 606 257 606 c 1,6,7
 236 626 236 626 215 650 c 128,-1,8
 194 674 194 674 171 700 c 1,9,10
 148 674 148 674 125.5 648.5 c 128,-1,11
 103 623 103 623 85 606 c 1,12,-1
 40 606 l 1,13,-1
 40 616 l 1,14,15
 58 641 58 641 75.5 667.5 c 128,-1,16
 93 694 93 694 108 719.5 c 128,-1,17
 123 745 123 745 132 766 c 1,18,-1
 208 766 208 766 209 766 c 1,0,1
EndSplineSet
EndChar

StartChar: colon
Encoding: 58 58 284
Width: 228
GlyphClass: 1
Flags: W
LayerCount: 2
Fore
SplineSet
60 55 m 0,0,1
 60 87 60 87 73.5 103 c 128,-1,2
 87 119 87 119 114 119 c 0,3,4
 139 119 139 119 153.5 104 c 128,-1,5
 168 89 168 89 168 55 c 0,6,7
 168 22 168 22 152.5 6.5 c 128,-1,8
 137 -9 137 -9 114 -9 c 0,9,10
 88 -9 88 -9 74 7.5 c 128,-1,11
 60 24 60 24 60 55 c 0,0,1
60 476 m 0,12,13
 60 508 60 508 73.5 524 c 128,-1,14
 87 540 87 540 114 540 c 0,15,16
 140 540 140 540 154 524 c 128,-1,17
 168 508 168 508 168 476 c 0,18,19
 168 443 168 443 152.5 427 c 128,-1,20
 137 411 137 411 114 411 c 0,21,22
 88 411 88 411 74 427.5 c 128,-1,23
 60 444 60 444 60 476 c 0,12,13
EndSplineSet
EndChar

StartChar: comma
Encoding: 44 44 285
Width: 226
GlyphClass: 1
Flags: W
LayerCount: 2
Fore
SplineSet
174 103 m 1,0,1
 164 61 164 61 152.5 21 c 128,-1,2
 141 -19 141 -19 127.5 -57.5 c 128,-1,3
 114 -96 114 -96 98 -132 c 1,4,-1
 73.5 -129 73.5 -129 36 -132 c 1,5,6
 47 -91 47 -91 55.5 -48 c 128,-1,7
 64 -5 64 -5 71 36.5 c 128,-1,8
 78 78 78 78 81 114 c 1,9,-1
 138 116 138 116 167 114 c 1,10,-1
 188.5 110.5 188.5 110.5 174 103 c 1,0,1
EndSplineSet
EndChar

StartChar: uni0326
Encoding: 806 806 286
Width: 0
GlyphClass: 1
Flags: W
LayerCount: 2
Fore
SplineSet
54 -71 m 1,0,1
 47 -95 47 -95 36 -122.5 c 128,-1,2
 25 -150 25 -150 12 -175.5 c 128,-1,3
 -1 -201 -1 -201 -15 -221 c 1,4,-1
 -40 -221 -40 -221 -61 -221 c 1,5,-1
 -64 -215 -64 -215 -61 -210 c 1,6,7
 -55 -192 -55 -192 -48.5 -164.5 c 128,-1,8
 -42 -137 -42 -137 -36.5 -109 c 128,-1,9
 -31 -81 -31 -81 -29 -61 c 1,10,-1
 20.5 -61 20.5 -61 54 -61 c 1,11,-1
 64 -65.5 64 -65.5 54 -71 c 1,0,1
EndSplineSet
EndChar

StartChar: copyright
Encoding: 169 169 288
Width: 830
GlyphClass: 1
Flags: W
LayerCount: 2
Fore
SplineSet
429 134 m 0,0,1
 335 134 335 134 283 191.5 c 128,-1,2
 231 249 231 249 231 355 c 0,3,4
 231 424 231 424 255.5 474 c 128,-1,5
 280 524 280 524 325.5 551.5 c 128,-1,6
 371 579 371 579 434 579 c 0,7,8
 466 579 466 579 497.5 572 c 128,-1,9
 529 565 529 565 559 551 c 1,10,-1
 543.5 519.5 543.5 519.5 533 495 c 1,11,12
 508 507 508 507 483.5 512.5 c 128,-1,13
 459 518 459 518 436 518 c 0,14,15
 375 518 375 518 339.5 476.5 c 128,-1,16
 304 435 304 435 304 358 c 0,17,18
 304 274 304 274 337 234.5 c 128,-1,19
 370 195 370 195 434 195 c 0,20,21
 459 195 459 195 485.5 201 c 128,-1,22
 512 207 512 207 540 219 c 1,23,-1
 540 189 540 189 540 158 c 1,24,25
 514 146 514 146 486 140 c 128,-1,26
 458 134 458 134 429 134 c 0,0,1
415 -10 m 256,27,28
 330 -10 330 -10 262.5 19 c 128,-1,29
 195 48 195 48 147 99 c 128,-1,30
 99 150 99 150 73.5 216 c 128,-1,31
 48 282 48 282 48 357 c 256,32,33
 48 439 48 439 76.5 506 c 128,-1,34
 105 573 105 573 155 622 c 128,-1,35
 205 671 205 671 272 697.5 c 128,-1,36
 339 724 339 724 415 724 c 0,37,38
 496 724 496 724 563.5 696 c 128,-1,39
 631 668 631 668 680 618 c 128,-1,40
 729 568 729 568 755.5 501 c 128,-1,41
 782 434 782 434 782 357 c 256,42,43
 782 277 782 277 754.5 210 c 128,-1,44
 727 143 727 143 677.5 93.5 c 128,-1,45
 628 44 628 44 561 17 c 128,-1,46
 494 -10 494 -10 415 -10 c 256,27,28
415 43 m 0,47,48
 484 43 484 43 541 67 c 128,-1,49
 598 91 598 91 639 134 c 128,-1,50
 680 177 680 177 702.5 234 c 128,-1,51
 725 291 725 291 725 357 c 0,52,53
 725 425 725 425 702 482.5 c 128,-1,54
 679 540 679 540 637 582 c 128,-1,55
 595 624 595 624 538.5 647.5 c 128,-1,56
 482 671 482 671 415 671 c 256,57,58
 346 671 346 671 288.5 647 c 128,-1,59
 231 623 231 623 190 580 c 128,-1,60
 149 537 149 537 126.5 480 c 128,-1,61
 104 423 104 423 104 357 c 0,62,63
 104 287 104 287 127.5 229 c 128,-1,64
 151 171 151 171 193.5 129.5 c 128,-1,65
 236 88 236 88 292.5 65.5 c 128,-1,66
 349 43 349 43 415 43 c 0,47,48
EndSplineSet
EndChar

StartChar: d
Encoding: 100 100 289
Width: 462
GlyphClass: 1
Flags: W
LayerCount: 2
Fore
SplineSet
199 -10 m 0,0,1
 122 -10 122 -10 82 61 c 128,-1,2
 42 132 42 132 42 268 c 256,3,4
 42 402 42 402 82 474.5 c 128,-1,5
 122 547 122 547 196 547 c 0,6,7
 221 547 221 547 243 538 c 128,-1,8
 265 529 265 529 284 511.5 c 128,-1,9
 303 494 303 494 316 468 c 1,10,-1
 445 467 445 467 320 468 c 1,11,12
 319 491 319 491 318 508.5 c 128,-1,13
 317 526 317 526 317 542 c 2,14,-1
 442 653 442 653 317 760 c 1,15,-1
 486 760 486 760 398 760 c 1,16,-1
 530 380 530 380 398 0 c 1,17,-1
 494.5 0 494.5 0 333 0 c 1,18,-1
 452.5 36 452.5 36 322 68 c 1,19,-1
 444 72 444 72 317 68 c 1,20,21
 303 43 303 43 285.5 25.5 c 128,-1,22
 268 8 268 8 246.5 -1 c 128,-1,23
 225 -10 225 -10 199 -10 c 0,0,1
218 59 m 0,24,25
 267 59 267 59 292 105 c 128,-1,26
 317 151 317 151 317 244 c 2,27,-1
 443 258 443 258 317 274 c 2,28,29
 317 378 317 378 293 426.5 c 128,-1,30
 269 475 269 475 216 475 c 0,31,32
 169 475 169 475 147 422 c 128,-1,33
 125 369 125 369 125 268 c 0,34,35
 125 165 125 165 147.5 112 c 128,-1,36
 170 59 170 59 218 59 c 0,24,25
EndSplineSet
EndChar

StartChar: dcroat
Encoding: 273 273 291
Width: 462
GlyphClass: 1
Flags: W
LayerCount: 2
Fore
SplineSet
199 -10 m 0,0,1
 122 -10 122 -10 82 61 c 128,-1,2
 42 132 42 132 42 265 c 0,3,4
 42 398 42 398 82 469 c 128,-1,5
 122 540 122 540 196 540 c 0,6,7
 221 540 221 540 243 531 c 128,-1,8
 265 522 265 522 284 504.5 c 128,-1,9
 303 487 303 487 316 461 c 1,10,-1
 445 464 445 464 320 461 c 1,11,12
 319 483 319 483 318 501.5 c 128,-1,13
 317 520 317 520 317 535 c 2,14,-1
 442 574.5 442 574.5 317 609 c 1,15,-1
 335.5 605 335.5 605 204 609 c 1,16,-1
 229 638 229 638 204 671 c 1,17,-1
 335.5 671 335.5 671 317 671 c 1,18,-1
 442 715.5 442 715.5 317 760 c 1,19,-1
 486 760 486 760 398 760 c 1,20,-1
 530 715.5 530 715.5 398 671 c 1,21,-1
 568 671 568 671 456 671 c 1,22,-1
 606 638 606 638 456 609 c 1,23,-1
 568 605 568 605 398 609 c 1,24,-1
 530 302.5 530 302.5 398 0 c 1,25,-1
 494 0 494 0 333 0 c 1,26,-1
 451.5 36 451.5 36 322 69 c 1,27,-1
 443 72 443 72 316 69 c 1,28,29
 302 43 302 43 284.5 25 c 128,-1,30
 267 7 267 7 246 -1.5 c 128,-1,31
 225 -10 225 -10 199 -10 c 0,0,1
218 59 m 0,32,33
 267 59 267 59 292 105.5 c 128,-1,34
 317 152 317 152 317 250 c 2,35,-1
 443 256.5 443 256.5 317 270 c 2,36,37
 317 372 317 372 293 419.5 c 128,-1,38
 269 467 269 467 216 467 c 0,39,40
 169 467 169 467 147 415.5 c 128,-1,41
 125 364 125 364 125 264 c 256,42,43
 125 163 125 163 147.5 111 c 128,-1,44
 170 59 170 59 218 59 c 0,32,33
EndSplineSet
EndChar

StartChar: degree
Encoding: 176 176 292
Width: 365
GlyphClass: 1
Flags: W
LayerCount: 2
Fore
SplineSet
182 455 m 0,0,1
 142 455 142 455 111 471.5 c 128,-1,2
 80 488 80 488 62.5 518 c 128,-1,3
 45 548 45 548 45 589 c 0,4,5
 45 631 45 631 63 661 c 128,-1,6
 81 691 81 691 112 707 c 128,-1,7
 143 723 143 723 182 723 c 0,8,9
 222 723 222 723 253 706.5 c 128,-1,10
 284 690 284 690 302 660 c 128,-1,11
 320 630 320 630 320 589 c 0,12,13
 320 548 320 548 302 517.5 c 128,-1,14
 284 487 284 487 252.5 471 c 128,-1,15
 221 455 221 455 182 455 c 0,0,1
183 507 m 0,16,17
 219 507 219 507 240.5 529.5 c 128,-1,18
 262 552 262 552 262 589 c 0,19,20
 262 626 262 626 241 648.5 c 128,-1,21
 220 671 220 671 183 671 c 0,22,23
 144 671 144 671 123.5 647.5 c 128,-1,24
 103 624 103 624 103 589 c 0,25,26
 103 551 103 551 125.5 529 c 128,-1,27
 148 507 148 507 183 507 c 0,16,17
EndSplineSet
EndChar

StartChar: dieresis
Encoding: 168 168 293
Width: 524
GlyphClass: 1
Flags: W
LayerCount: 2
Fore
SplineSet
137 668 m 0,0,1
 137 694 137 694 149.5 706 c 128,-1,2
 162 718 162 718 180 718 c 256,3,4
 198 718 198 718 210 705.5 c 128,-1,5
 222 693 222 693 222 668 c 0,6,7
 222 642 222 642 210 629 c 128,-1,8
 198 616 198 616 180 616 c 256,9,10
 162 616 162 616 149.5 629 c 128,-1,11
 137 642 137 642 137 668 c 0,0,1
300 668 m 0,12,13
 300 694 300 694 312.5 706 c 128,-1,14
 325 718 325 718 343 718 c 256,15,16
 361 718 361 718 373.5 705.5 c 128,-1,17
 386 693 386 693 386 668 c 0,18,19
 386 642 386 642 373.5 629 c 128,-1,20
 361 616 361 616 343 616 c 256,21,22
 324 616 324 616 312 629 c 128,-1,23
 300 642 300 642 300 668 c 0,12,13
EndSplineSet
EndChar

StartChar: divide
Encoding: 247 247 295
Width: 430
GlyphClass: 1
Flags: W
LayerCount: 2
Fore
SplineSet
30 319 m 1,0,-1
 50 352.5 50 352.5 30 387 c 1,1,-1
 285.5 388 285.5 388 398 387 c 1,2,-1
 521 352.5 521 352.5 398 319 c 1,3,-1
 285.5 317 285.5 317 30 319 c 1,0,-1
216 112 m 256,4,5
 191 112 191 112 178 127.5 c 128,-1,6
 165 143 165 143 165 174 c 0,7,8
 165 205 165 205 178 220.5 c 128,-1,9
 191 236 191 236 216 236 c 256,10,11
 240 236 240 236 252.5 220.5 c 128,-1,12
 265 205 265 205 265 174 c 0,13,14
 265 143 265 143 251.5 127.5 c 128,-1,15
 238 112 238 112 216 112 c 256,4,5
216 469 m 256,16,17
 191 469 191 469 178 484.5 c 128,-1,18
 165 500 165 500 165 531 c 0,19,20
 165 562 165 562 178 577.5 c 128,-1,21
 191 593 191 593 216 593 c 256,22,23
 240 593 240 593 252.5 577.5 c 128,-1,24
 265 562 265 562 265 531 c 0,25,26
 265 500 265 500 251.5 484.5 c 128,-1,27
 238 469 238 469 216 469 c 256,16,17
EndSplineSet
EndChar

